<svg width="355" height="121" viewBox="0 0 355 121" fill="none" xmlns="http://www.w3.org/2000/svg">
<g filter="url(#filter0_d_302_11908)">
<path fill-rule="evenodd" clip-rule="evenodd" d="M73.9039 41.1241H86.2738V16H61.1489V28.3699H73.9039V41.1241Z" fill="#865DFF"/>
<path fill-rule="evenodd" clip-rule="evenodd" d="M44.2571 40.2575C39.3529 45.1616 39.3529 53.1127 44.2571 58.0161C49.1613 62.9203 57.1123 62.9203 62.0157 58.0161C66.9199 53.1119 66.9199 45.1608 62.0157 40.2575C59.5637 37.8054 56.3498 36.5789 53.136 36.5789C49.9222 36.5789 46.7084 37.8054 44.2563 40.2575H44.2571Z" fill="#865DFF"/>
<path fill-rule="evenodd" clip-rule="evenodd" d="M29.7057 25.7057C16.7648 38.6467 16.7648 59.6276 29.7057 72.5686L53.1372 96L76.5686 72.5686C83.0391 66.0981 86.2743 57.6172 86.2743 49.1372H73.9044C73.9044 54.6744 71.7379 59.9055 67.8221 63.8213C59.7087 71.9339 46.5656 71.9339 38.453 63.8213C30.3404 55.7087 30.3404 42.5656 38.453 34.4522C42.3688 30.5364 47.6006 28.3699 53.1379 28.3699V16C44.6571 16 36.177 19.2352 29.7065 25.7057H29.7057Z" fill="#009FBD"/>
<path d="M99.3459 49.4586C99.2771 45.9275 100.492 42.9123 102.992 40.4131C105.514 37.9138 108.552 36.6986 112.106 36.7674C115.11 36.7674 117.574 37.4438 119.5 38.7966C121.449 40.1494 122.768 41.9264 123.456 44.1276L118.537 45.9504C117.46 42.7175 115.316 41.101 112.106 41.101C109.928 41.101 108.162 41.8576 106.809 43.3709C105.456 44.8613 104.78 46.8905 104.78 49.4586C104.78 51.9349 105.456 53.9183 106.809 55.4086C108.185 56.899 109.905 57.6442 111.968 57.6442C113.78 57.6442 115.224 57.22 116.302 56.3717C117.38 55.5233 118.01 54.5144 118.194 53.345H110.421V49.0115H123.318V61.3931H118.606C118.606 59.811 119.145 58.1716 120.223 56.4748H118.09C117.471 58.034 116.623 59.318 115.545 60.3269C114.399 61.4046 112.759 61.9434 110.627 61.9434C107.532 61.9893 104.86 60.8543 102.613 58.5384C100.389 56.2226 99.3 53.196 99.3459 49.4586ZM126.513 52.7603C126.513 50.1235 127.339 47.9567 128.99 46.26C130.64 44.5403 132.716 43.6805 135.215 43.6805C137.806 43.6805 139.846 44.5288 141.337 46.2256C142.827 47.9223 143.572 50.112 143.572 52.7947C143.572 53.3221 143.561 53.7119 143.538 53.9641H131.397C131.466 55.3628 131.844 56.429 132.532 57.1627C133.22 57.8735 134.126 58.2289 135.249 58.2289C137.038 58.2289 138.368 57.2315 139.239 55.2367L143.607 56.9219C143.011 58.2977 142.048 59.49 140.718 60.4989C139.411 61.4619 137.588 61.9434 135.249 61.9434C132.612 61.9434 130.491 61.1179 128.886 59.4671C127.304 57.7932 126.513 55.5577 126.513 52.7603ZM131.569 50.5248H138.723C138.471 48.3007 137.301 47.1886 135.215 47.1886C134.229 47.1886 133.415 47.4752 132.773 48.0484C132.131 48.6217 131.73 49.4471 131.569 50.5248ZM146.094 52.7947C146.094 50.0891 146.942 47.8994 148.639 46.2256C150.336 44.5288 152.502 43.6805 155.139 43.6805C157.799 43.6805 159.966 44.5288 161.64 46.2256C163.336 47.8994 164.185 50.0891 164.185 52.7947C164.185 55.5462 163.348 57.7589 161.674 59.4327C160 61.1065 157.822 61.9434 155.139 61.9434C152.548 61.9434 150.393 61.0836 148.673 59.3639C146.954 57.6213 146.094 55.4316 146.094 52.7947ZM158.028 56.75C158.739 55.8558 159.095 54.5603 159.095 52.8635C159.095 51.1668 158.739 49.8598 158.028 48.9427C157.341 48.0026 156.377 47.5325 155.139 47.5325C153.901 47.5325 152.927 48.0026 152.216 48.9427C151.528 49.8598 151.184 51.1668 151.184 52.8635C151.184 54.5603 151.528 55.8558 152.216 56.75C152.927 57.6213 153.901 58.0569 155.139 58.0569C156.377 58.0569 157.341 57.6213 158.028 56.75ZM167.797 61.3931V37.3177H173.025V56.9563H185.991V61.3931H167.797ZM187.713 56.9907C187.736 55.8672 188.011 54.8927 188.538 54.0673C189.065 53.2418 189.822 52.5769 190.808 52.0725C191.817 51.568 192.929 51.1782 194.144 50.9031C195.382 50.605 196.838 50.3757 198.512 50.2152V49.5617C198.512 47.9797 197.572 47.1886 195.692 47.1886C193.605 47.1886 192.344 48.0943 191.909 49.9057L187.506 48.9427C187.644 47.4981 188.446 46.26 189.914 45.2282C191.404 44.1964 193.319 43.6805 195.658 43.6805C198.134 43.6805 200.025 44.2422 201.332 45.3657C202.662 46.4893 203.327 48.1516 203.327 50.3528V56.6468C203.327 57.1054 203.385 57.392 203.499 57.5066C203.614 57.6213 203.9 57.6786 204.359 57.6786H205.872V61.3931H203.843C202.376 61.3931 201.39 61.1409 200.885 60.6364C200.404 60.1091 200.14 59.169 200.094 57.8162H198.478C197.606 60.5677 195.852 61.9434 193.216 61.9434C191.633 61.9434 190.315 61.4848 189.26 60.5677C188.229 59.6505 187.713 58.4582 187.713 56.9907ZM198.512 54.3424V53.2418C196.54 53.4941 195.073 53.8495 194.11 54.308C193.147 54.7666 192.665 55.5004 192.665 56.5092C192.665 57.7474 193.41 58.3665 194.901 58.3665C195.933 58.3665 196.792 58.0225 197.48 57.3347C198.168 56.6468 198.512 55.6494 198.512 54.3424ZM208.459 61.3931V44.1964H212.862C212.839 45.2282 212.277 46.5466 211.176 48.1516H213.309C213.767 46.7759 214.444 45.6868 215.338 44.8842C216.232 44.0817 217.31 43.6805 218.571 43.6805C220.428 43.6805 221.861 44.2537 222.87 45.4001C223.902 46.5237 224.418 48.0599 224.418 50.0089V61.3931H219.534V50.9375C219.534 48.7822 218.617 47.7045 216.783 47.7045C215.751 47.7045 214.983 48.014 214.478 48.6331C213.722 49.5503 213.343 51.0865 213.343 53.2418V61.3931H208.459ZM229.841 59.3983C228.534 57.7015 227.881 55.5004 227.881 52.7947C227.881 50.0891 228.534 47.8994 229.841 46.2256C231.171 44.5288 232.879 43.6805 234.966 43.6805C237.625 43.6805 239.529 45.0333 240.675 47.7389H242.739C242.326 47.051 242.005 46.4778 241.776 46.0192C241.569 45.5606 241.374 44.8728 241.191 43.9556C241.008 43.0385 240.916 41.9493 240.916 40.6882V37.3177H245.8V61.3931H241.363C241.363 60.4759 241.856 59.3066 242.842 57.885H240.778C240.159 59.1919 239.425 60.1893 238.577 60.8772C237.752 61.5421 236.548 61.8975 234.966 61.9434C232.879 61.9434 231.171 61.095 229.841 59.3983ZM241.122 52.7947C241.122 51.0292 240.755 49.6879 240.022 48.7707C239.311 47.8306 238.313 47.3606 237.029 47.3606C234.347 47.3606 233.005 49.172 233.005 52.7947C233.005 56.4175 234.347 58.2289 237.029 58.2289C238.29 58.2289 239.288 57.7589 240.022 56.8188C240.755 55.8787 241.122 54.5373 241.122 52.7947ZM250.544 61.3931V44.1964H254.74C254.74 45.3199 254.282 46.5122 253.365 47.7733H255.531C255.829 46.4893 256.368 45.4919 257.148 44.7811C257.927 44.0473 258.925 43.6805 260.14 43.6805C261.264 43.6805 262.238 44.0359 263.064 44.7467C263.912 45.4575 264.451 46.4663 264.68 47.7733H266.297C266.709 46.4663 267.351 45.4575 268.223 44.7467C269.094 44.0359 270.091 43.6805 271.215 43.6805C272.866 43.6805 274.207 44.2537 275.239 45.4001C276.294 46.5237 276.821 48.1287 276.821 50.2152V61.3931H271.937V50.9375C271.937 48.7822 271.043 47.7045 269.254 47.7045C268.567 47.7274 267.993 47.8765 267.535 48.1516C267.076 48.4268 266.744 48.828 266.537 49.3554C266.354 49.8598 266.228 50.3528 266.159 50.8343C266.113 51.3158 266.09 51.912 266.09 52.6228V61.3931H261.275V50.9375C261.275 48.7822 260.381 47.7045 258.592 47.7045C257.905 47.7274 257.331 47.8765 256.873 48.1516C256.414 48.4268 256.082 48.828 255.875 49.3554C255.692 49.8598 255.566 50.3528 255.497 50.8343C255.451 51.3158 255.428 51.912 255.428 52.6228V61.3931H250.544ZM280.414 56.9907C280.437 55.8672 280.712 54.8927 281.239 54.0673C281.767 53.2418 282.523 52.5769 283.509 52.0725C284.518 51.568 285.63 51.1782 286.845 50.9031C288.083 50.605 289.539 50.3757 291.213 50.2152V49.5617C291.213 47.9797 290.273 47.1886 288.393 47.1886C286.306 47.1886 285.045 48.0943 284.61 49.9057L280.207 48.9427C280.345 47.4981 281.147 46.26 282.615 45.2282C284.105 44.1964 286.02 43.6805 288.359 43.6805C290.835 43.6805 292.727 44.2422 294.034 45.3657C295.363 46.4893 296.028 48.1516 296.028 50.3528V56.6468C296.028 57.1054 296.086 57.392 296.2 57.5066C296.315 57.6213 296.602 57.6786 297.06 57.6786H298.573V61.3931H296.544C295.077 61.3931 294.091 61.1409 293.586 60.6364C293.105 60.1091 292.841 59.169 292.795 57.8162H291.179C290.308 60.5677 288.554 61.9434 285.917 61.9434C284.335 61.9434 283.016 61.4848 281.961 60.5677C280.93 59.6505 280.414 58.4582 280.414 56.9907ZM291.213 54.3424V53.2418C289.241 53.4941 287.774 53.8495 286.811 54.308C285.848 54.7666 285.366 55.5004 285.366 56.5092C285.366 57.7474 286.112 58.3665 287.602 58.3665C288.634 58.3665 289.494 58.0225 290.181 57.3347C290.869 56.6468 291.213 55.6494 291.213 54.3424ZM301.16 61.3931V44.1964H305.563C305.563 46.0307 305.07 47.7733 304.084 49.4242H306.148C306.583 47.4752 307.225 46.0651 308.074 45.1938C308.922 44.2996 310.217 43.8524 311.96 43.8524C312.533 43.8524 312.877 43.8639 312.992 43.8868V48.9083C312.327 48.8395 311.696 48.8051 311.1 48.8051C309.266 48.8051 307.959 49.2407 307.179 50.112C306.423 50.9833 306.044 52.5425 306.044 54.7896V61.3931H301.16ZM328.699 61.3931L323.334 54.2393L320.823 56.6812V61.3931H315.939V37.3177H320.823V44.9186C320.823 46.5007 320.628 47.7045 320.238 48.5299C319.871 49.3554 319.241 50.1464 318.346 50.9031L319.653 52.3132L327.736 44.1964H333.72L326.704 51.0063L334.855 61.3931H328.699Z" fill="white"/>
</g>
<defs>
<filter id="filter0_d_302_11908" x="0" y="0.650829" width="354.855" height="120" filterUnits="userSpaceOnUse" color-interpolation-filters="sRGB">
<feFlood flood-opacity="0" result="BackgroundImageFix"/>
<feColorMatrix in="SourceAlpha" type="matrix" values="0 0 0 0 0 0 0 0 0 0 0 0 0 0 0 0 0 0 127 0" result="hardAlpha"/>
<feOffset dy="4.65083"/>
<feGaussianBlur stdDeviation="10"/>
<feComposite in2="hardAlpha" operator="out"/>
<feColorMatrix type="matrix" values="0 0 0 0 0 0 0 0 0 0 0 0 0 0 0 0 0 0 0.3 0"/>
<feBlend mode="normal" in2="BackgroundImageFix" result="effect1_dropShadow_302_11908"/>
<feBlend mode="normal" in="SourceGraphic" in2="effect1_dropShadow_302_11908" result="shape"/>
</filter>
</defs>
</svg>
