<svg width="24" height="24" viewBox="0 0 24 24" fill="none" xmlns="http://www.w3.org/2000/svg">
<g id="Iconsax/Linear/location">
<path id="Vector" d="M11.9999 13.4295C12.4096 13.4295 12.8153 13.3488 13.1939 13.192C13.5724 13.0352 13.9163 12.8053 14.2061 12.5156C14.4958 12.2259 14.7256 11.882 14.8824 11.5034C15.0392 11.1249 15.1199 10.7192 15.1199 10.3095C15.1199 9.89973 15.0392 9.49402 14.8824 9.11548C14.7256 8.73695 14.4958 8.393 14.2061 8.10328C13.9163 7.81356 13.5724 7.58374 13.1939 7.42695C12.8153 7.27015 12.4096 7.18945 11.9999 7.18945C11.1724 7.18945 10.3788 7.51817 9.79371 8.10328C9.2086 8.68839 8.87988 9.48198 8.87988 10.3095C8.87988 11.1369 9.2086 11.9305 9.79371 12.5156C10.3788 13.1007 11.1724 13.4295 11.9999 13.4295Z" stroke="#B9B9B9" stroke-width="1.5"/>
<path id="Vector_2" d="M3.61971 8.49C5.58971 -0.169998 18.4197 -0.159997 20.3797 8.5C21.5297 13.58 18.3697 17.88 15.5997 20.54C14.6318 21.4735 13.3395 21.9952 11.9947 21.9952C10.65 21.9952 9.35763 21.4735 8.38971 20.54C5.62971 17.88 2.46971 13.57 3.61971 8.49Z" stroke="#B9B9B9" stroke-width="1.5"/>
</g>
</svg>
