<svg width="24" height="24" viewBox="0 0 24 24" fill="none" xmlns="http://www.w3.org/2000/svg">
<g id="Iconsax/Linear/building">
<path id="Vector" d="M12.4997 22.0003H4.07973C2.91973 22.0003 1.96973 21.0703 1.96973 19.9303V5.09035C1.96973 2.47035 3.91973 1.28035 6.30973 2.45035L10.7497 4.63035C11.7097 5.10035 12.4997 6.35035 12.4997 7.41035V22.0003ZM12.4997 22.0003H18.8097C20.9697 22.0003 21.9697 21.0003 21.9697 18.8403V15.0603C21.9697 14.9903 21.9697 14.9303 21.9597 14.8703C21.8997 12.9503 20.8197 12.2703 19.4997 11.9803L17.4697 11.5303L12.9697 10.5203L12.4997 10.4203V22.0003ZM5.49973 9.00035H8.96973M5.49973 13.0003H8.96973" stroke="#B9B9B9" stroke-width="1.5" stroke-linecap="round" stroke-linejoin="round"/>
<path id="Vector_2" d="M17.4697 11.5295V14.7495M17.4697 11.5295L12.9697 10.5195V14.7495C12.9697 15.9895 13.9797 16.9995 15.2197 16.9995C16.4597 16.9995 17.4697 15.9895 17.4697 14.7495M17.4697 11.5295L19.4997 11.9795C20.8197 12.2695 21.8997 12.9495 21.9597 14.8695C21.9293 15.4436 21.6802 15.9842 21.2636 16.3803C20.8471 16.7765 20.2946 16.998 19.7197 16.9995C18.4797 16.9995 17.4697 15.9895 17.4697 14.7495" stroke="#B9B9B9" stroke-width="1.5" stroke-linecap="round" stroke-linejoin="round"/>
</g>
</svg>
