<svg width="69" height="27" viewBox="0 0 69 27" fill="none" xmlns="http://www.w3.org/2000/svg">
<path d="M25.7845 18V5.4H31.9945C33.3025 5.4 34.3045 5.67 35.0005 6.21C35.6965 6.738 36.0445 7.422 36.0445 8.262C36.0445 9.066 35.7445 9.702 35.1445 10.17C34.5445 10.626 33.7645 10.872 32.8045 10.908V11.844C33.8965 11.868 34.7785 12.12 35.4505 12.6C36.1225 13.068 36.4585 13.764 36.4585 14.688C36.4585 15.696 36.0445 16.5 35.2165 17.1C34.3885 17.7 33.2605 18 31.8325 18H25.7845ZM28.5205 10.386H31.4005C32.6725 10.386 33.3085 9.93 33.3085 9.018C33.3085 8.538 33.1465 8.196 32.8225 7.992C32.5105 7.776 32.0365 7.668 31.4005 7.668H28.5205V10.386ZM28.5205 15.732H31.4365C32.9005 15.732 33.6325 15.21 33.6325 14.166C33.6325 13.11 32.9005 12.582 31.4365 12.582H28.5205V15.732ZM37.93 15.696C37.942 15.108 38.086 14.598 38.362 14.166C38.638 13.734 39.034 13.386 39.55 13.122C40.078 12.858 40.66 12.654 41.296 12.51C41.944 12.354 42.706 12.234 43.582 12.15V11.808C43.582 10.98 43.09 10.566 42.106 10.566C41.014 10.566 40.354 11.04 40.126 11.988L37.822 11.484C37.894 10.728 38.314 10.08 39.082 9.54C39.862 9 40.864 8.73 42.088 8.73C43.384 8.73 44.374 9.024 45.058 9.612C45.754 10.2 46.102 11.07 46.102 12.222V15.516C46.102 15.756 46.132 15.906 46.192 15.966C46.252 16.026 46.402 16.056 46.642 16.056H47.434V18H46.372C45.604 18 45.088 17.868 44.824 17.604C44.572 17.328 44.434 16.836 44.41 16.128H43.564C43.108 17.568 42.19 18.288 40.81 18.288C39.982 18.288 39.292 18.048 38.74 17.568C38.2 17.088 37.93 16.464 37.93 15.696ZM43.582 14.31V13.734C42.55 13.866 41.782 14.052 41.278 14.292C40.774 14.532 40.522 14.916 40.522 15.444C40.522 16.092 40.912 16.416 41.692 16.416C42.232 16.416 42.682 16.236 43.042 15.876C43.402 15.516 43.582 14.994 43.582 14.31ZM48.1759 13.482C48.1759 12.078 48.6379 10.938 49.5619 10.062C50.4859 9.174 51.6379 8.73 53.0179 8.73C54.0499 8.73 54.9439 8.976 55.6999 9.468C56.4559 9.96 56.9899 10.614 57.3019 11.43L54.9439 12.312C54.5719 11.268 53.8999 10.746 52.9279 10.746C52.2919 10.746 51.7699 10.986 51.3619 11.466C50.9539 11.946 50.7499 12.618 50.7499 13.482C50.7499 14.346 50.9539 15.024 51.3619 15.516C51.7819 16.008 52.3099 16.254 52.9459 16.254C53.9299 16.254 54.6259 15.684 55.0339 14.544L57.4459 15.408C57.0979 16.284 56.5279 16.986 55.7359 17.514C54.9439 18.03 54.0319 18.288 52.9999 18.288C51.5959 18.288 50.4379 17.844 49.5259 16.956C48.6259 16.068 48.1759 14.91 48.1759 13.482ZM65.7315 18L62.9235 14.256L61.6095 15.534V18H59.0535V5.4H61.6095V9.378C61.6095 10.206 61.5075 10.836 61.3035 11.268C61.1115 11.7 60.7815 12.114 60.3135 12.51L60.9975 13.248L65.2275 9H68.3595L64.6875 12.564L68.9535 18H65.7315Z" fill="#009FBD"/>
<path d="M14.9998 19.92L8.47984 13.4C7.70984 12.63 7.70984 11.37 8.47984 10.6L14.9998 4.08002" stroke="#009FBD" stroke-width="2" stroke-miterlimit="10" stroke-linecap="round" stroke-linejoin="round"/>
</svg>
