<svg width="24" height="24" viewBox="0 0 24 24" fill="none" xmlns="http://www.w3.org/2000/svg">
<path d="M12.4987 22H4.07875C2.91875 22 1.96875 21.07 1.96875 19.93V5.09001C1.96875 2.47001 3.91875 1.28001 6.30875 2.45001L10.7487 4.63001C11.7087 5.10001 12.4987 6.35001 12.4987 7.41001V22ZM12.4987 22H18.8088C20.9688 22 21.9688 21 21.9688 18.84V15.06C21.9688 14.99 21.9687 14.93 21.9587 14.87C21.8987 12.95 20.8188 12.27 19.4988 11.98L17.4687 11.53L12.9688 10.52L12.4987 10.42V22ZM5.49875 9.00001H8.96875M5.49875 13H8.96875" stroke="#1B1B1B" stroke-width="1.5" stroke-linecap="round" stroke-linejoin="round"/>
<path d="M17.4687 11.53V14.75M17.4687 11.53L12.9688 10.52V14.75C12.9688 15.99 13.9787 17 15.2188 17C16.4588 17 17.4687 15.99 17.4687 14.75M17.4687 11.53L19.4987 11.98C20.8187 12.27 21.8987 12.95 21.9587 14.87C21.9283 15.444 21.6793 15.9847 21.2627 16.3808C20.8461 16.7769 20.2936 16.9985 19.7187 17C18.4787 17 17.4687 15.99 17.4687 14.75" stroke="#1B1B1B" stroke-width="1.5" stroke-linecap="round" stroke-linejoin="round"/>
</svg>