<svg width="24" height="24" viewBox="0 0 24 24" fill="none" xmlns="http://www.w3.org/2000/svg">
<g id="Iconsax/Linear/eyeslash">
<path id="Vector" d="M14.5298 9.47L9.46984 14.53C8.79884 13.859 8.42188 12.9489 8.42188 12C8.42188 11.5301 8.51442 11.0649 8.69423 10.6308C8.87404 10.1967 9.13759 9.80225 9.46984 9.47C9.80208 9.13776 10.1965 8.87421 10.6306 8.6944C11.0647 8.51459 11.53 8.42204 11.9998 8.42204C12.9488 8.42204 13.8588 8.79901 14.5298 9.47Z" stroke="#1B1B1B" stroke-width="1.5" stroke-linecap="round" stroke-linejoin="round"/>
<path id="Vector_2" d="M17.8198 5.77C16.0698 4.45 14.0698 3.73 11.9998 3.73C8.46984 3.73 5.17984 5.81 2.88984 9.41C1.98984 10.82 1.98984 13.19 2.88984 14.6C3.67984 15.84 4.59984 16.91 5.59984 17.77M8.41984 19.53C9.55984 20.01 10.7698 20.27 11.9998 20.27C15.5298 20.27 18.8198 18.19 21.1098 14.59C22.0098 13.18 22.0098 10.81 21.1098 9.4C20.7798 8.88 20.4198 8.39 20.0498 7.93" stroke="#1B1B1B" stroke-width="1.5" stroke-linecap="round" stroke-linejoin="round"/>
<path id="Vector_3" d="M15.51 12.7C15.3745 13.3976 15.0337 14.0387 14.5312 14.5412C14.0287 15.0437 13.3876 15.3845 12.69 15.52M9.47 14.53L2 22M22 2L14.53 9.47" stroke="#1B1B1B" stroke-width="1.5" stroke-linecap="round" stroke-linejoin="round"/>
</g>
</svg>
