<svg width="180" height="82" viewBox="0 0 180 82" fill="none" xmlns="http://www.w3.org/2000/svg">
<g id="Layer_5">
<g id="Group">
<g id="Group_2">
<g id="Group_3">
<path id="Vector" d="M179.995 13.6246C170.688 8.24622 141.654 8.62437 132.347 14.0027C132.347 14.0027 132.347 19.0659 132.347 22.5745C132.347 26.104 134.679 29.6125 139.322 32.3017C148.629 37.6801 163.713 37.6801 173.02 32.3017C177.726 29.5915 180.058 26.02 179.995 22.4484C179.953 18.9819 179.995 13.6246 179.995 13.6246Z" fill="#993434"/>
<g id="Group_4">
<path id="Vector_2" d="M146.969 35.3685L143.944 37.1332L131.023 29.675L135.687 26.9858L146.969 35.3685Z" fill="#808080"/>
<path id="Vector_3" d="M73.1856 73.5849L139.911 34.802L135.058 32.0078L68.3325 70.7907C67.0089 71.547 67.0089 72.7866 68.3325 73.5639L68.3745 73.5849C69.6981 74.3413 71.8621 74.3413 73.1856 73.5849Z" fill="#636363"/>
<path id="Vector_4" d="M135.057 31.9864L131.023 29.6754V20.9146L135.057 23.2466V31.9864Z" fill="#4F4F4F"/>
<path id="Vector_5" d="M139.911 34.8019L73.1855 73.5848V64.8239L139.911 26.041V34.8019Z" fill="#787878"/>
<path id="Vector_6" d="M136.822 36.5666L139.911 34.8019V26.041L136.822 27.8268V36.5666Z" fill="#5E5E5E"/>
</g>
<g id="Group_5">
<path id="Vector_7" d="M78.8984 61.5255L90.3484 68.1644L100.055 62.5549L88.6467 55.895L78.8984 61.5255Z" fill="#878787"/>
<path id="Vector_8" d="M148.607 25.6838L143.943 28.373L131.022 20.9148L135.686 18.2256L148.607 25.6838Z" fill="#808080"/>
<path id="Vector_9" d="M73.1843 73.585L67.3438 72.3245V63.2695L73.1843 64.8242V73.585Z" fill="#636363"/>
<path id="Vector_10" d="M66.672 56.4412V54.4033L62.5752 52.1133V60.8531L66.672 63.2271L69.1301 64.6348L74.0462 58.7312L69.1301 55.8109V57.8488L66.672 56.4412Z" fill="#636363"/>
<path id="Vector_11" d="M73.1847 64.8242L139.91 26.0413L135.057 23.2471L68.3316 62.03C67.008 62.7863 67.008 64.0258 68.3316 64.8032L68.3736 64.8242C69.6971 65.6015 71.8611 65.6015 73.1847 64.8242Z" fill="#878787"/>
<path id="Vector_12" d="M136.82 27.8271L139.909 26.0413L135.056 23.2471L131.988 25.0328L136.82 27.8271Z" fill="#6B6B6B"/>
<path id="Vector_13" d="M74.8235 45.0962L62.5752 52.1132L66.672 54.4032V56.4411L69.1301 57.8487V55.8109L74.0462 58.7311L86.2735 51.7141L80.7481 48.4997L78.8363 49.4451V47.4072L74.8235 45.0962Z" fill="#878787"/>
<path id="Vector_14" d="M84.1512 50.4956L71.9238 57.5127L74.0458 58.7312L86.2731 51.7141L84.1512 50.4956Z" fill="#6E6E6E"/>
<path id="Vector_15" d="M78.8372 47.4072L66.6729 54.4032V56.4411L78.8372 49.4451V47.4072Z" fill="#6E6E6E"/>
<path id="Vector_16" d="M88.7097 55.9585L78.8984 61.5259L80.9994 62.7655L90.8316 57.177L88.7097 55.9585Z" fill="#6E6E6E"/>
<path id="Vector_17" d="M173.019 4.12849C163.712 -1.24986 148.627 -1.24986 139.32 4.12849C130.013 9.50683 130.013 18.2046 139.32 23.583C148.627 28.9613 163.712 28.9613 173.019 23.583C182.326 18.2046 182.326 9.50683 173.019 4.12849Z" fill="#C44242"/>
<path id="Vector_18" d="M169.489 4.50646C167.704 3.47701 164.804 3.47701 162.998 4.50646C161.212 5.53591 161.212 7.21664 162.998 8.24609C164.783 9.27554 167.683 9.27554 169.489 8.24609C171.275 7.21664 171.275 5.53591 169.489 4.50646Z" fill="#7D2A2A"/>
<path id="Vector_19" d="M158.04 19.2552C157.893 18.9821 157.641 18.73 157.283 18.5199L149.237 13.8769C148.06 13.1836 146.128 13.1836 144.951 13.8769L139.93 16.7762C139.552 16.9863 139.3 17.2384 139.173 17.5115C138.879 16.9232 139.131 16.2509 139.93 15.7677L144.951 12.8685C146.128 12.1962 148.06 12.1962 149.237 12.8685L157.283 17.5115C158.103 17.9947 158.355 18.667 158.04 19.2552Z" fill="#571D1D"/>
<path id="Vector_20" d="M158.04 19.2552C157.893 19.5284 157.641 19.7805 157.284 19.9906L152.263 22.8898C151.086 23.5831 149.153 23.5831 147.977 22.8898L139.93 18.2468C139.552 18.0367 139.3 17.7846 139.174 17.5115C139.321 17.2384 139.573 16.9863 139.93 16.7762L144.951 13.8769C146.128 13.1836 148.061 13.1836 149.237 13.8769L157.284 18.5199C157.662 18.73 157.914 19.0031 158.04 19.2552Z" fill="#7D2A2A"/>
</g>
<path id="Vector_21" d="M80.9994 71.5047L78.8984 70.2862V61.5254L80.9994 62.765V71.5047Z" fill="#545454"/>
<path id="Vector_22" d="M100.055 71.2945L90.3486 76.9039V68.1641L100.055 62.5547V71.2945Z" fill="#6E6E6E"/>
<path id="Vector_23" d="M90.3491 76.9038L81 71.5044V62.7646L90.3491 68.164V76.9038Z" fill="#636363"/>
<path id="Vector_24" d="M143.943 37.1339L139.909 34.8019V26.041L143.943 28.373V37.1339Z" fill="#4F4F4F"/>
<path id="Vector_25" d="M146.97 35.3687L143.944 37.1335V28.3727L146.97 26.6289V35.3687Z" fill="#ABABAB"/>
<path id="Vector_26" d="M138.838 25.5371L73.1846 64.6352L139.91 26.0413L138.838 25.5371Z" fill="#CFCFCF"/>
<path id="Vector_27" d="M143.944 28.3727V37.1335L144.175 28.6038L146.97 26.6289L143.944 28.3727Z" fill="#EBEBEB"/>
<path id="Vector_28" d="M90.6436 67.9959L99.8666 62.7646V71.0002L99.2573 63.9832L90.6436 67.9959Z" fill="#EBEBEB"/>
<path id="Vector_29" d="M177.16 8.22559C186.194 25.285 158.062 26.0413 158.062 26.0413C158.062 26.0413 182.433 23.5623 177.16 8.22559Z" fill="#FF7575"/>
<path id="Vector_30" d="M175.583 26.9866C175.583 28.9615 175.247 30.5582 174.806 30.5582C174.385 30.5582 174.028 28.9615 174.028 26.9866C174.028 25.0118 174.364 23.415 174.806 23.415C175.247 23.415 175.583 25.0118 175.583 26.9866Z" fill="#C44242"/>
</g>
</g>
<g id="Group_6">
<g id="Group_7">
<path id="Vector_31" d="M112.346 12.5317C112.346 14.1914 109.678 15.536 106.359 15.536C103.06 15.536 100.371 14.1914 100.371 12.5317C100.371 10.8719 103.039 9.52734 106.359 9.52734C109.678 9.52734 112.346 10.8719 112.346 12.5317Z" fill="#2C565E"/>
<g id="Group_8">
<path id="Vector_32" d="M16.9219 75.1391L28.3929 81.757L38.0781 76.1686L32.3426 72.8491L40.7463 68.017L46.4818 71.3154L48.7087 70.0339L37.2377 63.416L16.9219 75.1391Z" fill="#878787"/>
<path id="Vector_33" d="M91.7146 36.6292L87.0505 39.3183L74.1299 31.8601L78.7939 29.1709L91.7146 36.6292Z" fill="#808080"/>
<path id="Vector_34" d="M119.446 29.1711V20.4313L115.937 21.4398L114.467 18.2674C114.046 17.343 112.786 16.6077 111.168 16.3765L93.1003 13.5823C91.5036 13.3302 89.7808 13.6033 88.6043 14.2756L79.0661 19.78V14.9689H74.0029V23.8768C74.0029 24.0869 74.066 24.297 74.15 24.5071L75.2005 26.7551C77.3854 31.4611 82.8268 35.3268 90.096 37.5748H90.117C92.1128 38.1841 94.2558 38.6883 96.5037 39.0454L100.39 39.6547C101.987 39.9068 103.71 39.6337 104.886 38.9614L118.122 31.3141C119.068 30.7258 119.551 29.9485 119.446 29.1711ZM109.655 22.4062C107.996 23.7297 104.634 23.7297 102.975 22.4062C101.966 21.6078 101.966 20.4943 102.975 19.675C104.634 18.3514 107.996 18.3514 109.655 19.675C110.664 20.4943 110.664 21.6078 109.655 22.4062Z" fill="#2C565E"/>
<path id="Vector_35" d="M11.2076 78.4372L83.0169 36.9861L78.1638 34.1919L6.3755 75.643C5.05192 76.3993 5.05192 77.6388 6.3755 78.4162L6.41751 78.4372C7.74109 79.2145 9.88402 79.2145 11.2076 78.4372Z" fill="#636363"/>
<path id="Vector_36" d="M78.1637 34.192L74.1299 31.8599V23.1201L78.1637 25.4311V34.192Z" fill="#4F4F4F"/>
<path id="Vector_37" d="M83.0163 36.9864L11.207 78.4375V69.6976L83.0163 28.2466V36.9864Z" fill="#787878"/>
<path id="Vector_38" d="M40.7455 68.0167L32.3418 72.8488V64.109L40.7455 59.2769V68.0167Z" fill="#6E6E6E"/>
<path id="Vector_39" d="M79.9482 38.7512L83.0156 36.9864V28.2466L79.9482 30.0113V38.7512Z" fill="#5E5E5E"/>
</g>
<g id="Group_9">
<path id="Vector_40" d="M16.9209 66.3994L28.3919 73.0173L38.0771 67.4288L32.3416 64.1094L40.7453 59.2773L46.4808 62.5757L48.7078 61.2941L37.2368 54.6553L16.9209 66.3994Z" fill="#878787"/>
<path id="Vector_41" d="M91.7146 27.8684L87.0505 30.5576L74.1299 23.1203L78.7939 20.4102L91.7146 27.8684Z" fill="#808080"/>
<path id="Vector_42" d="M88.6036 5.51472L75.3678 13.1621C74.1913 13.8343 73.7291 14.8218 74.1703 15.7672L75.2208 18.0152C77.994 24.0028 86.1245 28.6878 96.5031 30.3055L100.39 30.9148C101.986 31.1669 103.709 30.8938 104.886 30.2215L118.121 22.5741C119.298 21.9019 119.76 20.9144 119.319 19.969L114.466 9.52745C114.046 8.60304 112.785 7.86774 111.167 7.63664L93.0996 4.84241C91.4819 4.56929 89.7801 4.82142 88.6036 5.51472ZM109.655 13.6663C107.995 14.9898 104.634 14.9898 102.974 13.6663C101.965 12.8679 101.965 11.7544 102.974 10.9351C104.634 9.61151 107.995 9.61151 109.655 10.9351C110.663 11.7544 110.663 12.8679 109.655 13.6663Z" fill="#3F7B87"/>
<path id="Vector_43" d="M11.2053 78.4371L5.38574 77.1976V68.1216L11.2053 69.6973V78.4371Z" fill="#636363"/>
<path id="Vector_44" d="M4.71495 61.2942V59.2773L0.618164 56.9873V65.7271L4.71495 68.1011L7.15201 69.5087L12.0682 63.6052L7.15201 60.6639V62.7228L4.71495 61.2942Z" fill="#636363"/>
<path id="Vector_45" d="M11.2066 69.6974L83.0159 28.2464L78.1628 25.4521L6.37452 66.9032C5.05094 67.6596 5.05094 68.8991 6.37452 69.6764L6.41654 69.6974C7.74012 70.4538 9.88305 70.4538 11.2066 69.6974Z" fill="#878787"/>
<path id="Vector_46" d="M79.9498 30.0111L83.0171 28.2464L78.164 25.4312L75.0967 27.2169L79.9498 30.0111Z" fill="#6B6B6B"/>
<path id="Vector_47" d="M20.934 45.2432L0.618164 56.9873L4.71495 59.2773V61.2942L7.15201 62.7228V60.6639L12.0682 63.6052L32.405 51.8611L26.8586 48.6677L24.9468 49.5921V47.5542L20.934 45.2432Z" fill="#878787"/>
<path id="Vector_48" d="M30.2841 50.6421L9.94727 62.3652L12.0692 63.6047L32.4061 51.8606L30.2841 50.6421Z" fill="#6E6E6E"/>
<path id="Vector_49" d="M24.9467 47.5537L4.71484 59.2768V61.2937L24.9467 49.5916V47.5537Z" fill="#6E6E6E"/>
<path id="Vector_50" d="M37.2368 54.6553L16.9209 66.3994L19.0428 67.6179L39.3587 55.8948L37.2368 54.6553Z" fill="#6E6E6E"/>
<path id="Vector_51" d="M101.168 21.4399C101.021 21.1667 100.768 20.9146 100.411 20.7045L92.3648 16.0615C91.1883 15.3682 89.2554 15.3682 88.0789 16.0615L83.0577 18.9608C82.7006 19.1708 82.4275 19.423 82.3014 19.6961C82.0073 19.1078 82.2594 18.4355 83.0577 17.9523L88.0789 15.053C89.2554 14.3808 91.1883 14.3808 92.3648 15.053L100.411 19.6961C101.21 20.1793 101.462 20.8516 101.168 21.4399Z" fill="#1B363B"/>
<path id="Vector_52" d="M101.168 21.4399C101.021 21.713 100.769 21.9651 100.412 22.1752L95.3905 25.0744C94.214 25.7677 92.2811 25.7677 91.1046 25.0744L83.0581 20.4314C82.7009 20.2213 82.4278 19.9692 82.3018 19.6961C82.4488 19.423 82.7009 19.1708 83.0581 18.9608L88.0793 16.0615C89.2558 15.3682 91.1886 15.3682 92.3651 16.0615L100.412 20.7045C100.769 20.9356 101.021 21.1877 101.168 21.4399Z" fill="#2C565E"/>
</g>
<path id="Vector_53" d="M19.0428 76.3783L16.9209 75.1387V66.3989L19.0428 67.6175V76.3783Z" fill="#545454"/>
<path id="Vector_54" d="M38.0778 76.168L28.3926 81.7565V73.0166L38.0778 67.4282V76.168Z" fill="#6E6E6E"/>
<path id="Vector_55" d="M28.3911 81.7573L19.042 76.379V67.6182L28.3911 73.0175V81.7573Z" fill="#636363"/>
<path id="Vector_56" d="M46.4806 71.3156L40.7451 68.0172V59.2773L46.4806 62.5758V71.3156Z" fill="#636363"/>
<path id="Vector_57" d="M48.7084 70.0338L46.4814 71.3153V62.5755L48.7084 61.2939V70.0338Z" fill="#6E6E6E"/>
<path id="Vector_58" d="M87.0504 39.3184L83.0166 36.9864V28.2466L87.0504 30.5576V39.3184Z" fill="#4F4F4F"/>
<path id="Vector_59" d="M90.0742 37.5538L87.0488 39.3185V30.5577L90.0742 28.814V37.5538Z" fill="#ABABAB"/>
<path id="Vector_60" d="M103.836 35.3477C103.836 37.5326 103.374 39.3184 102.786 39.3184C102.198 39.3184 101.735 37.5536 101.735 35.3477C101.735 33.1627 102.198 31.377 102.786 31.377C103.374 31.377 103.836 33.1627 103.836 35.3477Z" fill="#3F7B87"/>
<path id="Vector_61" d="M113.437 9.52734C113.437 9.52734 117.933 19.9689 117.807 20.8093C117.702 21.6707 105.139 29.6541 102.786 30.0113C100.433 30.3684 96.4619 29.1709 96.4619 29.1709C96.4619 29.1709 100.601 29.7382 102.786 29.1709C104.971 28.6037 116.379 22.8051 116.568 20.4311C116.757 18.0571 113.437 9.52734 113.437 9.52734Z" fill="#5FBACC"/>
<path id="Vector_62" d="M81.9449 27.7212L11.207 69.5084L83.0163 28.2464L81.9449 27.7212Z" fill="#CFCFCF"/>
<path id="Vector_63" d="M87.0488 30.5577V39.3185L87.2799 30.7888L90.0742 28.814L87.0488 30.5577Z" fill="#EBEBEB"/>
<path id="Vector_64" d="M28.6641 72.8494L37.8871 67.6182V75.8747L37.2988 68.8367L28.6641 72.8494Z" fill="#EBEBEB"/>
<path id="Vector_65" d="M46.4814 62.5759L48.4563 61.4204V69.8871L48.0781 62.1977L46.4814 62.5759Z" fill="#EBEBEB"/>
</g>
</g>
</g>
</g>
</svg>
