<svg width="850" height="689" viewBox="0 0 850 689" fill="none" xmlns="http://www.w3.org/2000/svg">
<path d="M843.032 236.664C839.664 236.664 836.887 233.91 836.887 230.519V184.793C836.887 181.424 839.641 178.647 843.032 178.647C846.401 178.647 849.177 181.401 849.177 184.793V230.519C849.177 233.887 846.423 236.664 843.032 236.664Z" fill="#A9BFF2"/>
<path d="M804.588 639.275H589.729C568.584 639.275 551.264 621.977 551.264 600.81V139.249C551.264 118.104 568.562 100.783 589.729 100.783H804.588C825.733 100.783 843.054 118.081 843.054 139.249V600.81C843.031 621.977 825.733 639.275 804.588 639.275Z" fill="#D8F1FF"/>
<path d="M803.337 100.807H590.958C569.131 100.807 551.264 118.674 551.264 140.501V143.71C551.264 121.883 569.131 104.016 590.958 104.016H803.337C825.164 104.016 843.031 121.883 843.031 143.71V140.501C843.031 118.674 825.164 100.807 803.337 100.807Z" fill="#EFFDFF"/>
<path d="M805.067 624.958H589.229C576.369 624.958 565.831 614.42 565.831 601.561V140.614C565.831 127.754 576.369 117.216 589.229 117.216H805.067C817.927 117.216 828.465 127.754 828.465 140.614V601.561C828.465 614.42 817.927 624.958 805.067 624.958Z" fill="#0B0D14" stroke="#0B0D14" stroke-width="2.27605" stroke-miterlimit="10"/>
<path d="M804.726 624.958H589.57C576.506 624.958 565.831 614.284 565.831 601.219V140.956C565.831 127.891 576.506 117.216 589.57 117.216H804.726C817.79 117.216 828.465 127.891 828.465 140.956V601.219C828.465 614.284 817.79 624.958 804.726 624.958Z" fill="url(#paint0_linear_95_12569)"/>
<path d="M657.098 198.472C657.098 198.472 676.353 219.958 700.092 219.958C723.832 219.958 743.087 198.472 743.087 198.472C743.087 198.472 723.832 176.986 700.092 176.986C676.33 176.986 657.098 198.472 657.098 198.472Z" stroke="#00FAFF" stroke-width="2.27605" stroke-miterlimit="10" stroke-linecap="round" stroke-linejoin="round"/>
<path d="M700.07 219.958C711.936 219.958 721.556 210.338 721.556 198.472C721.556 186.606 711.936 176.986 700.07 176.986C688.204 176.986 678.584 186.606 678.584 198.472C678.584 210.338 688.204 219.958 700.07 219.958Z" stroke="#00FAFF" stroke-width="2.27605" stroke-miterlimit="10" stroke-linecap="round" stroke-linejoin="round"/>
<path d="M700.069 206.416C704.456 206.416 708.013 202.859 708.013 198.472C708.013 194.085 704.456 190.529 700.069 190.529C695.682 190.529 692.126 194.085 692.126 198.472C692.126 202.859 695.682 206.416 700.069 206.416Z" stroke="#00FAFF" stroke-width="2.27605" stroke-miterlimit="10" stroke-linecap="round" stroke-linejoin="round"/>
<path d="M779.05 220.299V168.656C779.05 165.583 776.523 163.056 773.451 163.056C770.378 163.056 767.851 165.583 767.851 168.656V221.642C763.186 224.214 759.999 229.176 759.999 234.889C759.999 243.242 766.759 250.002 775.112 250.002C783.465 250.002 790.225 243.242 790.225 234.889C790.248 227.901 785.491 222.029 779.05 220.299Z" stroke="#00FAFF" stroke-width="4.55211" stroke-miterlimit="10" stroke-linecap="round" stroke-linejoin="round"/>
<path d="M790.248 207.69H804.246" stroke="#00FAFF" stroke-width="4.55211" stroke-miterlimit="10" stroke-linecap="round" stroke-linejoin="round"/>
<path d="M790.248 177.031H804.246" stroke="#00FAFF" stroke-width="4.55211" stroke-miterlimit="10" stroke-linecap="round" stroke-linejoin="round"/>
<path d="M790.248 199.086H797.236" stroke="#00FAFF" stroke-width="4.55211" stroke-miterlimit="10" stroke-linecap="round" stroke-linejoin="round"/>
<path d="M790.248 192.236H797.236" stroke="#00FAFF" stroke-width="4.55211" stroke-miterlimit="10" stroke-linecap="round" stroke-linejoin="round"/>
<path d="M790.248 185.385H797.236" stroke="#00FAFF" stroke-width="4.55211" stroke-miterlimit="10" stroke-linecap="round" stroke-linejoin="round"/>
<path d="M614.286 214.2C625.448 214.2 634.497 205.151 634.497 193.988C634.497 182.826 625.448 173.777 614.286 173.777C603.123 173.777 594.074 182.826 594.074 193.988C594.074 205.151 603.123 214.2 614.286 214.2Z" stroke="#00FAFF" stroke-width="4.55211" stroke-miterlimit="10" stroke-linecap="round" stroke-linejoin="round"/>
<path d="M603.018 224.237H625.983" stroke="#00FAFF" stroke-width="4.55211" stroke-miterlimit="10" stroke-linecap="round" stroke-linejoin="round"/>
<path d="M605.522 231.612H623.412" stroke="#00FAFF" stroke-width="4.55211" stroke-miterlimit="10" stroke-linecap="round" stroke-linejoin="round"/>
<path d="M610.46 212.721L606.728 196.083" stroke="#00FAFF" stroke-width="4.55211" stroke-miterlimit="10" stroke-linecap="round" stroke-linejoin="round"/>
<path d="M617.813 212.721L621.546 196.083" stroke="#00FAFF" stroke-width="4.55211" stroke-miterlimit="10" stroke-linecap="round" stroke-linejoin="round"/>
<path d="M770.968 488.35C772.242 480.998 767.941 473.578 760.657 471.211L697.975 450.772C696.472 436.501 686.822 423.732 672.301 418.998C652.59 412.58 631.4 423.345 624.982 443.056C618.563 462.767 629.329 483.957 649.04 490.375C663.561 495.109 678.879 490.489 688.506 479.837L718.505 489.624L715.159 499.889C714.248 502.689 715.796 505.716 718.596 506.626C721.395 507.537 724.422 505.989 725.333 503.189L728.679 492.924L738.124 495.997L734.779 506.262C733.868 509.062 735.416 512.089 738.215 512.999C741.015 513.91 744.042 512.362 744.952 509.562L748.298 499.297L751.212 500.253C752.737 500.754 754.261 500.982 755.786 501.004L752.236 511.929C751.325 514.729 752.873 517.756 755.673 518.667C758.472 519.577 761.499 518.029 762.41 515.23L770.763 489.579C770.877 489.192 770.945 488.759 770.968 488.35Z" fill="url(#paint1_linear_95_12569)"/>
<path d="M756.425 494.472L693.72 474.033C692.9 473.76 692.445 472.873 692.718 472.076L692.809 471.803C693.082 470.983 693.97 470.528 694.767 470.801L757.472 491.24C758.291 491.513 758.746 492.401 758.473 493.198L758.382 493.471C758.109 494.29 757.221 494.723 756.425 494.472Z" fill="url(#paint2_linear_95_12569)"/>
<path d="M759.723 486.984L698.702 467.092C696.608 466.409 695.47 464.155 696.153 462.061L696.381 461.401C697.064 459.307 699.317 458.169 701.411 458.852L762.432 478.745C764.526 479.428 765.664 481.681 764.981 483.775L764.753 484.435C764.071 486.506 761.817 487.667 759.723 486.984Z" fill="url(#paint3_linear_95_12569)"/>
<path d="M660.489 473.191C670.734 473.191 679.039 464.886 679.039 454.641C679.039 444.397 670.734 436.092 660.489 436.092C650.244 436.092 641.939 444.397 641.939 454.641C641.939 464.886 650.244 473.191 660.489 473.191Z" fill="url(#paint4_linear_95_12569)"/>
<path d="M660.489 463.313C665.278 463.313 669.161 459.431 669.161 454.641C669.161 449.852 665.278 445.969 660.489 445.969C655.7 445.969 651.817 449.852 651.817 454.641C651.817 459.431 655.7 463.313 660.489 463.313Z" fill="url(#paint5_linear_95_12569)"/>
<path d="M770.968 488.35C772.243 480.998 767.941 473.578 760.657 471.211L697.975 450.772C696.473 436.501 686.822 423.732 672.301 418.998C652.59 412.58 631.4 423.345 624.982 443.056C624.914 443.284 624.868 443.489 624.8 443.716C631.469 424.415 652.386 413.923 671.891 420.296C686.413 425.03 696.063 437.798 697.565 452.069L760.248 472.508C767.531 474.875 771.833 482.295 770.558 489.647C770.536 490.079 770.467 490.512 770.331 490.921L770.74 489.647C770.877 489.192 770.945 488.759 770.968 488.35Z" fill="url(#paint6_linear_95_12569)"/>
<path d="M744.797 265.365V338.13H789.18L788.838 309.407L744.797 265.365ZM745.639 337.266V267.459L787.95 309.771L788.292 337.266H745.639ZM736.557 248.386V247.976H736.147L735.692 247.521V247.976H610.623V285.372H600.563V288.626H604.159V292.678H593.257V405.206H799.308V311.068L736.557 248.386ZM678.973 251.959H697.728V315.029H699.458V251.959H735.556V315.438H678.973V251.959ZM601.428 287.761V286.236H677.972V287.761H601.428ZM622.755 258.514V285.372H621.343V257.308H675.218V285.372H673.806V258.514H622.755ZM672.919 259.379V285.372H623.597V259.379H672.919ZM672.122 288.626V292.678H667.661V288.626H672.122ZM665.931 288.626V292.678H661.47V288.626H665.931ZM659.763 288.626V292.678H655.302V288.626H659.763ZM653.572 288.626V292.678H649.111V288.626H653.572ZM647.404 288.626V292.678H642.943V288.626H647.404ZM641.236 288.626V292.678H636.775V288.626H641.236ZM635.045 288.626V292.678H630.584V288.626H635.045ZM628.877 288.626V292.678H624.416V288.626H628.877ZM622.686 288.626V292.678H618.225V288.626H622.686ZM616.518 288.626V292.678H612.057V288.626H616.518ZM610.327 288.626V292.678H605.866V288.626H610.327ZM678.108 318.761H677.994V404.341H594.099V294.248H678.108V318.761ZM678.108 292.678H673.829V288.626H678.108V292.678ZM678.108 285.372H676.06V256.443H620.456V285.372H611.465V248.841H678.108V285.372ZM727.681 404.364H687.577V335.24H727.681V404.364ZM735.556 404.364H728.545V334.375H686.734V404.364H678.973V319.626H735.556V404.364ZM735.692 318.761H678.973V316.303H735.692V318.761ZM735.692 251.094H678.973V248.864H735.692V251.094ZM782.124 404.364H754.333V354.609H782.124V404.364ZM784.65 404.364H782.989V353.744H753.468V404.364H751.807V345.687H784.65V404.364ZM798.443 404.364H785.515V344.822H750.942V404.364H736.557V249.615L798.443 311.432V404.364ZM672.691 300.985H599.63V396.921H672.691V300.985ZM671.826 396.056H600.495V301.85H671.826V396.056ZM670.893 302.988H601.314V394.918H670.893V302.988ZM670.028 394.053H602.202V303.83H670.028V394.053ZM790.545 308.678L743.067 261.2V339.837H790.932L790.545 308.678ZM743.932 338.973V263.271L789.68 309.02L790.044 338.973H743.932Z" fill="#00E6FF"/>
<path opacity="0.58" d="M766.303 588.086H627.964C613.352 588.086 601.38 576.114 601.38 561.502C601.38 546.889 613.352 534.917 627.964 534.917H766.303C780.915 534.917 792.887 546.889 792.887 561.502C792.887 576.137 780.938 588.086 766.303 588.086Z" fill="#00FAFF"/>
<path opacity="0.58" d="M767.463 534.917H626.826C612.851 534.917 601.402 546.366 601.402 560.341V561.342C601.402 547.367 612.851 535.919 626.826 535.919H767.463C781.438 535.919 792.887 547.367 792.887 561.342V560.341C792.887 546.366 781.461 534.917 767.463 534.917Z" fill="#00FAFF"/>
<path d="M647.562 569.849C646.1 569.849 644.784 569.672 643.614 569.317C642.444 568.94 641.326 568.293 640.261 567.374C639.989 567.144 639.78 566.883 639.634 566.59C639.488 566.298 639.415 566.005 639.415 565.713C639.415 565.232 639.582 564.814 639.916 564.459C640.271 564.083 640.71 563.895 641.232 563.895C641.629 563.895 641.984 564.021 642.298 564.271C643.091 564.919 643.875 565.41 644.648 565.744C645.442 566.078 646.413 566.246 647.562 566.246C648.335 566.246 649.045 566.131 649.693 565.901C650.341 565.65 650.863 565.326 651.26 564.929C651.657 564.512 651.855 564.041 651.855 563.519C651.855 562.892 651.667 562.36 651.291 561.921C650.915 561.482 650.341 561.117 649.568 560.824C648.795 560.511 647.813 560.271 646.622 560.103C645.494 559.936 644.502 559.686 643.645 559.351C642.789 558.996 642.068 558.558 641.483 558.035C640.919 557.492 640.491 556.865 640.198 556.155C639.906 555.424 639.759 554.609 639.759 553.711C639.759 552.353 640.104 551.193 640.793 550.232C641.504 549.271 642.454 548.54 643.645 548.039C644.836 547.537 646.152 547.287 647.594 547.287C648.951 547.287 650.205 547.496 651.354 547.913C652.524 548.31 653.474 548.822 654.206 549.449C654.811 549.929 655.114 550.483 655.114 551.11C655.114 551.569 654.937 551.987 654.582 552.363C654.227 552.739 653.809 552.927 653.328 552.927C653.015 552.927 652.733 552.833 652.482 552.645C652.148 552.353 651.699 552.081 651.135 551.831C650.571 551.559 649.975 551.34 649.348 551.172C648.722 550.984 648.137 550.89 647.594 550.89C646.695 550.89 645.933 551.005 645.306 551.235C644.7 551.465 644.24 551.778 643.927 552.175C643.614 552.572 643.457 553.032 643.457 553.554C643.457 554.181 643.635 554.703 643.99 555.121C644.366 555.518 644.899 555.842 645.588 556.092C646.277 556.322 647.103 556.531 648.064 556.719C649.317 556.949 650.414 557.22 651.354 557.534C652.315 557.847 653.109 558.255 653.736 558.756C654.362 559.236 654.832 559.853 655.146 560.605C655.459 561.336 655.616 562.234 655.616 563.3C655.616 564.658 655.24 565.828 654.488 566.81C653.736 567.791 652.743 568.544 651.511 569.066C650.299 569.588 648.983 569.849 647.562 569.849ZM661.121 547.6H671.619C672.162 547.6 672.611 547.778 672.966 548.133C673.342 548.467 673.53 548.906 673.53 549.449C673.53 549.971 673.342 550.399 672.966 550.734C672.611 551.047 672.162 551.204 671.619 551.204H662.845L663.127 550.671V556.782L662.876 556.531H670.209C670.752 556.531 671.201 556.709 671.556 557.064C671.932 557.398 672.12 557.837 672.12 558.38C672.12 558.902 671.932 559.33 671.556 559.665C671.201 559.978 670.752 560.135 670.209 560.135H662.97L663.127 559.884V566.214L662.876 565.932H671.619C672.162 565.932 672.611 566.12 672.966 566.496C673.342 566.851 673.53 567.269 673.53 567.75C673.53 568.272 673.342 568.7 672.966 569.034C672.611 569.369 672.162 569.536 671.619 569.536H661.121C660.578 569.536 660.118 569.358 659.742 569.003C659.387 568.627 659.21 568.168 659.21 567.624V549.512C659.21 548.968 659.387 548.519 659.742 548.164C660.118 547.788 660.578 547.6 661.121 547.6ZM692.498 548.665C693.041 548.937 693.354 549.365 693.438 549.95C693.542 550.535 693.396 551.068 692.999 551.548C692.727 551.925 692.372 552.133 691.934 552.175C691.516 552.217 691.088 552.133 690.649 551.925C690.147 551.695 689.615 551.517 689.051 551.392C688.507 551.266 687.933 551.204 687.327 551.204C686.199 551.204 685.186 551.381 684.287 551.737C683.41 552.092 682.658 552.603 682.031 553.272C681.404 553.92 680.924 554.693 680.59 555.591C680.276 556.489 680.12 557.482 680.12 558.568C680.12 559.842 680.297 560.95 680.652 561.89C681.028 562.83 681.54 563.613 682.188 564.24C682.835 564.867 683.598 565.337 684.475 565.65C685.353 565.943 686.303 566.089 687.327 566.089C687.891 566.089 688.455 566.037 689.019 565.932C689.583 565.828 690.127 565.64 690.649 565.368C691.088 565.159 691.516 565.086 691.934 565.149C692.372 565.211 692.738 565.431 693.03 565.807C693.448 566.329 693.594 566.872 693.469 567.436C693.365 567.979 693.051 568.376 692.529 568.627C691.986 568.899 691.422 569.129 690.837 569.317C690.273 569.484 689.698 569.609 689.113 569.693C688.528 569.797 687.933 569.849 687.327 569.849C685.823 569.849 684.392 569.609 683.034 569.129C681.697 568.648 680.496 567.938 679.43 566.998C678.386 566.057 677.56 564.888 676.955 563.488C676.349 562.067 676.046 560.427 676.046 558.568C676.046 556.959 676.317 555.476 676.861 554.118C677.425 552.76 678.208 551.59 679.211 550.608C680.234 549.606 681.436 548.833 682.815 548.289C684.193 547.725 685.698 547.443 687.327 547.443C688.246 547.443 689.145 547.548 690.022 547.757C690.899 547.966 691.725 548.269 692.498 548.665ZM712.364 547.569C712.907 547.569 713.346 547.757 713.68 548.133C714.014 548.488 714.181 548.937 714.181 549.48V560.824C714.181 562.558 713.805 564.094 713.053 565.431C712.322 566.768 711.309 567.812 710.014 568.564C708.718 569.317 707.214 569.693 705.501 569.693C703.788 569.693 702.273 569.317 700.957 568.564C699.662 567.812 698.638 566.768 697.886 565.431C697.155 564.094 696.789 562.558 696.789 560.824V549.48C696.789 548.937 696.977 548.488 697.353 548.133C697.729 547.757 698.21 547.569 698.795 547.569C699.275 547.569 699.704 547.757 700.08 548.133C700.477 548.488 700.675 548.937 700.675 549.48V560.824C700.675 561.869 700.895 562.778 701.333 563.551C701.793 564.303 702.388 564.888 703.119 565.305C703.872 565.723 704.665 565.932 705.501 565.932C706.399 565.932 707.235 565.723 708.008 565.305C708.781 564.888 709.408 564.303 709.888 563.551C710.369 562.778 710.609 561.869 710.609 560.824V549.48C710.609 548.937 710.766 548.488 711.079 548.133C711.392 547.757 711.821 547.569 712.364 547.569ZM721.141 569.536C720.556 569.536 720.033 569.358 719.574 569.003C719.114 568.627 718.884 568.168 718.884 567.624V549.512C718.884 548.968 719.062 548.519 719.417 548.164C719.793 547.788 720.253 547.6 720.796 547.6H729.821C730.907 547.6 731.921 547.893 732.861 548.477C733.822 549.042 734.595 549.835 735.18 550.859C735.765 551.862 736.057 553.021 736.057 554.337C736.057 555.131 735.89 555.904 735.556 556.656C735.242 557.408 734.804 558.087 734.239 558.693C733.696 559.299 733.08 559.769 732.391 560.103L732.422 559.383C733.007 559.696 733.487 560.072 733.863 560.511C734.26 560.929 734.563 561.388 734.772 561.89C735.002 562.37 735.138 562.892 735.18 563.457C735.263 563.979 735.315 564.438 735.336 564.835C735.378 565.232 735.441 565.567 735.524 565.838C735.629 566.11 735.817 566.319 736.088 566.465C736.548 566.736 736.83 567.133 736.934 567.656C737.06 568.157 736.945 568.606 736.59 569.003C736.36 569.275 736.067 569.452 735.712 569.536C735.357 569.599 735.002 569.599 734.647 569.536C734.292 569.452 733.999 569.348 733.769 569.223C733.414 569.014 733.059 568.711 732.704 568.314C732.349 567.896 732.056 567.342 731.827 566.653C731.618 565.963 731.513 565.076 731.513 563.989C731.513 563.634 731.45 563.31 731.325 563.018C731.2 562.704 731.022 562.443 730.792 562.234C730.563 562.005 730.27 561.837 729.915 561.733C729.56 561.608 729.142 561.545 728.661 561.545H722.331L722.801 560.824V567.624C722.801 568.168 722.655 568.627 722.363 569.003C722.07 569.358 721.663 569.536 721.141 569.536ZM722.363 558.317H729.664C730.04 558.317 730.406 558.15 730.761 557.816C731.116 557.461 731.409 556.991 731.638 556.406C731.868 555.8 731.983 555.142 731.983 554.431C731.983 553.512 731.732 552.75 731.231 552.144C730.751 551.517 730.228 551.204 729.664 551.204H722.425L722.801 550.201V559.069L722.363 558.317ZM742.309 547.6H752.807C753.35 547.6 753.8 547.778 754.155 548.133C754.531 548.467 754.719 548.906 754.719 549.449C754.719 549.971 754.531 550.399 754.155 550.734C753.8 551.047 753.35 551.204 752.807 551.204H744.033L744.315 550.671V556.782L744.064 556.531H751.397C751.94 556.531 752.389 556.709 752.745 557.064C753.121 557.398 753.309 557.837 753.309 558.38C753.309 558.902 753.121 559.33 752.745 559.665C752.389 559.978 751.94 560.135 751.397 560.135H744.158L744.315 559.884V566.214L744.064 565.932H752.807C753.35 565.932 753.8 566.12 754.155 566.496C754.531 566.851 754.719 567.269 754.719 567.75C754.719 568.272 754.531 568.7 754.155 569.034C753.8 569.369 753.35 569.536 752.807 569.536H742.309C741.766 569.536 741.307 569.358 740.931 569.003C740.575 568.627 740.398 568.168 740.398 567.624V549.512C740.398 548.968 740.575 548.519 740.931 548.164C741.307 547.788 741.766 547.6 742.309 547.6Z" fill="#B2FFFF"/>
<g opacity="0.19">
<path d="M822.433 366.786L575.8 613.442C578.167 617.356 583.22 619.428 588.455 619.428H614.288L822.433 411.282V366.786Z" fill="white"/>
<path d="M570.108 558.111L822.432 305.788V190.255C822.432 187.524 821.931 184.907 821.066 182.471L570.108 433.452V558.111Z" fill="white"/>
<path d="M822.433 473.168V456.735L659.786 619.427H676.219L822.433 473.168Z" fill="white"/>
</g>
<path d="M725.517 610.983H668.798C666.613 610.983 664.814 609.185 664.814 607C664.814 604.815 666.613 603.017 668.798 603.017H725.517C727.702 603.017 729.5 604.815 729.5 607C729.5 609.185 727.702 610.983 725.517 610.983Z" fill="#D4F0FF"/>
<path d="M668.775 603.723H725.494C727.566 603.723 729.25 605.339 729.432 607.342C729.432 607.228 729.477 607.114 729.477 606.978C729.477 604.793 727.679 602.995 725.494 602.995H668.775C666.59 602.995 664.792 604.793 664.792 606.978C664.792 607.092 664.815 607.205 664.837 607.342C665.02 605.339 666.727 603.723 668.775 603.723Z" fill="white"/>
<path d="M620.727 117.216V127.663C620.727 136.176 627.691 143.141 636.204 143.141H758.109C766.622 143.141 773.586 136.176 773.586 127.663V117.216H620.727Z" fill="#080A06"/>
<path d="M748.484 134.651H684.709C682.273 134.651 680.293 132.557 680.293 129.985C680.293 127.413 682.273 125.319 684.709 125.319H748.484C750.919 125.319 752.899 127.413 752.899 129.985C752.899 132.534 750.919 134.651 748.484 134.651Z" fill="#333F4D"/>
<path d="M748.484 134.128H684.709C682.273 134.128 680.293 132.148 680.293 129.712C680.293 127.277 682.273 125.297 684.709 125.297H748.484C750.919 125.297 752.899 127.277 752.899 129.712C752.899 132.148 750.919 134.128 748.484 134.128Z" fill="#1B202C"/>
<path opacity="0.25" d="M803.952 117.216H590.344C576.87 117.216 565.831 128.255 565.831 141.729V142.617C565.831 129.143 576.87 118.104 590.344 118.104H803.952C817.426 118.104 828.465 129.143 828.465 142.617V141.729C828.465 128.232 817.426 117.216 803.952 117.216Z" fill="white"/>
<path d="M668.913 130.167C668.913 133.991 665.817 137.086 661.993 137.086C658.17 137.086 655.074 133.991 655.074 130.167C655.074 126.343 658.17 123.248 661.993 123.248C665.817 123.248 668.913 126.343 668.913 130.167Z" fill="#1B5962"/>
<path d="M667.432 130.167C667.432 133.172 664.997 135.607 661.993 135.607C658.988 135.607 656.553 133.172 656.553 130.167C656.553 127.163 658.988 124.728 661.993 124.728C664.997 124.728 667.432 127.163 667.432 130.167Z" fill="#131A29"/>
<path d="M666.475 130.167C666.475 132.648 664.473 134.651 661.992 134.651C659.511 134.651 657.508 132.648 657.508 130.167C657.508 127.687 659.511 125.684 661.992 125.684C664.45 125.684 666.475 127.687 666.475 130.167Z" fill="#131210"/>
<path opacity="0.13" d="M659.284 130.395C660.73 130.395 661.902 129.223 661.902 127.778C661.902 126.332 660.73 125.16 659.284 125.16C657.839 125.16 656.667 126.332 656.667 127.778C656.667 129.223 657.839 130.395 659.284 130.395Z" fill="white"/>
<path opacity="0.13" d="M664.997 129.029C664.997 129.758 664.405 130.349 663.677 130.349C662.948 130.349 662.356 129.758 662.356 129.029C662.356 128.301 662.948 127.709 663.677 127.709C664.428 127.709 664.997 128.301 664.997 129.029Z" fill="white"/>
<path opacity="0.13" d="M662.767 131.26C662.767 131.738 662.38 132.125 661.902 132.125C661.424 132.125 661.037 131.738 661.037 131.26C661.037 130.782 661.424 130.395 661.902 130.395C662.38 130.395 662.767 130.782 662.767 131.26Z" fill="white"/>
<path d="M196.018 328.913C188.12 328.913 180.973 332.099 175.806 337.289C167.59 315.279 146.4 299.62 121.545 299.62C96.7135 299.62 75.5462 315.256 67.3296 337.198C62.163 332.076 55.0617 328.913 47.2093 328.913C31.4135 328.913 18.6221 341.704 18.6221 357.5H63.6652H75.8193H167.43H179.448H224.605C224.605 341.704 211.814 328.913 196.018 328.913Z" fill="#00F6FF"/>
<path d="M47.2093 329.823C55.0617 329.823 62.163 332.987 67.3296 338.108C75.5689 316.144 96.7362 300.53 121.545 300.53C146.4 300.53 167.59 316.212 175.806 338.199C180.973 333.032 188.12 329.823 196.018 329.823C211.495 329.823 224.081 342.137 224.559 357.5H224.605C224.605 341.704 211.814 328.913 196.018 328.913C188.12 328.913 180.973 332.099 175.806 337.289C167.59 315.279 146.4 299.62 121.545 299.62C96.7135 299.62 75.5462 315.256 67.3296 337.198C62.163 332.076 55.0617 328.913 47.2093 328.913C31.4135 328.913 18.6221 341.704 18.6221 357.5H18.6676C19.1456 342.137 31.7321 329.823 47.2093 329.823Z" fill="#B4FFFF"/>
<path d="M141.278 329.391L124.913 312.844C123.092 311 120.156 311 118.335 312.844L101.971 329.391C99.0345 332.349 101.106 337.402 105.248 337.402H109.686V345.687C109.686 348.692 112.099 351.127 115.058 351.127H128.168C131.127 351.127 133.539 348.692 133.539 345.687V337.402H137.978C142.12 337.425 144.191 332.372 141.278 329.391Z" fill="#5AFFFF"/>
<path d="M141.278 329.208L124.913 312.844C123.092 311.023 120.156 311.023 118.335 312.844L101.971 329.208C99.0345 332.145 101.106 337.152 105.248 337.152H109.686V345.368C109.686 348.327 112.099 350.74 115.058 350.74H128.168C131.127 350.74 133.539 348.327 133.539 345.368V337.152H137.978C142.12 337.152 144.191 332.145 141.278 329.208Z" fill="#00BFE5"/>
<path d="M109.686 336.788H105.248C102.494 336.788 100.673 334.58 100.605 332.236C100.491 334.717 102.357 337.152 105.248 337.152H109.686V336.788Z" fill="#00AACF"/>
<path d="M137.978 336.788H133.54V337.152H137.978C140.869 337.152 142.758 334.717 142.621 332.236C142.576 334.58 140.732 336.788 137.978 336.788Z" fill="#00AACF"/>
<path d="M128.167 350.376H115.057C112.098 350.376 109.686 347.963 109.686 345.004V345.368C109.686 348.327 112.098 350.74 115.057 350.74H128.167C131.126 350.74 133.539 348.327 133.539 345.368V345.004C133.539 347.963 131.126 350.376 128.167 350.376Z" fill="#00AACF"/>
<path d="M633.538 551.92C628.667 589.566 576.022 549.485 479.836 588.018C411.85 615.263 382.648 644.965 282.001 674.827C120.583 722.738 34.6851 631.719 56.3759 543.84C75.6313 465.772 168.836 416.836 337.218 416.836C505.601 416.836 640.252 500.049 633.538 551.92Z" fill="#13D568"/>
<path d="M590.569 569.628C501.052 534.668 302.83 473.305 74.3144 504.191C68.2601 512.931 63.5032 522.218 59.998 532.028C125.321 517.916 314.939 489.556 479.588 588.11C479.68 588.064 479.771 588.041 479.862 587.996C527.704 568.854 564.781 569.15 590.569 569.628Z" fill="#13825B"/>
<path d="M53.1206 567.352C50.6397 646.854 134.99 718.459 282.001 674.827C368.013 649.29 401.858 623.889 452.318 600.059C287.008 518.257 144.618 536.215 53.1206 567.352Z" fill="#13FF9E"/>
<path d="M53.0781 571.017C53.2602 649.04 137.269 717.776 282.004 674.827C365.967 649.905 400.222 625.096 448.747 601.743C281.298 513.888 138.18 538.355 53.0781 571.017Z" fill="#00B355"/>
<path d="M633.539 547.823C628.669 585.469 576.023 545.388 479.837 583.922C411.852 611.166 382.65 640.868 282.003 670.73C138.384 713.361 54.534 645.99 53.0774 568.695C51.5752 647.674 135.835 718.209 282.003 674.827C382.65 644.965 411.852 615.263 479.837 588.018C576.023 549.485 628.669 589.566 633.539 551.92C633.79 550.008 633.813 548.074 633.699 546.071C633.653 546.663 633.608 547.254 633.539 547.823Z" fill="#13FF9E"/>
<path d="M282.003 674.827C354.632 653.273 390.07 631.81 429.719 611.28C249.25 496.157 100.51 563.369 55.0801 591.478C68.6226 660.352 150.105 713.975 282.003 674.827Z" fill="#134AF4"/>
<path d="M63.8438 617.516C90.7922 672.779 167.336 708.854 282.004 674.827C335.9 658.826 369.29 642.894 399.152 627.348C242.673 509.449 114.304 578.026 63.8438 617.516Z" fill="#1362FF"/>
<path d="M282.003 674.827C311.295 666.133 334.488 657.461 354.404 648.857C239.873 524.312 144.415 587.131 89.9492 651.725C127.754 685.57 193.51 701.093 282.003 674.827Z" fill="#137BFF"/>
<path d="M282.005 670.093C152.794 708.445 71.971 657.757 56.0159 590.932C55.72 591.114 55.4014 591.319 55.1055 591.501C68.648 660.374 150.131 713.998 282.028 674.85C354.657 653.296 390.095 631.833 429.744 611.303C428.356 610.415 426.99 609.573 425.602 608.708C387.546 628.555 352.108 649.29 282.005 670.093Z" fill="#13BBFF"/>
<path d="M383.541 471.417H303.742V472.395H383.541V471.417Z" fill="#EF995F"/>
<path d="M383.541 470.62H303.742V472.213H383.541V470.62Z" fill="#A55729"/>
<path opacity="0.1" d="M369.703 284.643C440.373 284.643 497.663 227.354 497.663 156.684C497.663 86.0134 440.373 28.7239 369.703 28.7239C299.033 28.7239 241.743 86.0134 241.743 156.684C241.743 227.354 299.033 284.643 369.703 284.643Z" fill="#00F6FF"/>
<path opacity="0.1" d="M369.702 246.247C419.167 246.247 459.265 206.148 459.265 156.684C459.265 107.22 419.167 67.1211 369.702 67.1211C320.238 67.1211 280.14 107.22 280.14 156.684C280.14 206.148 320.238 246.247 369.702 246.247Z" fill="#00F6FF"/>
<path opacity="0.1" d="M369.701 212.561C400.561 212.561 425.578 187.544 425.578 156.684C425.578 125.824 400.561 100.807 369.701 100.807C338.841 100.807 313.824 125.824 313.824 156.684C313.824 187.544 338.841 212.561 369.701 212.561Z" fill="#00F6FF"/>
<path opacity="0.1" d="M369.702 198.472C392.781 198.472 411.491 179.763 411.491 156.684C411.491 133.605 392.781 114.895 369.702 114.895C346.623 114.895 327.914 133.605 327.914 156.684C327.914 179.763 346.623 198.472 369.702 198.472Z" fill="#00F6FF"/>
<path d="M369.7 208.418C367.902 208.418 366.423 206.939 366.423 205.141V142.458C366.423 140.66 367.902 139.181 369.7 139.181C371.498 139.181 372.978 140.66 372.978 142.458V205.141C372.978 206.939 371.521 208.418 369.7 208.418Z" fill="#00D3FF"/>
<path d="M358.528 191.121C357.186 191.121 356.07 190.028 356.07 188.662V150.516C356.07 149.173 357.163 148.058 358.528 148.058C359.871 148.058 360.987 149.15 360.987 150.516V188.662C360.987 190.028 359.871 191.121 358.528 191.121Z" fill="#00BFFF"/>
<path d="M347.625 197.061C346.282 197.061 345.167 195.968 345.167 194.603V156.456C345.167 155.113 346.26 153.998 347.625 153.998C348.968 153.998 350.083 155.091 350.083 156.456V194.603C350.083 195.968 348.991 197.061 347.625 197.061Z" fill="#0081DD"/>
<path d="M383.541 196.059C380.742 196.059 378.466 193.76 378.466 190.983V139.18C378.466 136.381 380.765 134.105 383.541 134.105C386.341 134.105 388.617 136.404 388.617 139.18V190.983C388.64 193.783 386.341 196.059 383.541 196.059Z" fill="#00F6FF"/>
<path d="M407.35 313.459H283.828V480.225H407.35V313.459Z" fill="#C6EAFF"/>
<path d="M286.97 175.553H155.437V281.321H286.97V175.553Z" fill="#BDDCFB"/>
<path d="M281.299 192.031H174.644V262.634H281.299V192.031Z" fill="#13003A"/>
<path d="M276.861 196.06H179.082V265.753H276.861V196.06Z" fill="#31AEFB"/>
<path d="M286.969 262.635H121.613V480.225H286.969V262.635Z" fill="#D8F1FF"/>
<path d="M521.425 297.981L399.155 175.848V480.225H521.425V297.981Z" fill="#D8F1FF"/>
<path d="M494.547 364.238H428.86V480.225H494.547V364.238Z" fill="#13003A"/>
<path d="M489.606 381.603H433.774V480.225H489.606V381.603Z" fill="#CEDEFF"/>
<path d="M461.7 379.191H460.881V480.225H461.7V379.191Z" fill="white"/>
<path d="M462.112 379.191H461.293V480.225H462.112V379.191Z" fill="#ACC3E3"/>
<path d="M399.156 175.553H286.97V313.459H399.156V175.553Z" fill="#31AEFB"/>
<path d="M399.157 223.6V218.047L303.745 313.459H309.299L399.157 223.6Z" fill="#31C9FB"/>
<path d="M286.97 272.126L383.543 175.553H332.787L286.97 221.37V272.126Z" fill="#31C9FB"/>
<path d="M399.156 201.113V175.553H397.518L286.97 286.078V313.299L399.156 201.113Z" fill="#31C9FB"/>
<path d="M399.156 175.553H286.97V181.607H399.156V175.553Z" fill="#B17F4A"/>
<path d="M399.156 175.553H286.97V176.805H399.156V175.553Z" fill="#CA9E67"/>
<path d="M399.155 313.3H286.968L286.695 306.972H398.882L399.155 313.3Z" fill="#B17F4A"/>
<path d="M399.155 308.497H286.968L286.695 306.972H398.882L399.155 308.497Z" fill="#CA9E67"/>
<path d="M286.694 248.386H135.86V253.052H286.694V248.386Z" fill="#B17F4A"/>
<path d="M286.694 248.386H135.86V249.502H286.694V248.386Z" fill="#CA9E67"/>
<path d="M144.555 253.052H142.871V262.612H144.555V253.052Z" fill="#7A3A1B"/>
<path d="M156.572 253.052H154.888V262.612H156.572V253.052Z" fill="#7A3A1B"/>
<path d="M168.614 253.052H166.93V262.612H168.614V253.052Z" fill="#7A3A1B"/>
<path d="M180.654 253.052H178.97V262.612H180.654V253.052Z" fill="#7A3A1B"/>
<path d="M192.694 253.052H191.01V262.612H192.694V253.052Z" fill="#7A3A1B"/>
<path d="M204.734 253.052H203.05V262.612H204.734V253.052Z" fill="#7A3A1B"/>
<path d="M216.775 253.052H215.091V262.612H216.775V253.052Z" fill="#7A3A1B"/>
<path d="M228.815 253.052H227.131V262.612H228.815V253.052Z" fill="#7A3A1B"/>
<path d="M240.857 253.052H239.173V262.612H240.857V253.052Z" fill="#7A3A1B"/>
<path d="M252.896 253.052H251.212V262.612H252.896V253.052Z" fill="#7A3A1B"/>
<path d="M264.938 253.052H263.254V262.612H264.938V253.052Z" fill="#7A3A1B"/>
<path d="M276.976 253.052H275.292V262.612H276.976V253.052Z" fill="#7A3A1B"/>
<path d="M274.723 278.817H134.04V464.042H274.723V278.817Z" fill="#13003A"/>
<path d="M271.24 282.709H137.362V460.173H271.24V282.709Z" fill="#31AEFB"/>
<path d="M137.362 449.02L271.217 315.165V282.709H189.507L137.362 334.853V449.02Z" fill="#31C9FB"/>
<path d="M271.216 352.379V336.173L147.262 460.15H163.444L271.216 352.379Z" fill="#31C9FB"/>
<path d="M271.216 380.17V370.724L181.79 460.15H191.258L271.216 380.17Z" fill="#31C9FB"/>
<path d="M168.614 281.298H166.93V460.15H168.614V281.298Z" fill="#13003A"/>
<path d="M326.869 182.699H325.185V304.491H326.869V182.699Z" fill="#13003A"/>
<path d="M272.766 359.23H166.93V365.876H272.766V359.23Z" fill="#13003A"/>
<path d="M395.469 184.998V303.558H290.384V184.998H395.469ZM398.883 181.584H286.97V306.972H398.883V181.584Z" fill="#13003A"/>
<path d="M503.375 383.925L420.731 466.546H326.298L428.857 364.238L442.354 368.676" fill="url(#paint7_linear_95_12569)"/>
<path d="M503.376 381.603H420.027V383.902H503.376V381.603Z" fill="#B17F4A"/>
<path d="M494.547 364.238H428.86V373.114H494.547V364.238Z" fill="#B17F4A"/>
<path d="M428.858 364.238L420.027 381.604H503.376L494.545 364.238H428.858Z" fill="#91381A"/>
<path d="M503.377 351.173H415.203V206.53L502.672 293.999L503.377 351.173Z" fill="#31AEFB"/>
<path d="M497.665 289.014L486.216 277.542L415.203 348.555V351.173H435.506L497.665 289.014Z" fill="#31C9FB"/>
<path d="M415.203 274.243V328.344L476.11 267.437L449.048 240.398L415.203 274.243Z" fill="#31C9FB"/>
<path d="M502.833 306.949L502.788 303.831L455.469 351.173H458.61L502.833 306.949Z" fill="#31C9FB"/>
<path d="M503.377 351.173H415.203V206.53L502.672 293.999L503.377 351.173Z" stroke="#13003A" stroke-width="3.41408" stroke-miterlimit="10"/>
<path d="M383.542 343.844H303.743V480.225H383.542V343.844Z" fill="#B17F4A"/>
<path d="M383.542 343.844H303.743V355.019H383.542V343.844Z" fill="#91381A"/>
<path d="M383.542 364.238H303.743V365.216H383.542V364.238Z" fill="#EF995F"/>
<path d="M383.542 363.441H303.743V365.034H383.542V363.441Z" fill="#A55729"/>
<path d="M383.542 373.182H303.743V374.161H383.542V373.182Z" fill="#EF995F"/>
<path d="M383.542 372.386H303.743V373.979H383.542V372.386Z" fill="#A55729"/>
<path d="M383.542 382.104H303.743V383.083H383.542V382.104Z" fill="#EF995F"/>
<path d="M383.542 381.308H303.743V382.901H383.542V381.308Z" fill="#A55729"/>
<path d="M383.542 391.027H303.743V392.006H383.542V391.027Z" fill="#EF995F"/>
<path d="M383.542 390.23H303.743V391.823H383.542V390.23Z" fill="#A55729"/>
<path d="M383.542 399.972H303.743V400.951H383.542V399.972Z" fill="#EF995F"/>
<path d="M383.542 399.175H303.743V400.768H383.542V399.175Z" fill="#A55729"/>
<path d="M383.542 408.893H303.743V409.872H383.542V408.893Z" fill="#EF995F"/>
<path d="M383.542 408.097H303.743V409.69H383.542V408.097Z" fill="#A55729"/>
<path d="M383.542 417.839H303.743V418.817H383.542V417.839Z" fill="#EF995F"/>
<path d="M383.542 417.019H303.743V418.612H383.542V417.019Z" fill="#A55729"/>
<path d="M383.542 426.76H303.743V427.739H383.542V426.76Z" fill="#EF995F"/>
<path d="M383.542 425.964H303.743V427.557H383.542V425.964Z" fill="#A55729"/>
<path d="M383.542 435.683H303.743V436.662H383.542V435.683Z" fill="#EF995F"/>
<path d="M383.542 434.886H303.743V436.479H383.542V434.886Z" fill="#A55729"/>
<path d="M383.542 444.628H303.743V445.607H383.542V444.628Z" fill="#EF995F"/>
<path d="M383.542 443.831H303.743V445.424H383.542V443.831Z" fill="#A55729"/>
<path d="M383.542 453.55H303.743V454.528H383.542V453.55Z" fill="#EF995F"/>
<path d="M383.542 452.753H303.743V454.347H383.542V452.753Z" fill="#A55729"/>
<path d="M383.542 462.472H303.743V463.45H383.542V462.472Z" fill="#EF995F"/>
<path d="M383.542 461.676H303.743V463.269H383.542V461.676Z" fill="#A55729"/>
<path d="M399.156 176.782L383.542 480.225H399.156V176.782Z" fill="url(#paint8_linear_95_12569)"/>
<path d="M287.422 262.635L303.013 480.225H287.422V262.635Z" fill="url(#paint9_linear_95_12569)"/>
<path d="M286.695 262.635H121.613V264.023H286.695V262.635Z" fill="white"/>
<path d="M286.97 175.553H155.437V176.805H286.97V175.553Z" fill="white"/>
<path opacity="0.5" d="M170.183 223.645H73.041C46.1608 223.645 24.1514 201.659 24.1514 174.756V77.591C24.1514 50.7108 46.138 28.7014 73.041 28.7014H170.206C197.086 28.7014 219.095 50.6881 219.095 77.591V174.756C219.073 201.636 197.063 223.645 170.183 223.645Z" fill="#00F6FF"/>
<path opacity="0.5" d="M179.924 233.386H63.2988C36.4186 233.386 14.4092 211.4 14.4092 184.497V67.8718C14.4092 40.9916 36.3959 18.9822 63.2988 18.9822H179.924C206.804 18.9822 228.813 40.9689 228.813 67.8718V184.497C228.813 211.377 206.804 233.386 179.924 233.386Z" stroke="#00F6FF" stroke-width="2.27605" stroke-miterlimit="10"/>
<path opacity="0.5" d="M193.513 246.975H49.7119C22.8317 246.975 0.822266 224.988 0.822266 198.085V54.2615C0.822266 27.3813 22.8089 5.37183 49.7119 5.37183H193.536C220.416 5.37183 242.425 27.3585 242.425 54.2615V198.085C242.403 224.988 220.416 246.975 193.513 246.975Z" stroke="#50FFFF" stroke-width="1.13803" stroke-miterlimit="10"/>
<path opacity="0.5" d="M170.954 28.7241H72.2641C58.9036 28.7241 46.7723 34.2549 38.0322 43.1543C46.7268 34.5963 58.6305 29.2931 71.7178 29.2931H170.408C196.878 29.2931 218.523 50.9384 218.523 77.4089V176.099C218.523 189.186 213.22 201.09 204.662 209.784C213.539 201.044 219.092 188.913 219.092 175.552V76.8627C219.07 50.3694 197.424 28.7241 170.954 28.7241Z" fill="#00F6FF"/>
<path opacity="0.2" d="M158.754 212.22H84.4639C57.5837 212.22 35.5742 190.233 35.5742 163.33V89.0395C35.5742 62.1593 57.5609 40.1499 84.4639 40.1499H158.754C185.634 40.1499 207.644 62.1366 207.644 89.0395V163.33C207.644 190.21 185.634 212.22 158.754 212.22Z" fill="#00F6FF"/>
<g opacity="0.2">
<path d="M159.534 40.1497H99.1727C80.5774 58.745 58.0672 81.2552 35.6025 103.743V164.081C35.6025 177.851 41.4975 190.301 50.8749 199.087L194.562 55.3992C185.731 46.0674 173.304 40.1497 159.534 40.1497Z" fill="#00F6FF"/>
<path d="M207.65 147.124V114.986L110.417 212.219H142.555L207.65 147.124Z" fill="#00F6FF"/>
<path d="M205.351 73.6534C204.782 71.8553 204.076 70.1255 203.302 68.4185L63.8711 207.85C65.5781 208.623 67.3079 209.329 69.106 209.898L205.351 73.6534Z" fill="#00F6FF"/>
</g>
<path d="M159.528 40.1499H83.69C57.2195 40.1499 35.5742 61.7952 35.5742 88.2657V89.6768C35.5742 63.2063 57.2195 41.5611 83.69 41.5611H159.505C185.976 41.5611 207.621 63.2063 207.621 89.6768V88.2657C207.644 61.8179 185.976 40.1499 159.528 40.1499Z" fill="#00F6FF"/>
<path opacity="0.61" d="M156.504 100.238V90.9512C156.504 71.7186 140.845 56.0593 121.612 56.0593C102.379 56.0593 86.7201 71.7186 86.7201 90.9512V100.238C81.2348 103.674 77.5703 109.774 77.5703 116.739V165.879C77.5703 176.645 86.2876 185.362 97.0533 185.362H146.193C156.959 185.362 165.676 176.645 165.676 165.879V116.739C165.654 109.751 161.989 103.674 156.504 100.238ZM121.612 71.1723C132.514 71.1723 141.391 80.049 141.391 90.9512V97.2559H101.833V90.9512C101.833 80.049 110.71 71.1723 121.612 71.1723ZM127.53 152.359V166.584C127.53 169.839 124.867 172.502 121.612 172.502C118.357 172.502 115.694 169.839 115.694 166.584V152.359C111.37 150.197 108.388 145.713 108.388 140.546C108.388 133.24 114.306 127.323 121.612 127.323C128.918 127.323 134.836 133.24 134.836 140.546C134.836 145.736 131.854 150.197 127.53 152.359Z" fill="#130066"/>
<path opacity="0.61" d="M121.612 126.344C114.305 126.344 108.388 132.262 108.388 139.568C108.388 139.705 108.41 139.841 108.41 139.978C108.729 132.945 114.488 127.346 121.612 127.346C128.713 127.346 134.494 132.945 134.813 139.978C134.813 139.841 134.835 139.705 134.835 139.568C134.835 132.262 128.918 126.344 121.612 126.344Z" fill="#130066"/>
<path opacity="0.61" d="M121.611 70.1709C110.709 70.1709 101.832 79.0475 101.832 89.9498V90.9513C101.832 80.049 110.709 71.1724 121.611 71.1724C132.513 71.1724 141.39 80.049 141.39 90.9513V89.9498C141.39 79.0475 132.513 70.1709 121.611 70.1709Z" fill="#130066"/>
<path opacity="0.61" d="M146.17 184.338H97.0299C86.2642 184.338 77.5469 175.62 77.5469 164.854V165.856C77.5469 176.622 86.2642 185.339 97.0299 185.339H146.17C156.936 185.339 165.653 176.622 165.653 165.856V164.854C165.653 175.62 156.936 184.338 146.17 184.338Z" fill="#130066"/>
<path d="M121.612 127.323C114.305 127.323 108.388 133.24 108.388 140.546C108.388 140.615 108.41 140.683 108.41 140.751C108.57 133.582 114.419 127.823 121.612 127.823C128.827 127.823 134.653 133.582 134.813 140.751C134.813 140.683 134.835 140.615 134.835 140.546C134.835 133.24 128.918 127.323 121.612 127.323Z" fill="#00F6FF"/>
<path opacity="0.61" d="M146.17 185.339H97.0299C86.2642 185.339 77.5469 176.622 77.5469 165.856V166.334C77.5469 177.1 86.2642 185.817 97.0299 185.817H146.17C156.936 185.817 165.653 177.1 165.653 166.334V165.856C165.653 176.622 156.936 185.339 146.17 185.339Z" fill="#00F6FF"/>
<path d="M121.611 71.1721C110.709 71.1721 101.832 80.0487 101.832 90.951V91.429C101.832 80.5267 110.709 71.6501 121.611 71.6501C132.513 71.6501 141.39 80.5267 141.39 91.429V90.951C141.39 80.0487 132.513 71.1721 121.611 71.1721Z" fill="#00F6FF"/>
<path d="M553.992 475.878C550.692 475.878 547.665 477.129 545.366 479.155C542.248 468.207 532.165 460.173 520.216 460.173C508.722 460.173 498.957 467.593 495.452 477.926C492.653 474.99 488.715 473.146 484.322 473.146C475.833 473.146 468.959 480.02 468.959 488.51C468.959 489.579 469.073 490.604 469.278 491.605H494.61H499.39H541.201H545.844H566.807C566.989 490.763 567.08 489.875 567.08 488.965C567.08 481.727 561.207 475.878 553.992 475.878Z" fill="#009F7E"/>
<path d="M484.322 473.624C488.715 473.624 492.653 475.468 495.452 478.404C498.957 468.094 508.722 460.651 520.216 460.651C532.165 460.651 542.248 468.685 545.366 479.633C547.665 477.607 550.692 476.356 553.992 476.356C561.139 476.356 566.92 482.069 567.057 489.193C567.057 489.102 567.08 489.033 567.08 488.942C567.08 481.727 561.23 475.855 553.992 475.855C550.692 475.855 547.665 477.107 545.366 479.132C542.248 468.185 532.165 460.15 520.216 460.15C508.722 460.15 498.957 467.57 495.452 477.903C492.653 474.967 488.715 473.124 484.322 473.124C475.833 473.124 468.959 479.997 468.959 488.487C468.959 488.578 468.959 488.646 468.982 488.737C469.096 480.361 475.901 473.624 484.322 473.624Z" fill="#00F3B2"/>
<path d="M610.216 521.763C607.849 521.763 605.709 522.651 604.048 524.107C601.817 516.278 594.625 510.565 586.09 510.565C577.873 510.565 570.909 515.868 568.428 523.22C566.425 521.126 563.625 519.805 560.484 519.805C554.43 519.805 549.514 524.722 549.514 530.776C549.514 531.527 549.582 532.278 549.741 532.984H567.813H571.227H601.066H604.389H619.366C619.48 532.369 619.548 531.755 619.548 531.095C619.548 525.928 615.383 521.763 610.216 521.763Z" fill="#009F7E"/>
<path d="M560.507 520.147C563.625 520.147 566.447 521.468 568.45 523.562C570.954 516.187 577.919 510.907 586.112 510.907C594.648 510.907 601.84 516.642 604.07 524.449C605.709 522.992 607.871 522.105 610.239 522.105C615.337 522.105 619.456 526.179 619.57 531.255C619.57 531.186 619.57 531.141 619.57 531.072C619.57 525.929 615.382 521.741 610.239 521.741C607.871 521.741 605.732 522.628 604.07 524.085C601.84 516.255 594.648 510.542 586.112 510.542C577.896 510.542 570.931 515.846 568.45 523.197C566.447 521.103 563.648 519.783 560.507 519.783C554.452 519.783 549.536 524.699 549.536 530.754C549.536 530.822 549.536 530.868 549.536 530.936C549.627 524.95 554.498 520.147 560.507 520.147Z" fill="#00F3B2"/>
<path d="M268.076 477.765C265.709 477.765 263.57 478.653 261.908 480.109C259.678 472.28 252.485 466.567 243.95 466.567C235.734 466.567 228.769 471.87 226.288 479.222C224.285 477.128 221.486 475.808 218.345 475.808C212.29 475.808 207.374 480.724 207.374 486.778C207.374 487.529 207.442 488.28 207.602 488.986H225.674H229.088H258.927H262.25H277.226C277.34 488.372 277.408 487.757 277.408 487.097C277.408 481.953 273.243 477.765 268.076 477.765Z" fill="#009F7E"/>
<path d="M218.365 476.15C221.483 476.15 224.306 477.47 226.309 479.564C228.812 472.19 235.777 466.909 243.971 466.909C252.506 466.909 259.698 472.645 261.929 480.452C263.568 478.995 265.73 478.107 268.097 478.107C273.195 478.107 277.315 482.181 277.429 487.257C277.429 487.189 277.429 487.143 277.429 487.075C277.429 481.931 273.241 477.743 268.097 477.743C265.73 477.743 263.59 478.631 261.929 480.087C259.698 472.258 252.506 466.545 243.971 466.545C235.754 466.545 228.789 471.848 226.309 479.2C224.306 477.106 221.506 475.786 218.365 475.786C212.311 475.786 207.395 480.702 207.395 486.756C207.395 486.825 207.395 486.87 207.395 486.938C207.486 480.975 212.356 476.15 218.365 476.15Z" fill="#00F3B2"/>
<path d="M140.735 502.348C128.74 502.348 118.862 511.247 117.246 522.787C115.585 521.012 113.218 519.896 110.577 519.896C106.754 519.896 103.499 522.241 102.11 525.564C100.813 520.42 96.1699 516.619 90.6164 516.619C84.0613 516.619 78.7354 521.945 78.7354 528.5C78.7354 529.319 78.8264 530.116 78.9857 530.89H101.61H102.247H117.474H119.545H163.996C164.315 529.342 164.474 527.749 164.474 526.087C164.474 512.977 153.845 502.348 140.735 502.348Z" fill="#009F7E"/>
<path d="M90.6151 517.119C96.1686 517.119 100.789 520.92 102.109 526.064C103.475 522.741 106.752 520.397 110.576 520.397C113.216 520.397 115.583 521.512 117.245 523.288C118.861 511.748 128.739 502.849 140.734 502.849C153.753 502.849 164.336 513.341 164.473 526.338C164.473 526.246 164.496 526.178 164.496 526.087C164.496 512.977 153.867 502.348 140.757 502.348C128.762 502.348 118.884 511.247 117.268 522.787C115.606 521.011 113.239 519.896 110.599 519.896C106.775 519.896 103.52 522.241 102.132 525.564C100.835 520.42 96.1914 516.619 90.6378 516.619C84.0828 516.619 78.7568 521.945 78.7568 528.5C78.7568 528.591 78.7568 528.659 78.7796 528.75C78.8934 522.309 84.1511 517.119 90.6151 517.119Z" fill="#00F3B2"/>
<path d="M616.289 40.6503C605.342 40.6503 595.441 45.0886 588.248 52.2582C576.868 21.7363 547.462 0 512.979 0C478.543 0 449.159 21.6908 437.756 52.1444C430.586 45.0431 420.731 40.6503 409.851 40.6503C387.933 40.6503 370.18 58.4035 370.18 80.3219H432.657H449.523H576.618H593.301H655.961C655.961 58.4035 638.208 40.6503 616.289 40.6503Z" fill="#00F6FF"/>
<path d="M409.851 41.9249C420.731 41.9249 430.586 46.3177 437.756 53.419C449.182 22.9654 478.543 1.27458 512.979 1.27458C547.462 1.27458 576.868 23.0109 588.248 53.5328C595.418 46.3632 605.342 41.9249 616.289 41.9249C637.775 41.9249 655.21 58.9953 655.893 80.3219H655.961C655.961 58.4035 638.208 40.6503 616.289 40.6503C605.342 40.6503 595.441 45.0886 588.248 52.2582C576.868 21.7363 547.462 0 512.979 0C478.543 0 449.159 21.6908 437.756 52.1444C430.586 45.0431 420.731 40.6503 409.851 40.6503C387.933 40.6503 370.18 58.4035 370.18 80.3219H370.248C370.931 59.0181 388.365 41.9249 409.851 41.9249Z" fill="#B4FFFF"/>
<path d="M540.337 41.333L517.622 18.3904C515.095 15.8412 511.021 15.8412 508.495 18.3904L485.78 41.333C481.706 45.4299 484.596 52.4629 490.332 52.4629H496.5V63.957C496.5 68.1222 499.846 71.4907 503.966 71.4907H522.151C526.271 71.4907 529.617 68.1222 529.617 63.957V52.4629H535.785C541.52 52.4629 544.411 45.4527 540.337 41.333Z" fill="#5AFFFF"/>
<path d="M540.337 41.083L517.622 18.368C515.095 15.8415 511.021 15.8415 508.495 18.368L485.78 41.083C481.706 45.1571 484.596 52.0991 490.332 52.0991H496.5V63.4793C496.5 67.599 499.846 70.9448 503.966 70.9448H522.151C526.271 70.9448 529.617 67.599 529.617 63.4793V52.0991H535.785C541.52 52.0991 544.411 45.1344 540.337 41.083Z" fill="#00BFE5"/>
<path d="M496.523 51.5984H490.355C486.532 51.5984 484.005 48.5258 483.914 45.271C483.732 48.7078 486.35 52.0764 490.355 52.0764H496.523V51.5984Z" fill="#00AACF"/>
<path d="M535.785 51.5981H529.617V52.0989H535.785C539.791 52.0989 542.409 48.7075 542.227 45.2935C542.136 48.5255 539.586 51.5981 535.785 51.5981Z" fill="#00AACF"/>
<path d="M522.153 70.444H503.967C499.848 70.444 496.502 67.0982 496.502 62.9785V63.4793C496.502 67.5989 499.848 70.9447 503.967 70.9447H522.153C526.273 70.9447 529.619 67.5989 529.619 63.4793V62.9785C529.619 67.0982 526.273 70.444 522.153 70.444Z" fill="#00AACF"/>
<path d="M293.819 120.904C289.107 120.904 284.874 122.816 281.778 125.888C276.885 112.778 264.275 103.446 249.458 103.446C234.664 103.446 222.055 112.755 217.161 125.843C214.088 122.793 209.855 120.904 205.189 120.904C195.789 120.904 188.164 128.528 188.164 137.929H214.999H222.237H276.816H283.986H310.889C310.866 128.528 303.241 120.904 293.819 120.904Z" fill="#00F6FF"/>
<path d="M205.189 121.45C209.855 121.45 214.088 123.339 217.161 126.389C222.055 113.302 234.664 103.993 249.458 103.993C264.275 103.993 276.885 113.324 281.778 126.434C284.851 123.362 289.107 121.45 293.819 121.45C303.037 121.45 310.525 128.779 310.821 137.929H310.843C310.843 128.528 303.219 120.904 293.819 120.904C289.107 120.904 284.874 122.816 281.778 125.888C276.885 112.778 264.275 103.446 249.458 103.446C234.664 103.446 222.055 112.755 217.161 125.843C214.088 122.793 209.855 120.904 205.189 120.904C195.789 120.904 188.164 128.528 188.164 137.929H188.187C188.483 128.779 195.971 121.45 205.189 121.45Z" fill="#B4FFFF"/>
<path d="M261.225 121.2L251.484 111.345C250.391 110.252 248.639 110.252 247.569 111.345L237.827 121.2C236.075 122.952 237.327 125.98 239.785 125.98H242.425V130.919C242.425 132.717 243.859 134.151 245.634 134.151H253.441C255.216 134.151 256.65 132.694 256.65 130.919V125.98H259.29C261.726 125.98 262.955 122.975 261.225 121.2Z" fill="#5AFFFF"/>
<path d="M261.225 121.086L251.484 111.345C250.391 110.252 248.639 110.252 247.569 111.345L237.827 121.086C236.075 122.839 237.327 125.82 239.785 125.82H242.425V130.714C242.425 132.489 243.859 133.923 245.634 133.923H253.441C255.216 133.923 256.65 132.489 256.65 130.714V125.82H259.29C261.726 125.82 262.955 122.839 261.225 121.086Z" fill="#00BFE5"/>
<path d="M242.4 125.616H239.76C238.121 125.616 237.029 124.296 236.983 122.907C236.915 124.387 238.03 125.844 239.76 125.844H242.4V125.616Z" fill="#00AACF"/>
<path d="M259.243 125.616H256.603V125.82H259.243C260.973 125.82 262.088 124.364 262.02 122.884C261.974 124.295 260.904 125.616 259.243 125.616Z" fill="#00AACF"/>
<path d="M253.416 133.696H245.609C243.833 133.696 242.399 132.262 242.399 130.486V130.691C242.399 132.466 243.833 133.9 245.609 133.9H253.416C255.191 133.9 256.625 132.466 256.625 130.691V130.486C256.602 132.262 255.168 133.696 253.416 133.696Z" fill="#00AACF"/>
<defs>
<linearGradient id="paint0_linear_95_12569" x1="697.149" y1="624.962" x2="697.149" y2="117.21" gradientUnits="userSpaceOnUse">
<stop offset="0.000538194" stop-color="#001A7F"/>
<stop offset="0.098" stop-color="#002585"/>
<stop offset="0.2697" stop-color="#004397"/>
<stop offset="0.4954" stop-color="#0073B3"/>
<stop offset="0.7632" stop-color="#00B4DA"/>
<stop offset="1" stop-color="#00F4FF"/>
</linearGradient>
<linearGradient id="paint1_linear_95_12569" x1="658.084" y1="396.06" x2="727.436" y2="532.48" gradientUnits="userSpaceOnUse">
<stop stop-color="#0051D6"/>
<stop offset="0.6101" stop-color="#00B7F0"/>
<stop offset="1" stop-color="#00F4FF"/>
</linearGradient>
<linearGradient id="paint2_linear_95_12569" x1="711.693" y1="455.311" x2="736.577" y2="504.259" gradientUnits="userSpaceOnUse">
<stop stop-color="#0051D6"/>
<stop offset="0.6101" stop-color="#00B7F0"/>
<stop offset="1" stop-color="#00F4FF"/>
</linearGradient>
<linearGradient id="paint3_linear_95_12569" x1="715.582" y1="443.466" x2="742.402" y2="496.222" gradientUnits="userSpaceOnUse">
<stop stop-color="#0051D6"/>
<stop offset="0.6101" stop-color="#00B7F0"/>
<stop offset="1" stop-color="#00F4FF"/>
</linearGradient>
<linearGradient id="paint4_linear_95_12569" x1="650.175" y1="434.362" x2="668.648" y2="470.698" gradientUnits="userSpaceOnUse">
<stop stop-color="#00F4FF"/>
<stop offset="0.3899" stop-color="#00B7F0"/>
<stop offset="1" stop-color="#0051D6"/>
</linearGradient>
<linearGradient id="paint5_linear_95_12569" x1="655.67" y1="445.17" x2="664.309" y2="462.165" gradientUnits="userSpaceOnUse">
<stop stop-color="#0051D6"/>
<stop offset="0.6101" stop-color="#00B7F0"/>
<stop offset="1" stop-color="#00F4FF"/>
</linearGradient>
<linearGradient id="paint6_linear_95_12569" x1="663.804" y1="395.677" x2="723.351" y2="512.812" gradientUnits="userSpaceOnUse">
<stop stop-color="#00F4FF"/>
<stop offset="0.3899" stop-color="#00B7F0"/>
<stop offset="1" stop-color="#0051D6"/>
</linearGradient>
<linearGradient id="paint7_linear_95_12569" x1="375.492" y1="464.579" x2="468.464" y2="371.607" gradientUnits="userSpaceOnUse">
<stop stop-color="white" stop-opacity="0"/>
<stop offset="0.196" stop-color="#F1F2F7" stop-opacity="0.196"/>
<stop offset="0.7157" stop-color="#D0D4E6" stop-opacity="0.7157"/>
<stop offset="1" stop-color="#C3C9DF"/>
</linearGradient>
<linearGradient id="paint8_linear_95_12569" x1="300.946" y1="426.719" x2="415.16" y2="312.504" gradientUnits="userSpaceOnUse">
<stop stop-color="white" stop-opacity="0"/>
<stop offset="0.196" stop-color="#F1F2F7" stop-opacity="0.196"/>
<stop offset="0.7157" stop-color="#D0D4E6" stop-opacity="0.7157"/>
<stop offset="1" stop-color="#C3C9DF"/>
</linearGradient>
<linearGradient id="paint9_linear_95_12569" x1="360.255" y1="444.264" x2="276.771" y2="360.78" gradientUnits="userSpaceOnUse">
<stop stop-color="white" stop-opacity="0"/>
<stop offset="0.196" stop-color="#F1F2F7" stop-opacity="0.196"/>
<stop offset="0.7157" stop-color="#D0D4E6" stop-opacity="0.7157"/>
<stop offset="1" stop-color="#C3C9DF"/>
</linearGradient>
</defs>
</svg>
