<svg width="24" height="24" viewBox="0 0 24 24" fill="none" xmlns="http://www.w3.org/2000/svg">
<g id="Iconsax/Linear/messages1">
<path id="Vector" d="M17.98 10.79V14.79C17.98 15.05 17.97 15.3 17.94 15.54C17.71 18.24 16.12 19.58 13.19 19.58H12.79C12.54 19.58 12.3 19.7 12.15 19.9L10.95 21.5C10.42 22.21 9.56 22.21 9.03 21.5L7.83 19.9C7.74995 19.8068 7.65212 19.7305 7.54223 19.6755C7.43234 19.6206 7.31259 19.5881 7.19 19.58H6.79C3.6 19.58 2 18.79 2 14.79V10.79C2 7.86 3.35 6.27 6.04 6.04C6.28 6.01 6.53 6 6.79 6H13.19C16.38 6 17.98 7.6 17.98 10.79Z" stroke="#1B1B1B" stroke-width="1.5" stroke-miterlimit="10" stroke-linecap="round" stroke-linejoin="round"/>
<path id="Vector_2" d="M21.9791 6.79V10.79C21.9791 13.73 20.6291 15.31 17.9391 15.54C17.9691 15.3 17.9791 15.05 17.9791 14.79V10.79C17.9791 7.6 16.3791 6 13.1891 6H6.78906C6.52906 6 6.27906 6.01 6.03906 6.04C6.26906 3.35 7.85906 2 10.7891 2H17.1891C20.3791 2 21.9791 3.6 21.9791 6.79Z" stroke="#1B1B1B" stroke-width="1.5" stroke-miterlimit="10" stroke-linecap="round" stroke-linejoin="round"/>
<path id="Vector_3" d="M13.4961 13.25H13.5061M9.99609 13.25H10.0061M6.49609 13.25H6.50609" stroke="#1B1B1B" stroke-width="2" stroke-linecap="round" stroke-linejoin="round"/>
</g>
</svg>
