<svg width="180" height="147" viewBox="0 0 180 147" fill="none" xmlns="http://www.w3.org/2000/svg">
<g id="Layer_15">
<g id="Group">
<path id="Vector" d="M83.3346 143.595V146.708L0 98.611V95.4988L83.3346 143.595Z" fill="#474747"/>
<path id="Vector_2" d="M148.816 108.909L83.3359 146.707V143.595L148.816 105.797V108.909Z" fill="#666666"/>
<g id="Group_2">
<path id="Vector_3" d="M148.815 105.798L83.3347 143.595L0 95.4986L65.5006 57.6807L148.815 105.798Z" fill="#8F8F8F"/>
<path id="Vector_4" d="M145.784 105.838L83.1497 142.018L2.66113 95.5391L65.2952 59.3591L145.784 105.838Z" fill="white"/>
<g id="Group_3">
<path id="Vector_5" d="M96.6626 119.864C101.454 122.628 101.454 127.112 96.6626 129.897C91.8714 132.661 84.0907 132.661 79.2995 129.897C74.5082 127.133 74.5082 122.649 79.2995 119.864C84.0907 117.1 91.8714 117.1 96.6626 119.864Z" fill="#D14C4C"/>
<path id="Vector_6" d="M97.6667 125.371C97.4619 124.122 96.5201 122.914 94.8615 121.952C91.0736 119.761 84.931 119.761 81.1226 121.952C79.4641 122.914 78.5223 124.143 78.338 125.371C78.0718 123.774 79.0136 122.136 81.1226 120.908C84.931 118.717 91.0736 118.717 94.8615 120.908C96.9705 122.136 97.9124 123.774 97.6667 125.371Z" fill="#5E2222"/>
<path id="Vector_7" d="M97.6663 125.372C97.6663 125.392 97.6868 125.413 97.6663 125.413C97.4615 126.662 96.5197 127.87 94.8612 128.832C91.0732 131.023 84.9307 131.023 81.1222 128.832C79.4637 127.87 78.5219 126.641 78.3376 125.413C78.3171 125.392 78.3171 125.372 78.3376 125.372C78.5424 124.123 79.4637 122.915 81.1222 121.952C84.9307 119.762 91.0732 119.762 94.8612 121.952C96.4992 122.915 97.4615 124.123 97.6663 125.372Z" fill="#822F2F"/>
</g>
<g id="Group_4">
<path id="Vector_8" d="M71.3143 71.582L22.0916 100.002L14.5566 95.661L63.7999 67.2412L71.3143 71.582Z" fill="#31768F"/>
<path id="Vector_9" d="M77.8261 75.3285L28.5828 103.748L26.0029 102.254L75.2257 73.8337L77.8261 75.3285Z" fill="#ADADAD"/>
<path id="Vector_10" d="M100.573 88.4746L51.3299 116.894L48.75 115.4L97.9728 86.98L100.573 88.4746Z" fill="#ADADAD"/>
<path id="Vector_11" d="M104.936 90.992L55.7136 119.412L53.1133 117.917L102.356 89.4973L104.936 90.992Z" fill="#ADADAD"/>
<path id="Vector_12" d="M82.9442 78.2979L33.7215 106.718L31.1211 105.223L80.3438 76.8032L82.9442 78.2979Z" fill="#ADADAD"/>
<path id="Vector_13" d="M69.8822 91.7508L38.8416 109.667L36.2412 108.172L67.3023 90.2561L69.8822 91.7508Z" fill="#ADADAD"/>
<path id="Vector_14" d="M91.1117 104.015L60.071 121.931L57.4707 120.436L88.5318 102.52L91.1117 104.015Z" fill="#ADADAD"/>
<path id="Vector_15" d="M135.875 104.384L107.394 120.826L105.612 119.802L134.094 103.36L135.875 104.384Z" fill="#48798A"/>
</g>
<path id="Vector_16" d="M98.6084 112.125L116.422 110.814L114.149 93.6558L113.76 108.459L98.6084 112.125Z" fill="#122947"/>
</g>
<g id="Group_5">
<path id="Vector_17" d="M119.719 85.8336L113.761 95.7232L117.262 74.3674C117.262 74.3674 120.006 75.1455 119.023 78.9744C118.04 82.8033 119.719 85.8336 119.719 85.8336Z" fill="#C2C2C2"/>
<path id="Vector_18" d="M120.805 80.6746C120.805 80.6746 119.761 83.2135 117.345 82.804C114.908 82.374 114.806 79.6303 114.806 79.6303L119.494 52.7871C119.822 50.8829 121.419 49.5725 123.078 49.8592L123.139 49.8796C124.777 50.1663 125.842 51.9477 125.514 53.8314L120.805 80.6746Z" fill="#E0BC55"/>
<path id="Vector_19" d="M118.536 75.9441C117.021 75.6779 116.223 74.6746 115.813 73.7532L115.711 74.3879C115.711 74.3879 115.957 76.3535 118.393 76.7631C120.83 77.193 121.731 75.4322 121.731 75.4322L121.833 74.7974C121.137 75.5345 120.072 76.2102 118.536 75.9441Z" fill="#806F32"/>
<path id="Vector_20" d="M128.627 40.1526C129.036 37.7979 127.726 35.6071 125.699 35.259L125.617 35.2385C123.59 34.8905 121.603 36.508 121.194 38.8422L115.399 71.9918C115.399 71.9918 115.44 72.8108 115.829 73.7117C116.239 74.6331 117.017 75.6364 118.553 75.9026C120.088 76.1688 121.153 75.4931 121.849 74.756C122.525 74.0394 122.832 73.2818 122.832 73.2818L128.627 40.1526Z" fill="#264F80"/>
<path id="Vector_21" d="M123.264 48.9372C121.339 48.5891 120.398 47.2787 119.927 46.1116L119.824 46.7259C119.824 46.7259 120.09 49.3262 123.1 49.8381C126.11 50.3705 127.236 48.0158 127.236 48.0158L127.339 47.4015C126.52 48.3434 125.189 49.2648 123.264 48.9372Z" fill="#162E4A"/>
<path id="Vector_22" d="M135.364 5.95938C135.856 3.13378 134.279 0.512948 131.843 0.0829653L131.761 0.0624699C129.324 -0.367512 126.949 1.57764 126.458 4.40323L119.496 44.2278C119.496 44.2278 119.537 45.1082 119.926 46.1115C120.377 47.2786 121.318 48.589 123.264 48.9371C125.188 49.2647 126.519 48.3434 127.359 47.422C128.075 46.603 128.403 45.8044 128.403 45.8044L135.364 5.95938Z" fill="#264F80"/>
<path id="Vector_23" d="M125.146 13.658C125.146 13.658 122.382 13.1666 121.952 15.6442L117.713 39.8255C117.058 43.5111 117.488 50.5137 117.488 50.5137L123.426 16.545C123.426 16.545 124.511 15.6851 124.716 16.7703L125.433 17.4459L125.985 14.3132L125.269 13.658H125.146Z" fill="#E0BC55"/>
<path id="Vector_24" d="M132.19 0.758536C132.19 0.758536 134.115 0.615228 134.565 4.36222C135.016 8.08873 127.604 46.1114 127.604 46.1114C127.604 46.1114 134.074 7.39255 133.746 4.79218C133.419 2.21229 132.19 0.758536 132.19 0.758536Z" fill="#4C9DFF"/>
<path id="Vector_25" d="M125.988 50.2269L126.603 49.8174L122.426 73.0365L125.988 50.2269Z" fill="#4C9DFF"/>
<path id="Vector_26" d="M134.297 2.1917C134.666 2.68311 134.666 3.31785 134.277 3.6045C133.888 3.89116 133.273 3.7478 132.905 3.25639C132.536 2.76498 132.536 2.13024 132.925 1.84359C133.314 1.53646 133.929 1.70029 134.297 2.1917Z" fill="white"/>
</g>
<g id="Group_6">
<path id="Vector_27" d="M173.366 107.682L180 99.4504L162.739 109.156C162.739 109.156 164.275 111.265 167.244 109.217C170.233 107.17 173.366 107.682 173.366 107.682Z" fill="#808080"/>
<path id="Vector_28" d="M169.272 110.22C169.272 110.22 171.136 108.52 170.009 106.575C168.883 104.61 166.488 105.388 166.488 105.388L144.886 117.857C143.351 118.738 142.736 120.519 143.494 121.85L143.514 121.891C144.272 123.222 146.135 123.57 147.671 122.689L169.272 110.22Z" fill="#D4B02F"/>
<path id="Vector_29" d="M164.502 109.77C163.786 108.541 162.68 108.193 161.759 108.132L162.271 107.825C162.271 107.825 164.032 107.415 165.158 109.381C166.284 111.347 165.055 112.657 165.055 112.657L164.543 112.964C164.973 112.125 165.219 110.978 164.502 109.77Z" fill="#806F32"/>
<path id="Vector_30" d="M136.918 129.671C135.035 130.757 132.741 130.327 131.8 128.689L131.759 128.627C130.817 126.989 131.574 124.778 133.479 123.693L160.158 108.295C160.158 108.295 160.875 108.07 161.776 108.111C162.697 108.172 163.803 108.52 164.519 109.749C165.236 110.978 164.99 112.124 164.56 112.943C164.151 113.742 163.598 114.254 163.598 114.254L136.918 129.671Z" fill="#BF3232"/>
<path id="Vector_31" d="M142.78 122.3C141.879 120.744 140.445 120.355 139.299 120.314L139.79 120.027C139.79 120.027 142.104 119.454 143.496 121.87C144.889 124.286 143.23 126.006 143.23 126.006L142.739 126.293C143.292 125.29 143.681 123.856 142.78 122.3Z" fill="#731E1E"/>
<path id="Vector_32" d="M109.648 146.215C107.375 147.526 104.631 146.994 103.485 145.028L103.444 144.946C102.317 142.98 103.239 140.339 105.491 139.029L137.535 120.519C137.535 120.519 138.313 120.273 139.296 120.314C140.443 120.355 141.876 120.744 142.777 122.3C143.678 123.856 143.289 125.29 142.756 126.293C142.285 127.173 141.691 127.706 141.691 127.706L109.648 146.215Z" fill="#BF3232"/>
<path id="Vector_33" d="M113.046 135.015C113.046 135.015 111.756 132.804 113.762 131.637L133.235 120.396C136.203 118.676 142.346 116.833 142.346 116.833L115.011 132.62C115.011 132.62 114.622 133.807 115.605 133.664L116.404 134.053L113.885 135.507L113.107 135.097L113.046 135.015Z" fill="#D4B02F"/>
<path id="Vector_34" d="M141.156 123.14C134.317 129.529 109.91 141.425 109.91 141.425C109.91 141.425 140.685 122.424 141.156 123.14Z" fill="#F75454"/>
<path id="Vector_35" d="M144.067 121.297C152.892 117.571 163.703 110.445 163.703 110.445C163.703 110.445 144.641 119.577 144.067 121.297Z" fill="#F75454"/>
<path id="Vector_36" d="M165.648 109.237C167.266 109.217 169.723 106.862 169.723 106.862C169.723 106.862 166.345 107.722 165.648 109.237Z" fill="white"/>
</g>
</g>
</g>
</svg>
