<svg width="23" height="23" viewBox="0 0 23 23" fill="none" xmlns="http://www.w3.org/2000/svg">
<g id="clarity:block-quote-line">
<path id="Vector" d="M7.87606 11.0202C7.424 11.0218 6.97994 11.1396 6.58661 11.3624C7.14037 9.92909 8.05882 8.66517 9.25106 7.69578C9.31927 7.6396 9.37575 7.57054 9.41728 7.49254C9.4588 7.41453 9.48456 7.32911 9.49307 7.24115C9.50158 7.15319 9.49268 7.06442 9.46689 6.9799C9.44109 6.89538 9.3989 6.81677 9.34273 6.74856C9.28655 6.68034 9.21749 6.62386 9.13948 6.58234C9.06148 6.54081 8.97606 6.51506 8.8881 6.50655C8.80014 6.49803 8.71137 6.50693 8.62685 6.53273C8.54233 6.55852 8.46372 6.60071 8.3955 6.65689C5.95106 8.643 4.86328 11.393 4.86328 13.098C4.86749 13.7009 5.04715 14.2894 5.38031 14.7919C5.71346 15.2943 6.18571 15.6889 6.73939 15.9274C7.09772 16.101 7.49013 16.1929 7.88828 16.1963C8.23873 16.2134 8.58899 16.1591 8.91781 16.0367C9.24664 15.9143 9.54719 15.7264 9.80124 15.4844C10.0553 15.2424 10.2575 14.9513 10.3957 14.6288C10.5339 14.3063 10.6052 13.9591 10.6052 13.6083C10.6052 13.2574 10.5339 12.9102 10.3957 12.5877C10.2575 12.2652 10.0553 11.9741 9.80124 11.7321C9.54719 11.4901 9.24664 11.3023 8.91781 11.1799C8.58899 11.0575 8.23873 11.0032 7.88828 11.0202H7.87606Z" fill="#009FBD"/>
<path id="Vector_2" d="M14.6837 11.02C14.2315 11.021 13.7873 11.1389 13.3942 11.3622C13.9478 9.93038 14.8638 8.66689 16.0526 7.69557C16.127 7.64194 16.1896 7.57365 16.2366 7.4949C16.2837 7.41615 16.3141 7.32861 16.326 7.23767C16.3379 7.14673 16.3311 7.05431 16.306 6.96609C16.2809 6.87788 16.238 6.79575 16.1799 6.72474C16.1218 6.65373 16.0499 6.59536 15.9684 6.55321C15.8869 6.51106 15.7977 6.48603 15.7062 6.47965C15.6147 6.47328 15.5229 6.48569 15.4364 6.51614C15.3498 6.54658 15.2705 6.59441 15.2031 6.65668C12.7587 8.64279 11.6709 11.3928 11.6709 13.0978C11.6738 13.6938 11.8482 14.2764 12.1733 14.776C12.4984 15.2756 12.9604 15.671 13.5042 15.915C13.8716 16.0937 14.2751 16.1857 14.6837 16.1839C15.0341 16.2009 15.3844 16.1466 15.7132 16.0242C16.042 15.9019 16.3426 15.714 16.5966 15.472C16.8507 15.23 17.0529 14.9389 17.1911 14.6164C17.3293 14.2939 17.4006 13.9467 17.4006 13.5958C17.4006 13.245 17.3293 12.8978 17.1911 12.5753C17.0529 12.2528 16.8507 11.9617 16.5966 11.7197C16.3426 11.4777 16.042 11.2898 15.7132 11.1675C15.3844 11.0451 15.0341 10.9908 14.6837 11.0078V11.02Z" fill="#009FBD"/>
</g>
</svg>
