<svg width="344" height="405" viewBox="0 0 344 405" fill="none" xmlns="http://www.w3.org/2000/svg">
<g filter="url(#filter0_d_95_14664)">
<path d="M311.44 76.8502C318.38 154.437 321.8 196.752 323.463 261.071C321.077 286.056 316.536 296.852 298.483 306.145C225.845 337.395 175.165 361.451 115.71 384.048C90.6547 386.669 80.9107 381.31 71.0888 367.773C50.8912 318.162 41.1011 262.253 22.0309 191.999C17.1542 164.586 21.1698 152.679 41.4735 138.093C117.091 94.2136 227.385 33.352 227.385 33.352C227.385 33.352 248.22 19.7999 261.697 20.8509C277.666 23.685 285.031 28.1534 294.686 37.8912C305.862 49.409 309.502 57.9507 311.44 76.8502Z" fill="#009FBD"/>
</g>
<defs>
<filter id="filter0_d_95_14664" x="0.15625" y="0.792969" width="343.308" height="403.9" filterUnits="userSpaceOnUse" color-interpolation-filters="sRGB">
<feFlood flood-opacity="0" result="BackgroundImageFix"/>
<feColorMatrix in="SourceAlpha" type="matrix" values="0 0 0 0 0 0 0 0 0 0 0 0 0 0 0 0 0 0 127 0" result="hardAlpha"/>
<feOffset/>
<feGaussianBlur stdDeviation="10"/>
<feComposite in2="hardAlpha" operator="out"/>
<feColorMatrix type="matrix" values="0 0 0 0 0 0 0 0 0 0 0 0 0 0 0 0 0 0 0.1 0"/>
<feBlend mode="normal" in2="BackgroundImageFix" result="effect1_dropShadow_95_14664"/>
<feBlend mode="normal" in="SourceGraphic" in2="effect1_dropShadow_95_14664" result="shape"/>
</filter>
</defs>
</svg>
