<svg width="180" height="154" viewBox="0 0 180 154" fill="none" xmlns="http://www.w3.org/2000/svg">
<g id="Layer_12">
<g id="Group">
<g id="Group_2">
<path id="Vector" d="M5.19995 31.2482L57.2975 1.17184C58.6575 0.387235 59.8605 0.38723 60.6974 0.962604V0.936425L67.1573 4.70252L65.562 11.6593H61.9004V110.754C61.9004 113.71 59.8344 117.267 57.2975 118.757L8.15529 147.134L8.33838 152.861L1.95695 149.148C1.12004 148.677 0.596925 147.631 0.596925 146.166V39.2511C0.570772 36.2958 2.63691 32.7128 5.19995 31.2482Z" fill="#1C1C1C"/>
<path id="Vector_2" d="M11.5531 152.521L63.6507 122.445C66.1876 120.98 68.2537 117.397 68.2537 114.442V7.52692C68.2537 4.57159 66.1876 3.39468 63.6507 4.85927L11.5531 34.9356C9.01626 36.4002 6.9502 39.9832 6.9502 42.9386V149.854C6.9502 152.809 9.01626 153.986 11.5531 152.521Z" fill="#404040"/>
<path id="Vector_3" d="M8.31348 137.824L66.9232 103.981L66.897 13.8828L8.31348 47.7253V137.824Z" fill="#84DB5C"/>
<g id="Group_3">
<path id="Vector_4" d="M56.4077 91.9768L18.6683 113.893L18.5898 79.9462L56.3291 58.0298L56.4077 91.9768Z" fill="white"/>
<path id="Vector_5" d="M60.6469 96.9199L14.617 123.649L14.5908 116.352L60.6208 89.623L60.6469 96.9199Z" fill="#404040"/>
<path id="Vector_6" d="M37.4734 47.2544L10.6924 84.5229L64.3591 53.3482L37.4734 47.2544Z" fill="#E54D3E"/>
<g id="Group_4">
<path id="Vector_7" d="M31.6406 86.1446L23.0623 91.1398L23.0361 81.2277L31.6144 76.2324L31.6406 86.1446Z" fill="#7D645A"/>
<path id="Vector_8" d="M30.9603 80.26L23.7158 84.4706V81.6461L30.9603 77.4092V80.26Z" fill="#77A7FB"/>
<path id="Vector_9" d="M27.1157 87.9753L23.7158 89.963V84.837L27.1157 82.8755V87.9753Z" fill="#77A7FB"/>
<path id="Vector_10" d="M30.9887 85.7259L27.5887 87.7135L27.5625 82.5875L30.9625 80.626L30.9887 85.7259Z" fill="#77A7FB"/>
</g>
<g id="Group_5">
<path id="Vector_11" d="M31.6943 100.974L23.0898 105.943V96.0568L31.6681 91.0615L31.6943 100.974Z" fill="#7D645A"/>
<path id="Vector_12" d="M31.0148 95.0885L23.7441 99.2992V96.4485L31.0148 92.2378V95.0885Z" fill="#77A7FB"/>
<path id="Vector_13" d="M27.1702 102.804L23.7703 104.766L23.7441 99.6659L27.1441 97.6782L27.1702 102.804Z" fill="#77A7FB"/>
<path id="Vector_14" d="M31.0161 100.555L27.6162 102.543V97.4166L31.0161 95.4551V100.555Z" fill="#77A7FB"/>
</g>
<g id="Group_6">
<path id="Vector_15" d="M51.6737 74.5061L43.0954 79.5014L43.0693 69.5892L51.6476 64.6201L51.6737 74.5061Z" fill="#7D645A"/>
<path id="Vector_16" d="M50.9943 68.6214L43.7497 72.8321L43.7236 70.0075L50.9943 65.7969V68.6214Z" fill="#77A7FB"/>
<path id="Vector_17" d="M47.149 76.3368L43.749 78.3244V73.1983L47.149 71.2368V76.3368Z" fill="#77A7FB"/>
<path id="Vector_18" d="M51.0208 74.1133L47.6209 76.0748L47.5947 70.9749L50.9947 68.9873L51.0208 74.1133Z" fill="#77A7FB"/>
</g>
<path id="Vector_19" d="M50.4733 80.9404L41.7119 86.0142L41.7381 100.503L50.4995 95.4032L50.4733 80.9404Z" fill="#7D645A"/>
</g>
<path id="Vector_20" d="M31.459 30.2281L62.3984 12.3915V10.4038L31.459 28.2666V30.2281Z" fill="#121214"/>
<path id="Vector_21" d="M13.7275 40.4805L23.2212 34.9884V33.0269L13.7275 38.4929V40.4805Z" fill="#636970"/>
<path id="Vector_22" d="M30.4392 137.902L44.6405 129.716C45.1113 129.454 45.5036 128.775 45.5036 128.225V120.85C45.5036 120.301 45.1113 120.092 44.6405 120.353L30.4392 128.539C29.9684 128.801 29.5762 129.481 29.5762 130.03V137.405C29.5762 137.954 29.9423 138.19 30.4392 137.902Z" fill="#121214"/>
<path id="Vector_23" d="M32.5312 135.286L42.4957 129.532C42.8357 129.349 43.0971 128.879 43.0971 128.486V123.308C43.0971 122.916 42.8357 122.759 42.4957 122.968L32.5312 128.722C32.1912 128.905 31.9297 129.376 31.9297 129.768V134.946C31.9297 135.338 32.2174 135.495 32.5312 135.286Z" fill="#595959"/>
<path id="Vector_24" opacity="0.2" d="M8.36575 69.3537L66.9232 102.124V84.9411L14.538 44.1157L8.31348 47.7249L8.36575 69.3537Z" fill="white"/>
<path id="Vector_25" opacity="0.2" d="M8.31348 104.452L46.942 115.515L60.3848 107.747L8.31348 77.5142V104.452Z" fill="white"/>
<path id="Vector_26" d="M17.6218 142.558L25.5201 138.007C25.9909 137.719 26.3832 137.091 26.3832 136.595V134.581C26.3832 134.084 25.9909 133.901 25.5201 134.188L17.6218 138.739C17.1511 139.027 16.7588 139.655 16.7588 140.151V142.165C16.7588 142.662 17.1249 142.845 17.6218 142.558Z" fill="#292929"/>
<path id="Vector_27" d="M50.3164 123.622L58.2147 119.071C58.6855 118.784 59.0778 118.156 59.0778 117.659V115.645C59.0778 115.148 58.6855 114.965 58.2147 115.253L50.3164 119.804C49.8456 120.091 49.4534 120.719 49.4534 121.216V123.23C49.4272 123.727 49.8195 123.91 50.3164 123.622Z" fill="#292929"/>
</g>
<g id="Group_7">
<g id="Group_8">
<path id="Vector_28" d="M167.694 42.2328L167.72 42.3636C168.636 46.1297 167.589 49.5035 165.393 49.9219L123.103 58.0295L119.284 44.0113L125.064 42.5728L162.071 36.1914C164.268 35.773 166.779 38.4929 167.694 42.2328Z" fill="#0B131F"/>
<path id="Vector_29" d="M109.53 47.9078L112.067 58.3692L116.016 57.6108L113.506 47.1494L109.53 47.9078Z" fill="#919191"/>
<path id="Vector_30" d="M107.829 47.4901L110.732 59.3898L113.269 58.9191L110.392 46.9932L107.829 47.4901Z" fill="#212121"/>
<path id="Vector_31" d="M80.7084 12.6009L81.8854 11.3193L73.2024 13.4378C73.2024 13.4378 73.5162 13.3593 72.6009 13.5685C58.1119 16.3408 51.2336 38.6757 57.2228 63.443C63.2119 88.2102 79.8193 106.073 94.3082 103.301C94.7267 103.222 95.6159 102.987 95.6159 102.987L105.345 100.45L102.991 99.3778C114.996 91.0871 125.928 71.5767 121.089 51.6217C115.78 29.5221 101.84 12.1563 80.7084 12.6009ZM107.228 53.8708C112.119 74.1135 107.516 92.5779 96.9497 97.8347C95.799 98.4101 49.3506 60.9323 77.4654 17.57C89.5483 18.4331 102.311 33.5758 107.228 53.8708Z" fill="#2B5DAB"/>
<path id="Vector_32" d="M101.344 94.5392C108.274 92.63 126.791 91.4008 117.925 52.2492C107.123 10.7438 90.0453 18.9821 78.1455 17.596C76.6286 17.4129 66.0626 36.871 71.5025 59.3106C76.9163 81.7764 99.0682 96.893 101.344 94.5392ZM72.4179 60.0952C67.4749 39.6956 69.5149 23.3497 74.5363 21.4928C86.4622 19.2175 100.14 33.8895 105.057 54.2891C110 74.6888 104.325 93.0484 92.399 95.3238C91.7452 96.0299 77.3347 80.4948 72.4179 60.0952Z" fill="#273140"/>
<path id="Vector_33" opacity="0.5" d="M77.5699 20.3161C89.4959 18.0408 103.174 32.7128 108.091 53.1125C113.034 73.5121 107.359 91.8718 95.4327 94.1471C94.2035 94.3825 92.9481 94.4348 91.6927 94.3301C86.2267 92.2902 75.1638 79.0305 70.7439 60.7231C66.3501 42.5727 69.3839 24.396 73.8561 21.6238C75.0069 20.9961 76.2623 20.5515 77.5699 20.3161Z" fill="#A5B0C2"/>
<path id="Vector_34" opacity="0.5" d="M82.9298 19.0608C94.8557 16.7854 108.534 31.4574 113.451 51.8571C118.394 72.2567 112.718 90.6164 100.793 92.8917C88.8666 95.1671 75.1884 80.495 70.2716 60.0954C65.3286 39.7219 71.0039 21.3361 82.9298 19.0608Z" fill="#A5B0C2"/>
<path id="Vector_35" opacity="0.3" d="M82.9298 19.0608C94.8557 16.7854 108.534 31.4574 113.451 51.8571C87.3236 26.1483 75.1884 80.495 70.2716 60.1215C65.3286 39.7219 71.0039 21.3361 82.9298 19.0608Z" fill="white"/>
<path id="Vector_36" opacity="0.5" d="M109.242 42.6772C116.826 60.6969 115.179 81.2535 105.581 88.6026C95.9822 95.9517 82.0425 87.295 74.458 69.3014C74.458 69.3014 88.79 95.2979 104.116 85.0457C118.448 72.1521 109.242 42.6772 109.242 42.6772Z" fill="#1F1F1F"/>
</g>
<g id="Group_9">
<path id="Vector_37" d="M179.644 39.2509L179.67 39.3817C180.585 43.1478 179.539 46.5216 177.342 46.94L128.383 56.303L125.062 42.5724L174.021 33.2095C176.217 32.791 178.728 35.511 179.644 39.2509Z" fill="#5185D6"/>
<path id="Vector_38" d="M178.363 39.4339L178.389 39.5647C179.2 42.9385 178.258 45.9983 176.297 46.3645L132.202 54.7859L173.289 33.994C175.277 33.6278 177.526 36.0601 178.363 39.4339Z" fill="#3E65A3"/>
<path id="Vector_39" d="M121.48 44.9264L124.017 55.3878L126.554 54.8647L124.044 44.4033L121.48 44.9264Z" fill="#919191"/>
<path id="Vector_40" d="M127.967 54.6289L128.385 56.3028L123.102 58.0289L122.814 56.2504L127.967 54.6289Z" fill="#0B131F"/>
<path id="Vector_41" d="M119.779 44.4815L122.656 56.4074L125.219 55.9106L122.342 44.0107L119.779 44.4815Z" fill="#5185D6"/>
<path id="Vector_42" d="M106.258 100.293C120.747 97.5209 127.626 75.186 121.637 50.4187C115.647 25.6515 99.0401 7.78873 84.5511 10.561C70.0622 13.3332 63.1838 35.6682 69.1729 60.4354C75.1621 85.2288 91.7695 103.065 106.258 100.293ZM71.6314 59.9647C66.1915 37.5251 72.4422 17.2824 85.5712 14.7717C98.7002 12.261 113.738 28.4237 119.178 50.8633C124.618 73.3029 118.367 93.5456 105.238 96.0563C92.1095 98.567 77.0713 82.4043 71.6314 59.9647Z" fill="#5185D6"/>
<path id="Vector_43" d="M105.238 96.0559C118.367 93.5452 124.591 73.3286 119.178 50.8629C113.738 28.4233 98.6995 12.2605 85.5705 14.7712C72.4415 17.282 66.2169 37.4985 71.6307 59.9643C77.0706 82.4039 92.1088 98.5666 105.238 96.0559ZM73.8015 59.5458C68.8585 39.1462 74.5338 20.7865 86.4597 18.5112C98.3856 16.2358 112.064 30.9079 116.981 51.3075C121.924 71.7071 116.248 90.0668 104.322 92.3421C92.3965 94.6175 78.7445 79.9454 73.8015 59.5458Z" fill="#526787"/>
<path id="Vector_44" d="M75.554 34.1513C76.2079 31.7452 78.1956 31.2744 80.0263 33.1052C81.8571 34.9359 82.7985 38.362 82.1708 40.7681C81.517 43.1742 79.5294 43.645 77.6986 41.8142C75.8679 39.9835 74.9002 36.5574 75.554 34.1513Z" fill="white"/>
</g>
<path id="Vector_45" d="M165.391 49.948L123.101 58.0294L128.384 56.3033L177.892 46.7573L165.391 49.948Z" fill="#1A2B45"/>
<path id="Vector_46" d="M127.182 43.1222C127.182 43.1222 173.028 33.707 175.644 34.8316C178.259 35.9562 179.331 41.9976 179.331 41.9976C179.331 41.9976 177.475 37.2639 175.225 36.0347C172.976 34.7793 127.182 43.1222 127.182 43.1222Z" fill="white"/>
</g>
</g>
</g>
</svg>
