<svg width="536" height="65" viewBox="0 0 536 65" fill="none" xmlns="http://www.w3.org/2000/svg">
<circle cx="25" cy="20" r="18.5" stroke="#865DFF" stroke-width="3"/>
<circle cx="25" cy="20" r="9" fill="#865DFF"/>
<circle cx="267" cy="20" r="18.5" stroke="#B9B9B9" stroke-width="3"/>
<circle cx="267" cy="20" r="9" fill="#B9B9B9"/>
<circle cx="509" cy="20" r="18.5" stroke="#B9B9B9" stroke-width="3"/>
<circle cx="509" cy="20" r="9" fill="#B9B9B9"/>
<line x1="45" y1="18.5" x2="247" y2="18.5" stroke="#B9B9B9" stroke-width="3"/>
<line x1="287" y1="18.5" x2="489" y2="18.5" stroke="#B9B9B9" stroke-width="3"/>
<path d="M6.1975 61.32C5.6215 61.32 5.10417 61.2613 4.6455 61.144C4.1975 61.0373 3.79217 60.8933 3.4295 60.712C3.0775 60.5307 2.76817 60.3227 2.5015 60.088C2.23483 59.8533 2.0055 59.6133 1.8135 59.368C1.3655 58.792 1.04017 58.136 0.8375 57.4H3.8775C3.9735 57.6667 4.1175 57.896 4.3095 58.088C4.48017 58.2587 4.71483 58.4133 5.0135 58.552C5.32283 58.6907 5.7175 58.76 6.1975 58.76C6.79483 58.76 7.2215 58.664 7.4775 58.472C7.74417 58.2693 7.8775 58.0453 7.8775 57.8C7.8775 57.512 7.71217 57.288 7.3815 57.128C7.0615 56.9573 6.65083 56.808 6.1495 56.68C5.65883 56.552 5.1255 56.4187 4.5495 56.28C3.98417 56.1307 3.45083 55.928 2.9495 55.672C2.45883 55.4053 2.04817 55.064 1.7175 54.648C1.3975 54.232 1.2375 53.6827 1.2375 53C1.2375 52.5413 1.33883 52.0987 1.5415 51.672C1.75483 51.2453 2.05883 50.872 2.4535 50.552C2.84817 50.2213 3.3335 49.96 3.9095 49.768C4.4855 49.576 5.1415 49.48 5.8775 49.48C6.4215 49.48 6.90683 49.5333 7.3335 49.64C7.76017 49.736 8.1335 49.8693 8.4535 50.04C8.78417 50.2 9.07217 50.3867 9.3175 50.6C9.56283 50.8027 9.77083 51.016 9.9415 51.24C10.3362 51.752 10.6082 52.3387 10.7575 53H7.7175C7.6535 52.8187 7.54683 52.6587 7.3975 52.52C7.2695 52.4027 7.08283 52.296 6.8375 52.2C6.60283 52.0933 6.28283 52.04 5.8775 52.04C5.31217 52.04 4.9175 52.1253 4.6935 52.296C4.4695 52.456 4.3575 52.6373 4.3575 52.84C4.3575 53.064 4.4535 53.2453 4.6455 53.384C4.8375 53.5227 5.08817 53.6453 5.3975 53.752C5.70683 53.8587 6.05883 53.96 6.4535 54.056C6.85883 54.152 7.26417 54.2587 7.6695 54.376C8.0855 54.4933 8.49083 54.632 8.8855 54.792C9.29083 54.952 9.64817 55.16 9.9575 55.416C10.2668 55.672 10.5175 55.9813 10.7095 56.344C10.9015 56.696 10.9975 57.128 10.9975 57.64C10.9975 58.12 10.8962 58.584 10.6935 59.032C10.4908 59.4693 10.1868 59.8587 9.7815 60.2C9.38683 60.5413 8.89083 60.8133 8.2935 61.016C7.69617 61.2187 6.9975 61.32 6.1975 61.32ZM12.7644 54.84H11.7244V52.68H12.7644V50.92H15.4844V52.68H17.6444V54.84H15.4844V58.84H17.8044V61H12.7644V54.84ZM23.1631 61.24C22.5231 61.24 21.9258 61.1227 21.3711 60.888C20.8165 60.6533 20.3311 60.3387 19.9151 59.944C19.5098 59.5387 19.1898 59.0693 18.9551 58.536C18.7205 58.0027 18.6031 57.4373 18.6031 56.84C18.6031 56.2427 18.7205 55.6773 18.9551 55.144C19.1898 54.6107 19.5098 54.1467 19.9151 53.752C20.3311 53.3467 20.8165 53.0267 21.3711 52.792C21.9258 52.5573 22.5231 52.44 23.1631 52.44C23.8245 52.44 24.4325 52.5573 24.9871 52.792C25.5418 53.0267 26.0218 53.3467 26.4271 53.752C26.8325 54.1467 27.1471 54.6107 27.3711 55.144C27.6058 55.6773 27.7231 56.2427 27.7231 56.84V57.32H21.4031C21.4885 57.8853 21.6805 58.3227 21.9791 58.632C22.2885 58.9307 22.6831 59.08 23.1631 59.08C23.4831 59.08 23.7445 59.0373 23.9471 58.952C24.1605 58.8667 24.3258 58.7653 24.4431 58.648C24.5818 58.52 24.6885 58.3707 24.7631 58.2H27.6431C27.4511 58.776 27.1631 59.2827 26.7791 59.72C26.6191 59.912 26.4218 60.0987 26.1871 60.28C25.9631 60.4613 25.7018 60.6267 25.4031 60.776C25.1151 60.9147 24.7845 61.0267 24.4111 61.112C24.0378 61.1973 23.6218 61.24 23.1631 61.24ZM24.8431 55.96C24.7578 55.5973 24.5658 55.2827 24.2671 55.016C23.9791 54.7387 23.6111 54.6 23.1631 54.6C22.7151 54.6 22.3418 54.7387 22.0431 55.016C21.7551 55.2827 21.5685 55.5973 21.4831 55.96H24.8431ZM29.0031 52.68H31.7231V53.8H31.8831C32.0431 53.544 32.2458 53.32 32.4911 53.128C32.7045 52.9573 32.9605 52.8027 33.2591 52.664C33.5685 52.5147 33.9365 52.44 34.3631 52.44C34.8645 52.44 35.3338 52.5413 35.7711 52.744C36.2191 52.9467 36.6085 53.24 36.9391 53.624C37.2805 53.9973 37.5471 54.456 37.7391 55C37.9418 55.544 38.0431 56.1573 38.0431 56.84C38.0431 57.5227 37.9418 58.136 37.7391 58.68C37.5471 59.224 37.2805 59.688 36.9391 60.072C36.6085 60.4453 36.2191 60.7333 35.7711 60.936C35.3338 61.1387 34.8645 61.24 34.3631 61.24C33.9365 61.24 33.5685 61.1707 33.2591 61.032C32.9605 60.8933 32.7045 60.7387 32.4911 60.568C32.2458 60.376 32.0431 60.1467 31.8831 59.88H31.7231V64.04H29.0031V52.68ZM33.4831 58.92C34.0058 58.92 34.4271 58.744 34.7471 58.392C35.0778 58.04 35.2431 57.5227 35.2431 56.84C35.2431 56.1573 35.0778 55.64 34.7471 55.288C34.4271 54.936 34.0058 54.76 33.4831 54.76C32.9605 54.76 32.5338 54.936 32.2031 55.288C31.8831 55.64 31.7231 56.1573 31.7231 56.84C31.7231 57.5227 31.8831 58.04 32.2031 58.392C32.5338 58.744 32.9605 58.92 33.4831 58.92ZM45.48 53.16L43.48 54.52V51.4L45.8 49.8H48.52V61H45.48V53.16Z" fill="#B9B9B9"/>
<path d="M246.237 61.32C245.661 61.32 245.143 61.2613 244.685 61.144C244.237 61.0373 243.831 60.8933 243.469 60.712C243.117 60.5307 242.807 60.3227 242.541 60.088C242.274 59.8533 242.045 59.6133 241.853 59.368C241.405 58.792 241.079 58.136 240.877 57.4H243.917C244.013 57.6667 244.157 57.896 244.349 58.088C244.519 58.2587 244.754 58.4133 245.053 58.552C245.362 58.6907 245.757 58.76 246.237 58.76C246.834 58.76 247.261 58.664 247.517 58.472C247.783 58.2693 247.917 58.0453 247.917 57.8C247.917 57.512 247.751 57.288 247.421 57.128C247.101 56.9573 246.69 56.808 246.189 56.68C245.698 56.552 245.165 56.4187 244.589 56.28C244.023 56.1307 243.49 55.928 242.989 55.672C242.498 55.4053 242.087 55.064 241.757 54.648C241.437 54.232 241.277 53.6827 241.277 53C241.277 52.5413 241.378 52.0987 241.581 51.672C241.794 51.2453 242.098 50.872 242.493 50.552C242.887 50.2213 243.373 49.96 243.949 49.768C244.525 49.576 245.181 49.48 245.917 49.48C246.461 49.48 246.946 49.5333 247.373 49.64C247.799 49.736 248.173 49.8693 248.493 50.04C248.823 50.2 249.111 50.3867 249.357 50.6C249.602 50.8027 249.81 51.016 249.981 51.24C250.375 51.752 250.647 52.3387 250.797 53H247.757C247.693 52.8187 247.586 52.6587 247.437 52.52C247.309 52.4027 247.122 52.296 246.877 52.2C246.642 52.0933 246.322 52.04 245.917 52.04C245.351 52.04 244.957 52.1253 244.733 52.296C244.509 52.456 244.397 52.6373 244.397 52.84C244.397 53.064 244.493 53.2453 244.685 53.384C244.877 53.5227 245.127 53.6453 245.437 53.752C245.746 53.8587 246.098 53.96 246.493 54.056C246.898 54.152 247.303 54.2587 247.709 54.376C248.125 54.4933 248.53 54.632 248.925 54.792C249.33 54.952 249.687 55.16 249.997 55.416C250.306 55.672 250.557 55.9813 250.749 56.344C250.941 56.696 251.037 57.128 251.037 57.64C251.037 58.12 250.935 58.584 250.733 59.032C250.53 59.4693 250.226 59.8587 249.821 60.2C249.426 60.5413 248.93 60.8133 248.333 61.016C247.735 61.2187 247.037 61.32 246.237 61.32ZM252.803 54.84H251.763V52.68H252.803V50.92H255.523V52.68H257.683V54.84H255.523V58.84H257.843V61H252.803V54.84ZM263.202 61.24C262.562 61.24 261.965 61.1227 261.41 60.888C260.856 60.6533 260.37 60.3387 259.954 59.944C259.549 59.5387 259.229 59.0693 258.994 58.536C258.76 58.0027 258.642 57.4373 258.642 56.84C258.642 56.2427 258.76 55.6773 258.994 55.144C259.229 54.6107 259.549 54.1467 259.954 53.752C260.37 53.3467 260.856 53.0267 261.41 52.792C261.965 52.5573 262.562 52.44 263.202 52.44C263.864 52.44 264.472 52.5573 265.026 52.792C265.581 53.0267 266.061 53.3467 266.466 53.752C266.872 54.1467 267.186 54.6107 267.41 55.144C267.645 55.6773 267.762 56.2427 267.762 56.84V57.32H261.442C261.528 57.8853 261.72 58.3227 262.018 58.632C262.328 58.9307 262.722 59.08 263.202 59.08C263.522 59.08 263.784 59.0373 263.986 58.952C264.2 58.8667 264.365 58.7653 264.482 58.648C264.621 58.52 264.728 58.3707 264.802 58.2H267.682C267.49 58.776 267.202 59.2827 266.818 59.72C266.658 59.912 266.461 60.0987 266.226 60.28C266.002 60.4613 265.741 60.6267 265.442 60.776C265.154 60.9147 264.824 61.0267 264.45 61.112C264.077 61.1973 263.661 61.24 263.202 61.24ZM264.882 55.96C264.797 55.5973 264.605 55.2827 264.306 55.016C264.018 54.7387 263.65 54.6 263.202 54.6C262.754 54.6 262.381 54.7387 262.082 55.016C261.794 55.2827 261.608 55.5973 261.522 55.96H264.882ZM269.042 52.68H271.762V53.8H271.922C272.082 53.544 272.285 53.32 272.53 53.128C272.744 52.9573 273 52.8027 273.298 52.664C273.608 52.5147 273.976 52.44 274.402 52.44C274.904 52.44 275.373 52.5413 275.81 52.744C276.258 52.9467 276.648 53.24 276.978 53.624C277.32 53.9973 277.586 54.456 277.778 55C277.981 55.544 278.082 56.1573 278.082 56.84C278.082 57.5227 277.981 58.136 277.778 58.68C277.586 59.224 277.32 59.688 276.978 60.072C276.648 60.4453 276.258 60.7333 275.81 60.936C275.373 61.1387 274.904 61.24 274.402 61.24C273.976 61.24 273.608 61.1707 273.298 61.032C273 60.8933 272.744 60.7387 272.53 60.568C272.285 60.376 272.082 60.1467 271.922 59.88H271.762V64.04H269.042V52.68ZM273.522 58.92C274.045 58.92 274.466 58.744 274.786 58.392C275.117 58.04 275.282 57.5227 275.282 56.84C275.282 56.1573 275.117 55.64 274.786 55.288C274.466 54.936 274.045 54.76 273.522 54.76C273 54.76 272.573 54.936 272.242 55.288C271.922 55.64 271.762 56.1573 271.762 56.84C271.762 57.5227 271.922 58.04 272.242 58.392C272.573 58.744 273 58.92 273.522 58.92ZM283.599 58.44L287.359 56.12C287.796 55.8533 288.164 55.608 288.463 55.384C288.772 55.1493 289.023 54.9307 289.215 54.728C289.407 54.5147 289.546 54.312 289.631 54.12C289.716 53.9173 289.759 53.704 289.759 53.48C289.759 53.1173 289.631 52.8133 289.375 52.568C289.119 52.3227 288.767 52.2 288.319 52.2C287.914 52.2 287.594 52.2693 287.359 52.408C287.124 52.536 286.948 52.68 286.831 52.84C286.692 53.032 286.602 53.2453 286.559 53.48H283.519C283.636 52.7333 283.887 52.0667 284.271 51.48C284.431 51.2347 284.628 50.9947 284.863 50.76C285.098 50.5147 285.38 50.3013 285.711 50.12C286.042 49.928 286.42 49.7733 286.847 49.656C287.274 49.5387 287.764 49.48 288.319 49.48C289.034 49.48 289.674 49.5813 290.239 49.784C290.804 49.976 291.284 50.248 291.679 50.6C292.074 50.9413 292.372 51.3467 292.575 51.816C292.778 52.2747 292.879 52.776 292.879 53.32C292.879 53.8 292.804 54.2427 292.655 54.648C292.516 55.0427 292.308 55.4107 292.031 55.752C291.764 56.0933 291.439 56.4133 291.055 56.712C290.671 57 290.239 57.2827 289.759 57.56L288.639 58.2L287.999 58.44V58.6L289.119 58.44H292.879V61H283.599V58.44Z" fill="#B9B9B9"/>
<path d="M488.198 61.32C487.622 61.32 487.104 61.2613 486.646 61.144C486.198 61.0373 485.792 60.8933 485.43 60.712C485.078 60.5307 484.768 60.3227 484.502 60.088C484.235 59.8533 484.006 59.6133 483.814 59.368C483.366 58.792 483.04 58.136 482.838 57.4H485.878C485.974 57.6667 486.118 57.896 486.31 58.088C486.48 58.2587 486.715 58.4133 487.014 58.552C487.323 58.6907 487.718 58.76 488.198 58.76C488.795 58.76 489.222 58.664 489.478 58.472C489.744 58.2693 489.878 58.0453 489.878 57.8C489.878 57.512 489.712 57.288 489.382 57.128C489.062 56.9573 488.651 56.808 488.15 56.68C487.659 56.552 487.126 56.4187 486.549 56.28C485.984 56.1307 485.451 55.928 484.95 55.672C484.459 55.4053 484.048 55.064 483.718 54.648C483.398 54.232 483.238 53.6827 483.238 53C483.238 52.5413 483.339 52.0987 483.542 51.672C483.755 51.2453 484.059 50.872 484.454 50.552C484.848 50.2213 485.334 49.96 485.91 49.768C486.486 49.576 487.142 49.48 487.878 49.48C488.422 49.48 488.907 49.5333 489.334 49.64C489.76 49.736 490.134 49.8693 490.454 50.04C490.784 50.2 491.072 50.3867 491.318 50.6C491.563 50.8027 491.771 51.016 491.942 51.24C492.336 51.752 492.608 52.3387 492.758 53H489.718C489.654 52.8187 489.547 52.6587 489.398 52.52C489.27 52.4027 489.083 52.296 488.838 52.2C488.603 52.0933 488.283 52.04 487.878 52.04C487.312 52.04 486.918 52.1253 486.694 52.296C486.47 52.456 486.358 52.6373 486.358 52.84C486.358 53.064 486.454 53.2453 486.646 53.384C486.838 53.5227 487.088 53.6453 487.398 53.752C487.707 53.8587 488.059 53.96 488.454 54.056C488.859 54.152 489.264 54.2587 489.67 54.376C490.086 54.4933 490.491 54.632 490.885 54.792C491.291 54.952 491.648 55.16 491.958 55.416C492.267 55.672 492.518 55.9813 492.71 56.344C492.902 56.696 492.998 57.128 492.998 57.64C492.998 58.12 492.896 58.584 492.694 59.032C492.491 59.4693 492.187 59.8587 491.782 60.2C491.387 60.5413 490.891 60.8133 490.294 61.016C489.696 61.2187 488.998 61.32 488.198 61.32ZM494.764 54.84H493.724V52.68H494.764V50.92H497.484V52.68H499.644V54.84H497.484V58.84H499.804V61H494.764V54.84ZM505.163 61.24C504.523 61.24 503.926 61.1227 503.371 60.888C502.816 60.6533 502.331 60.3387 501.915 59.944C501.51 59.5387 501.19 59.0693 500.955 58.536C500.72 58.0027 500.603 57.4373 500.603 56.84C500.603 56.2427 500.72 55.6773 500.955 55.144C501.19 54.6107 501.51 54.1467 501.915 53.752C502.331 53.3467 502.816 53.0267 503.371 52.792C503.926 52.5573 504.523 52.44 505.163 52.44C505.824 52.44 506.432 52.5573 506.987 52.792C507.542 53.0267 508.022 53.3467 508.427 53.752C508.832 54.1467 509.147 54.6107 509.371 55.144C509.606 55.6773 509.723 56.2427 509.723 56.84V57.32H503.403C503.488 57.8853 503.68 58.3227 503.979 58.632C504.288 58.9307 504.683 59.08 505.163 59.08C505.483 59.08 505.744 59.0373 505.947 58.952C506.16 58.8667 506.326 58.7653 506.443 58.648C506.582 58.52 506.688 58.3707 506.763 58.2H509.643C509.451 58.776 509.163 59.2827 508.779 59.72C508.619 59.912 508.422 60.0987 508.187 60.28C507.963 60.4613 507.702 60.6267 507.403 60.776C507.115 60.9147 506.784 61.0267 506.411 61.112C506.038 61.1973 505.622 61.24 505.163 61.24ZM506.843 55.96C506.758 55.5973 506.566 55.2827 506.267 55.016C505.979 54.7387 505.611 54.6 505.163 54.6C504.715 54.6 504.342 54.7387 504.043 55.016C503.755 55.2827 503.568 55.5973 503.483 55.96H506.843ZM511.003 52.68H513.723V53.8H513.883C514.043 53.544 514.246 53.32 514.491 53.128C514.704 52.9573 514.96 52.8027 515.259 52.664C515.568 52.5147 515.936 52.44 516.363 52.44C516.864 52.44 517.334 52.5413 517.771 52.744C518.219 52.9467 518.608 53.24 518.939 53.624C519.28 53.9973 519.547 54.456 519.739 55C519.942 55.544 520.043 56.1573 520.043 56.84C520.043 57.5227 519.942 58.136 519.739 58.68C519.547 59.224 519.28 59.688 518.939 60.072C518.608 60.4453 518.219 60.7333 517.771 60.936C517.334 61.1387 516.864 61.24 516.363 61.24C515.936 61.24 515.568 61.1707 515.259 61.032C514.96 60.8933 514.704 60.7387 514.491 60.568C514.246 60.376 514.043 60.1467 513.883 59.88H513.723V64.04H511.003V52.68ZM515.483 58.92C516.006 58.92 516.427 58.744 516.747 58.392C517.078 58.04 517.243 57.5227 517.243 56.84C517.243 56.1573 517.078 55.64 516.747 55.288C516.427 54.936 516.006 54.76 515.483 54.76C514.96 54.76 514.534 54.936 514.203 55.288C513.883 55.64 513.723 56.1573 513.723 56.84C513.723 57.5227 513.883 58.04 514.203 58.392C514.534 58.744 514.96 58.92 515.483 58.92ZM530.28 61.32C529.715 61.32 529.213 61.2613 528.776 61.144C528.339 61.0373 527.949 60.8987 527.608 60.728C527.277 60.5467 526.989 60.344 526.744 60.12C526.499 59.8853 526.291 59.6453 526.12 59.4C525.715 58.8347 525.448 58.1947 525.32 57.48H528.36C528.424 57.7147 528.541 57.928 528.712 58.12C528.851 58.28 529.043 58.4293 529.288 58.568C529.544 58.696 529.875 58.76 530.28 58.76C530.845 58.76 531.277 58.6267 531.576 58.36C531.885 58.0827 532.04 57.7627 532.04 57.4C532.04 57.048 531.885 56.7333 531.576 56.456C531.277 56.1787 530.845 56.04 530.28 56.04H527.72V54.12L530.28 52.52V52.36H525.96V49.8H534.36V52.36L531.88 53.88L531.704 53.944V54.136L531.736 54.12C532.216 54.12 532.659 54.2053 533.064 54.376C533.469 54.5467 533.821 54.7813 534.12 55.08C534.419 55.368 534.653 55.7147 534.824 56.12C534.995 56.5147 535.08 56.9413 535.08 57.4C535.08 57.944 534.973 58.456 534.76 58.936C534.547 59.4053 534.232 59.816 533.816 60.168C533.411 60.52 532.909 60.7973 532.312 61C531.715 61.2133 531.037 61.32 530.28 61.32Z" fill="#B9B9B9"/>
</svg>
