<svg width="120" height="178" viewBox="0 0 120 178" fill="none" xmlns="http://www.w3.org/2000/svg">
<g id="Layer_6">
<g id="Group">
<g id="Group_2">
<path id="Vector" d="M101.672 119.186C124.779 132.539 124.779 154.157 101.672 167.511C78.5642 180.864 41.1108 180.864 18.0034 167.511C-5.104 154.157 -5.104 132.539 18.0034 119.186C41.086 105.833 78.5642 105.833 101.672 119.186Z" fill="#618527"/>
<path id="Vector_2" d="M95.5424 121.792C115.274 133.184 115.274 151.651 95.5424 163.043C75.8105 174.435 43.8423 174.435 24.1104 163.043C4.37855 151.651 4.37855 133.184 24.1104 121.792C43.8423 110.4 75.8105 110.4 95.5424 121.792Z" fill="#8DC239"/>
</g>
<g id="Group_3">
<g id="Group_4">
<path id="Vector_3" d="M65.8824 5.23714L57.1458 10.2756L53.249 8.01697L61.9608 2.97852L65.8824 5.23714Z" fill="#BA8652"/>
<path id="Vector_4" d="M65.8827 117.82L57.1709 122.884V10.2753L65.8827 5.23682V117.82Z" fill="#966C42"/>
<path id="Vector_5" d="M53.249 120.601L57.1706 122.884V10.2757L53.249 8.01709V120.601Z" fill="#7A5836"/>
<path id="Vector_6" d="M64.7398 7.32202L63.4492 115.984L58.4355 120.303L64.7398 117.2V7.32202Z" fill="#735332"/>
<path id="Vector_7" d="M62.0103 33.9043C63.0776 32.9611 61.5884 115.562 61.5884 115.562C61.5884 115.562 60.7693 65.9469 62.0103 33.9043Z" fill="#D4985D"/>
<path id="Vector_8" d="M59.5768 12.0873C60.6441 11.5661 59.6513 55.7209 59.6513 55.7209C59.6513 55.7209 58.3358 29.4365 59.5768 12.0873Z" fill="#D4985D"/>
<path id="Vector_9" d="M59.0557 58.9477C60.1229 58.6002 59.1301 106.974 59.1301 106.974C59.1301 106.974 59.006 71.1343 59.0557 58.9477Z" fill="#D4985D"/>
</g>
<g id="Group_5">
<path id="Vector_10" d="M93.8781 2.45716L37.2389 35.1451L33.0195 32.7127L89.6587 0L93.8781 2.45716Z" fill="#FF6666"/>
<path id="Vector_11" d="M37.2389 79.2998L33.0195 76.8674V32.7126L37.2389 35.145V79.2998Z" fill="#B03131"/>
<path id="Vector_12" d="M93.8795 46.6118L37.2402 79.2998V35.145L93.8795 2.45703V46.6118Z" fill="#FF4747"/>
<path id="Vector_13" d="M93.8795 46.6118L37.2402 79.2998L93.8795 2.45703V46.6118Z" fill="#CC3939"/>
<path id="Vector_14" d="M93.8777 2.45703L37.2385 35.145L34.0615 33.3083L36.7917 35.9392L37.2385 79.2998L37.8838 35.964L93.8777 2.45703Z" fill="#FFF6EB"/>
<g id="Group_6">
<path id="Vector_15" d="M42.0059 50.5333L46.6224 47.8528V49.4661L43.7184 51.1538V53.1395L46.4486 51.5758V53.1891L43.7184 54.7527V58.2772L42.0059 59.27V50.5333Z" fill="white"/>
<path id="Vector_16" d="M54.8377 47.381C54.8377 50.2353 53.3237 52.8415 51.1147 54.1321C48.8561 55.4227 47.5654 54.2314 47.5654 51.7494C47.5654 49.1184 49.005 46.3386 51.2388 45.048C53.5719 43.7077 54.8377 44.9735 54.8377 47.381ZM49.3773 50.6573C49.3773 52.3699 50.0723 53.1641 51.214 52.5188C52.3805 51.8487 53.0258 50.1857 53.0258 48.4979C53.0258 46.9343 52.3805 45.9663 51.1891 46.6364C50.0474 47.3066 49.3773 48.9695 49.3773 50.6573Z" fill="white"/>
<path id="Vector_17" d="M55.9795 42.5661C56.5255 42.1442 57.3446 41.5981 58.2629 41.0769C59.3798 40.4316 60.174 40.1586 60.7201 40.3571C61.1668 40.506 61.4151 40.9776 61.4151 41.7719C61.4151 42.8888 60.7201 44.0553 60.0748 44.7006V44.7503C60.596 44.7006 60.8938 45.0977 61.0924 45.7927C61.3406 46.6366 61.564 47.6542 61.7129 47.9024L59.9507 48.92C59.8266 48.7463 59.6529 48.1258 59.4295 47.1826C59.2309 46.2146 58.9082 46.0905 58.2133 46.4877L57.6921 46.7855V50.2107L56.0043 51.1786V42.5661H55.9795ZM57.6672 45.346L58.3374 44.9488C59.1813 44.4524 59.7025 43.683 59.7025 42.9136C59.7025 42.1193 59.2309 41.9704 58.4366 42.4172C58.0147 42.6654 57.7913 42.8391 57.6672 42.9384V45.346Z" fill="white"/>
<path id="Vector_18" d="M64.916 37.4284C65.4621 37.0065 66.2811 36.4604 67.1995 35.9392C68.3164 35.2939 69.1106 35.0209 69.6566 35.2194C70.1034 35.3683 70.3516 35.8399 70.3516 36.6341C70.3516 37.751 69.6567 38.9176 69.0113 39.5629V39.6125C69.5326 39.5629 69.8304 39.9601 70.0289 40.655C70.2771 41.4989 70.5005 42.5165 70.6494 42.7647L68.8872 43.7823C68.7631 43.6086 68.5894 42.9881 68.366 42.0449C68.1674 41.0769 67.8448 40.9528 67.1498 41.35L66.6286 41.6478V45.073L64.9409 46.0409V37.4284H64.916ZM66.6038 40.2082L67.2739 39.8111C68.1178 39.3147 68.639 38.5453 68.639 37.7759C68.639 36.9816 68.1674 36.8327 67.3732 37.2795C66.9513 37.5277 66.7279 37.7014 66.6038 37.8007V40.2082Z" fill="white"/>
<path id="Vector_19" d="M76.0836 35.8897L73.3038 37.503V39.5879L76.4063 37.8008V39.4141L71.5664 42.194V33.4573L76.2325 30.752V32.3652L73.279 34.0778V35.8897L76.0588 34.2764V35.8897H76.0836Z" fill="white"/>
<path id="Vector_20" d="M77.5732 38.7192V29.9826L79.5837 28.8409L81.1473 31.1243C81.5941 31.7945 82.0408 32.6135 82.3883 33.4078L82.4131 33.383C82.289 32.2909 82.2642 31.1243 82.2642 29.8337V27.2772L83.8279 26.3589V35.0955L82.0408 36.138L80.4275 33.7056C79.9808 33.0355 79.4844 32.1916 79.1121 31.3725L79.0873 31.3973C79.1369 32.5142 79.1617 33.7553 79.1617 35.17V37.8009L77.5732 38.7192Z" fill="white"/>
<path id="Vector_21" d="M86.7803 26.3339L84.7451 27.5005V25.8375L90.553 22.4868V24.1498L88.4929 25.3411V32.4148L86.7803 33.4076V26.3339Z" fill="white"/>
</g>
</g>
</g>
<g id="Group_7">
<g id="Group_8">
<g id="Group_9">
<path id="Vector_22" d="M39.5215 54.7275L30.7848 59.7659L26.8633 57.5321L35.5999 52.4937L39.5215 54.7275Z" fill="#BA8652"/>
<path id="Vector_23" d="M39.5214 156.464L30.8096 161.528V59.7658L39.5214 54.7273V156.464Z" fill="#966C42"/>
<path id="Vector_24" d="M26.8633 159.269L30.8097 161.528V59.766L26.8633 57.5322V159.269Z" fill="#7A5836"/>
<path id="Vector_25" d="M38.3785 56.8372L37.0879 154.628L32.0742 158.947L38.3785 155.844V56.8372Z" fill="#735332"/>
<path id="Vector_26" d="M35.648 83.4194C36.7153 82.4762 35.2261 154.231 35.2261 154.231C35.2261 154.231 34.407 115.437 35.648 83.4194Z" fill="#D4985D"/>
<path id="Vector_27" d="M33.2184 61.603C34.2857 61.0817 33.2929 105.237 33.2929 105.237C33.2929 105.237 31.9774 78.9521 33.2184 61.603Z" fill="#D4985D"/>
<path id="Vector_28" d="M32.6973 108.463C33.7645 108.116 32.7717 145.643 32.7717 145.643C32.7717 145.643 32.6476 120.625 32.6973 108.463Z" fill="#D4985D"/>
</g>
<g id="Group_10">
<path id="Vector_29" d="M67.5198 51.948L10.8557 84.6608L6.66113 82.2036L63.3004 49.5156L67.5198 51.948Z" fill="#40CCE8"/>
<path id="Vector_30" d="M10.8557 128.815L6.66113 126.358V82.2034L10.8557 84.6606V128.815Z" fill="#2C8DA1"/>
<path id="Vector_31" d="M67.5205 96.1026L10.8564 128.815V84.6605L67.5205 51.9478V96.1026Z" fill="#37AFC7"/>
<path id="Vector_32" d="M67.5205 96.1026L10.8564 128.815L67.5205 51.9478V96.1026Z" fill="#319BB0"/>
<path id="Vector_33" d="M67.5197 51.9478L10.8557 84.6605L7.67871 82.8238L10.4337 85.4299L10.8557 128.815L11.5258 85.4796L67.5197 51.9478Z" fill="#FFF6EB"/>
<g id="Group_11">
<path id="Vector_34" d="M14.7764 100.148L19.7404 97.2942V99.0316L16.6379 100.819V102.953L19.5418 101.265V102.978L16.6379 104.666V108.438L14.8012 109.506V100.148H14.7764Z" fill="black"/>
<path id="Vector_35" d="M28.5275 96.7978C28.5275 99.8755 26.9141 102.655 24.5562 104.02C22.1487 105.41 20.7588 104.12 20.7588 101.464C20.7588 98.6594 22.2976 95.6809 24.7052 94.291C27.1872 92.8514 28.5275 94.2166 28.5275 96.7978ZM22.6947 100.297C22.6947 102.134 23.4393 102.978 24.6555 102.283C25.8965 101.563 26.5915 99.801 26.5915 97.9892C26.5915 96.3014 25.8965 95.259 24.6307 96.0036C23.4145 96.6985 22.6947 98.4856 22.6947 100.297Z" fill="black"/>
<path id="Vector_36" d="M29.7441 91.6356C30.3398 91.1888 31.2085 90.5932 32.1765 90.0223C33.3678 89.3274 34.2118 89.0543 34.8074 89.2529C35.279 89.4266 35.552 89.923 35.552 90.7917C35.552 91.9831 34.8074 93.2241 34.1125 93.919V93.9687C34.6833 93.9191 34.9812 94.341 35.2045 95.0856C35.4527 96.0039 35.7009 97.0712 35.8747 97.3442L33.9884 98.4363C33.8643 98.2377 33.6657 97.5924 33.4175 96.5748C33.1941 95.5324 32.8466 95.4083 32.102 95.8302L31.556 96.1528V99.8262L29.7441 100.869V91.6356ZM31.556 94.614L32.2758 94.1921C33.1941 93.6708 33.7402 92.8269 33.7402 92.0079C33.7402 91.1392 33.2438 91.0151 32.3999 91.4867C31.9531 91.7349 31.7049 91.9335 31.5808 92.0327V94.614H31.556Z" fill="black"/>
<path id="Vector_37" d="M39.3729 93.1246C39.8693 93.1246 40.6138 92.9756 41.4081 92.5289C42.252 92.0325 42.6987 91.3871 42.6987 90.7666C42.6987 90.1958 42.3264 90.0717 41.3336 90.2206C39.9934 90.4688 39.0998 90.0965 39.0998 88.7314C39.0998 87.1429 40.2416 85.2566 42.1527 84.1397C43.071 83.6185 43.7412 83.4447 44.2128 83.4199L43.8156 85.3559C43.493 85.3559 42.9221 85.4303 42.1279 85.9019C41.3337 86.3487 40.9613 86.994 40.9613 87.4904C40.9613 88.0861 41.4081 88.0861 42.4754 87.9371C43.9149 87.7138 44.585 88.1854 44.585 89.5008C44.585 91.0645 43.5426 93.0004 41.3088 94.2911C40.3905 94.8371 39.4722 95.0853 39.0254 95.0357L39.3729 93.1246Z" fill="black"/>
<path id="Vector_38" d="M47.6866 88.1108L47.1158 90.8409L45.2295 91.933L47.7115 81.1612L50.119 79.7712L52.6258 87.664L50.6651 88.8057L50.0446 86.7705L47.6866 88.1108ZM49.7467 85.3309L49.2503 83.6432C49.1014 83.1716 48.9525 82.5511 48.8532 82.0795L48.8284 82.1043C48.7043 82.7248 48.5802 83.4942 48.4561 84.1147L47.9845 86.3734L49.7467 85.3309Z" fill="black"/>
<path id="Vector_39" d="M53.6934 77.6862L55.53 76.6189V84.189L58.7566 82.3275V84.1145L53.6934 87.0433V77.6862Z" fill="black"/>
<path id="Vector_40" d="M64.6413 76.7681L61.6629 78.4807V80.6897L64.9887 78.7785V80.5159L59.8262 83.4943V74.1372L64.815 71.2581V72.9955L61.6629 74.8321V76.7681L64.6413 75.0555V76.7681Z" fill="black"/>
</g>
</g>
</g>
<g id="Group_12">
<path id="Vector_41" d="M61.7849 80.3671L31.5293 116.381L20.7822 99.1806L51.0626 63.1917L61.7849 80.3671Z" fill="#EBB241"/>
<g id="Group_13">
<path id="Vector_42" d="M31.9279 103.127C32.3995 102.854 33.0696 102.333 33.6653 101.638C34.3106 100.893 34.4844 100.273 34.2858 99.9255C34.0872 99.6028 33.6901 99.7517 32.7966 100.422C31.6052 101.34 30.6372 101.638 30.1657 100.893C29.6196 99.9999 30.0664 98.2874 31.506 96.5748C32.2009 95.7557 32.7718 95.2842 33.2186 94.9863L33.4916 96.3018C33.1937 96.5003 32.6477 96.8726 32.052 97.5676C31.4563 98.2874 31.3074 98.8582 31.4811 99.1313C31.6797 99.4539 32.1264 99.2057 33.0696 98.5108C34.3602 97.5676 35.1545 97.4435 35.6261 98.1633C36.1721 99.032 35.8494 100.72 34.1617 102.705C33.4667 103.524 32.6725 104.195 32.2257 104.443L31.9279 103.127Z" fill="#B82525"/>
<path id="Vector_43" d="M41.4834 89.2776C42.5507 90.9653 41.9798 93.4473 40.1928 95.5818C38.3809 97.7412 36.5939 97.8404 35.6755 96.3512C34.7075 94.7876 35.1543 92.256 36.9414 90.0966C38.8277 87.8628 40.5899 87.838 41.4834 89.2776ZM37.1151 94.589C37.7604 95.6067 38.7532 95.6563 39.6715 94.5394C40.6147 93.4225 40.6644 92.0326 40.0439 91.0398C39.473 90.1214 38.4305 89.9229 37.4874 91.0646C36.5442 92.1815 36.4946 93.5714 37.1151 94.589Z" fill="#B82525"/>
<path id="Vector_44" d="M40.8135 85.654L42.2034 84.0159L44.8343 88.2105L47.2667 85.3314L47.8872 86.3241L44.0649 90.8662L40.8135 85.654Z" fill="#B82525"/>
<path id="Vector_45" d="M45.4795 80.2183C45.9511 79.5482 46.5716 78.7292 47.2665 77.8853C48.4331 76.4954 49.3018 75.7756 50.1209 75.4529C51.0144 75.1054 51.8086 75.2544 52.3794 76.1727C52.9999 77.1655 53 78.3569 52.6773 79.4738C52.305 80.6899 51.4611 82.0799 50.2698 83.4946C49.55 84.3385 49.0287 84.9093 48.6564 85.2816L45.4795 80.2183ZM49.5252 82.7748C49.6493 82.6507 49.8478 82.4273 50.0216 82.2288C51.2874 80.7396 51.7341 79.2007 50.9647 77.9597C50.2946 76.8677 49.2025 77.1903 48.0111 78.6051C47.7133 78.9774 47.5147 79.2255 47.4154 79.3993L49.5252 82.7748Z" fill="#B82525"/>
</g>
<path id="Vector_46" d="M23.3138 108.066L20.1865 108.563L24.5548 91.7348L27.6573 91.2136L23.3138 108.066Z" fill="#146337"/>
<path id="Vector_47" d="M59.4023 88.2351L56.2998 88.7315L60.6433 71.9036L63.7706 71.3823L59.4023 88.2351Z" fill="#146337"/>
</g>
</g>
<g id="Group_14">
<g id="Group_15">
<path id="Vector_48" d="M86.9293 61.9507L78.2175 66.9892L74.2959 64.7306L83.0325 59.6921L86.9293 61.9507Z" fill="#BA8652"/>
<path id="Vector_49" d="M86.9292 161.206L78.2422 166.269V66.9891L86.9292 61.9507V161.206Z" fill="#966C42"/>
<path id="Vector_50" d="M74.2959 163.986L78.2423 166.269V66.9893L74.2959 64.7307V163.986Z" fill="#7A5836"/>
<path id="Vector_51" d="M85.8111 64.0356L84.4956 159.369L79.5068 163.688L85.8111 160.585V64.0356Z" fill="#735332"/>
<path id="Vector_52" d="M83.0572 90.6177C84.1245 89.6745 82.6353 158.947 82.6353 158.947C82.6353 158.947 81.8162 122.66 83.0572 90.6177Z" fill="#D4985D"/>
<path id="Vector_53" d="M80.6511 68.8015C81.7183 68.2802 80.7255 112.435 80.7255 112.435C80.7255 112.435 79.4101 86.1506 80.6511 68.8015Z" fill="#D4985D"/>
<path id="Vector_54" d="M80.1292 115.662C81.1965 115.314 80.2037 150.36 80.2037 150.36C80.2037 150.36 80.0548 127.824 80.1292 115.662Z" fill="#D4985D"/>
</g>
<g id="Group_16">
<path id="Vector_55" d="M114.926 59.1711L58.2868 91.859L54.0674 89.4266L110.707 56.7139L114.926 59.1711Z" fill="#FFB966"/>
<path id="Vector_56" d="M58.2868 136.014L54.0674 133.556V89.4265L58.2868 91.8589V136.014Z" fill="#B07731"/>
<path id="Vector_57" d="M114.926 103.301L58.2871 136.014V91.8588L114.926 59.1709V103.301Z" fill="#FFAC47"/>
<path id="Vector_58" d="M114.926 103.301L58.2871 136.014L114.926 59.1709V103.301Z" fill="#E69B40"/>
<path id="Vector_59" d="M114.927 59.1709L58.2873 91.8588L55.1104 90.0222L57.8654 92.6531L58.2873 136.014L58.9575 92.6779L114.927 59.1709Z" fill="#FFF6EB"/>
<g id="Group_17">
<path id="Vector_60" d="M62.209 107.347L67.1482 104.492V106.23L64.0457 108.017V110.151L66.9496 108.464V110.176L64.0457 111.864V115.637L62.209 116.704V107.347Z" fill="black"/>
<path id="Vector_61" d="M75.96 103.996C75.96 107.073 74.3468 109.853 71.9889 111.218C69.5813 112.608 68.1914 111.318 68.1914 108.662C68.1914 105.857 69.7302 102.879 72.1378 101.489C74.595 100.049 75.96 101.415 75.96 103.996ZM70.1026 107.495C70.1026 109.332 70.8471 110.176 72.0633 109.481C73.3043 108.761 73.9993 106.999 73.9993 105.187C73.9993 103.499 73.3043 102.457 72.0385 103.202C70.8223 103.897 70.1026 105.684 70.1026 107.495Z" fill="black"/>
<path id="Vector_62" d="M77.1758 98.8338C77.7715 98.3871 78.6402 97.7914 79.6081 97.2205C80.7995 96.5256 81.6434 96.2526 82.2391 96.4511C82.7107 96.6249 82.9837 97.1213 82.9837 97.9651C82.9837 99.1565 82.239 100.397 81.5441 101.092V101.142C82.1149 101.068 82.4128 101.514 82.6362 102.259C82.8844 103.177 83.1326 104.245 83.3063 104.518L81.42 105.61C81.2959 105.411 81.0973 104.766 80.8491 103.748C80.6258 102.706 80.2783 102.582 79.5337 103.004L78.9876 103.326V107L77.1758 108.042V98.8338ZM78.9876 101.812L79.7074 101.39C80.6258 100.869 81.1718 100.025 81.1718 99.2061C81.1718 98.3374 80.6754 98.2133 79.8315 98.6849C79.3848 98.9331 79.1366 99.1317 79.0125 99.2309L78.9876 101.812Z" fill="black"/>
<path id="Vector_63" d="M86.7805 100.347C87.2769 100.347 88.0215 100.199 88.8157 99.7518C89.6596 99.2554 90.1064 98.61 90.1064 97.9895C90.1064 97.4187 89.7341 97.2946 88.7413 97.4435C87.401 97.6669 86.5075 97.3194 86.5075 95.9543C86.5075 94.3658 87.6492 92.4795 89.5604 91.3626C90.4787 90.8414 91.1488 90.6676 91.6204 90.6428L91.2233 92.5788C90.9006 92.5788 90.3297 92.6532 89.5355 93.1248C88.7413 93.5716 88.369 94.2169 88.369 94.7133C88.369 95.309 88.8157 95.309 89.883 95.16C91.3225 94.9367 91.9927 95.4083 91.9927 96.7237C91.9927 98.2874 90.9503 100.223 88.7165 101.514C87.7981 102.06 86.8798 102.308 86.4082 102.259L86.7805 100.347Z" fill="black"/>
<path id="Vector_64" d="M95.1193 95.309L94.5484 98.0392L92.6621 99.1313L95.1441 88.3594L97.5517 86.9695L100.058 94.8623L98.0977 96.004L97.4772 93.9687L95.1193 95.309ZM97.1545 92.554L96.6581 90.8662C96.5092 90.3947 96.3603 89.7741 96.261 89.3026L96.2362 89.3274C96.1121 89.9479 95.988 90.7173 95.8639 91.3378L95.3923 93.5964L97.1545 92.554Z" fill="black"/>
<path id="Vector_65" d="M101.102 84.9093L102.938 83.842V91.4121L106.165 89.5506V91.3377L101.102 94.2664V84.9093Z" fill="black"/>
<path id="Vector_66" d="M112.074 83.9663L109.095 85.6789V87.8879L112.421 85.9768V87.7141L107.259 90.6925V81.3354L112.248 78.4563V80.1937L109.095 82.0304V83.9663L112.074 82.2538V83.9663Z" fill="black"/>
</g>
</g>
</g>
</g>
</g>
</svg>
