<svg width="180" height="144" viewBox="0 0 180 144" fill="none" xmlns="http://www.w3.org/2000/svg">
<g id="Layer_7">
<g id="Group">
<path id="Vector" d="M180.001 91.2151L89.7783 143.311L0.140625 91.5492L90.363 39.4536L180.001 91.2151Z" fill="#4A4A4A"/>
<path id="Vector_2" d="M176.221 91.0896L89.6107 141.076L4.33691 91.8413L90.9261 41.8337L176.221 91.0896Z" fill="#D9D9D9"/>
<path id="Vector_3" d="M91.5953 43.3369L74.4111 53.2549L88.2963 61.2728L105.48 51.3548L91.5953 43.3369Z" fill="#8DC375"/>
<path id="Vector_4" d="M91.2817 44.2561L77.2295 52.3784L88.5882 58.9347L102.661 50.8333L91.2817 44.2561Z" fill="#6EB04F"/>
<path id="Vector_5" d="M145.925 73.5922L59.3145 123.579L55.2012 121.219L141.811 71.2119L145.925 73.5922Z" fill="#EB974E"/>
<path id="Vector_6" d="M69.8585 54.0068L155.132 103.263L151.019 105.622L65.7451 56.3872L69.8585 54.0068Z" fill="#EB974E"/>
<path id="Vector_7" d="M110.074 62.4211L100.177 68.1214V50.0602L110.074 44.3391V62.4211Z" fill="#93A2A3"/>
<path id="Vector_8" d="M102.828 61.5239V69.6671L120.513 79.8774V71.7342L102.828 61.5239Z" fill="#636D6E"/>
<path id="Vector_9" d="M137.699 69.9591L120.515 79.8771V71.7339L137.699 61.8159V69.9591Z" fill="#93A2A3"/>
<path id="Vector_10" d="M120.012 51.606L102.828 61.5239L120.513 71.7342L137.698 61.8163L120.012 51.606Z" fill="#7F8C8D"/>
<path id="Vector_11" d="M8.7002 74.0933V91.194L19.0984 97.1865V80.0858L8.7002 74.0933Z" fill="#636D6E"/>
<path id="Vector_12" d="M53.2178 45.1328V65.4908L63.616 71.4834V51.1463L53.2178 45.1328Z" fill="#636D6E"/>
<path id="Vector_13" d="M61.5277 72.6944L19.0996 97.1866V80.0859L61.5277 55.5938V72.6944Z" fill="#93A2A3"/>
<path id="Vector_14" d="M73.9088 65.5535L63.5732 71.4835L63.615 51.1464L73.9088 45.1956V65.5535Z" fill="#93A2A3"/>
<path id="Vector_15" d="M51.1283 49.5801L8.7002 74.0932L19.0984 80.0857L61.5265 55.5935L51.1283 49.5801Z" fill="#7F8C8D"/>
<path id="Vector_16" d="M63.5116 39.2029L53.2178 45.1328L63.616 51.1462L73.9098 45.1954L63.5116 39.2029Z" fill="#7F8C8D"/>
<path id="Vector_17" d="M112.203 125.667L87.5644 139.886L61.9238 125.103L86.5622 110.863L112.203 125.667Z" fill="#8DC375"/>
<path id="Vector_18" d="M108.842 125.646L87.5025 137.965L65.2861 125.124L86.6255 112.805L108.842 125.646Z" fill="#6EB04F"/>
<path id="Vector_19" d="M22.5869 99.212L42.3185 110.612L74.7659 91.8832L87.2522 99.0868L109.719 86.0994L97.2537 78.8958L89.5281 74.4275L77.5012 67.4954L22.5869 99.212Z" fill="#8DC375"/>
<path id="Vector_20" d="M25.5518 98.5021L43.3832 108.817L74.6823 90.6303L85.9575 97.1448L106.253 85.4103L94.9985 78.9166L88.0037 74.8868L77.167 68.6228L25.5518 98.5021Z" fill="#6EB04F"/>
<path id="Vector_21" d="M56.5166 69.2075V87.7281L68.5226 94.6602V76.1188L56.5166 69.2075Z" fill="#636D6E"/>
<path id="Vector_22" d="M80.1735 87.9158L68.5225 94.66V76.1186L80.1735 69.3953V87.9158Z" fill="#93A2A3"/>
<path id="Vector_23" d="M68.1676 62.4634L56.5166 69.2076L68.5226 76.1189L80.1736 69.3955L68.1676 62.4634Z" fill="#7F8C8D"/>
<path id="Vector_24" d="M75.8727 88.0833L56.6631 99.1705L65.725 104.391L84.9137 93.3032L75.8727 88.0833Z" fill="#7F8C8D"/>
<path id="Vector_25" d="M158.076 82.8837V101.55L130.39 85.5772V66.8896L158.076 82.8837Z" fill="#636D6E"/>
<path id="Vector_26" d="M176.221 72.402L158.076 82.8837L130.39 66.8897L148.534 56.408L176.221 72.402Z" fill="#7F8C8D"/>
<path id="Vector_27" d="M176.221 91.0899L158.076 101.551V82.8841L176.221 72.4023V91.0899Z" fill="#93A2A3"/>
<path id="Vector_28" d="M84.9133 100.423L65.7246 111.511V104.39L84.9133 93.3032V100.423Z" fill="#93A2A3"/>
<path id="Vector_29" d="M56.6631 99.1699V106.29L65.725 111.51V104.39L56.6631 99.1699Z" fill="#636D6E"/>
<path id="Vector_30" d="M101.366 102.323L109.656 107.105L96.9189 114.475L105.208 119.257L136.194 101.384L119.595 91.7998L101.366 102.323Z" fill="#7F8C8D"/>
<path id="Vector_31" d="M109.658 107.104L101.368 102.323V91.8621L109.658 96.6645V107.104Z" fill="#636D6E"/>
<path id="Vector_32" d="M101.366 91.8624L109.656 96.6648L96.9189 104.015L105.208 108.817L136.194 90.9228L119.595 81.3389L101.366 91.8624Z" fill="#7F8C8D"/>
<path id="Vector_33" d="M136.195 101.383L105.209 119.257V108.817L136.195 90.9226V101.383Z" fill="#93A2A3"/>
<path id="Vector_34" d="M105.208 119.257L96.9189 114.475V104.014L105.208 108.817V119.257Z" fill="#636D6E"/>
<path id="Vector_35" d="M101.618 39.4536L91.7207 45.1747L100.177 50.0606L110.074 44.3396L101.618 39.4536Z" fill="#7F8C8D"/>
<path id="Vector_36" d="M91.7207 45.1748V63.236L100.177 68.1219V50.0607L91.7207 45.1748Z" fill="#636D6E"/>
<g id="Group_2">
<path id="Vector_37" d="M69.9435 39.4327C74.391 36.8645 78.0032 30.6005 78.0032 25.464C78.0032 20.3275 74.391 18.2396 69.9435 20.8078C69.4842 21.0792 69.0248 21.3924 68.5864 21.7474C68.0226 25.9651 65.3709 30.5796 62.0092 33.1896C61.9465 33.7325 61.8839 34.2754 61.8839 34.7974C61.863 39.913 65.4752 42.001 69.9435 39.4327Z" fill="#911D1D"/>
<path id="Vector_38" d="M73.701 2.28717C70.4019 0.199174 65.7666 0.387082 60.6301 3.35204C50.6704 9.09403 42.5898 23.1045 42.5898 34.6094C42.5898 46.1142 60.6301 64.3215 60.6301 64.3215L69.9426 69.6459C69.9426 69.6459 51.9023 51.4177 51.9023 39.9338C51.9023 28.4289 59.9828 14.4393 69.9426 8.67644C70.5899 8.3006 71.2163 7.98739 71.8218 7.69508L70.5899 11.2655H77.5638L82.8047 7.46539L73.701 2.28717Z" fill="#911D1D"/>
<path id="Vector_39" d="M77.1254 6.27509C74.9121 6.44213 72.49 7.21469 69.9426 8.69717C59.9829 14.4392 51.9023 28.4496 51.9023 39.9545C51.9023 51.4594 69.9426 69.6667 69.9426 69.6667C69.9426 69.6667 87.983 30.6212 87.983 19.1163C87.983 10.5555 83.5146 5.79485 77.1254 6.27509ZM61.8621 34.7763C61.8621 34.2543 61.9039 33.7114 61.9874 33.1685C62.5511 28.9507 65.2029 24.3363 68.5646 21.7263C69.003 21.3922 69.4624 21.0581 69.9217 20.7867C74.3692 18.2185 77.9814 20.3064 77.9814 25.4429C77.9814 30.5794 74.3692 36.8434 69.9217 39.4116C65.4743 42.0007 61.8621 39.9127 61.8621 34.7763Z" fill="#CC2929"/>
</g>
</g>
</g>
</svg>
