<svg width="47" height="47" viewBox="0 0 47 47" fill="none" xmlns="http://www.w3.org/2000/svg">
<g id="Iconsax/Bold/user">
<path id="Vector" d="M23.4995 23.5C26.0964 23.5 28.587 22.4684 30.4232 20.6321C32.2595 18.7958 33.2912 16.3052 33.2912 13.7083C33.2912 11.1114 32.2595 8.62086 30.4232 6.78457C28.587 4.94828 26.0964 3.91666 23.4995 3.91666C20.9026 3.91666 18.412 4.94828 16.5757 6.78457C14.7394 8.62086 13.7078 11.1114 13.7078 13.7083C13.7078 16.3052 14.7394 18.7958 16.5757 20.6321C18.412 22.4684 20.9026 23.5 23.4995 23.5ZM23.4995 28.3958C13.6882 28.3958 5.69824 34.9758 5.69824 43.0833C5.69824 43.6317 6.12908 44.0625 6.67741 44.0625H40.3216C40.8699 44.0625 41.3007 43.6317 41.3007 43.0833C41.3007 34.9758 33.3107 28.3958 23.4995 28.3958Z" fill="#B9B9B9"/>
</g>
</svg>
