<svg width="202" height="21" viewBox="0 0 202 21" fill="none" xmlns="http://www.w3.org/2000/svg">
<g id="Vector">
<path d="M181.921 6.42757C182.968 6.94278 184.021 7.23796 185.212 6.86478C186.455 6.4749 187.58 6.76453 188.618 7.59721C189.679 8.44939 190.927 8.69446 192.264 8.32128L192.23 8.3547C192.952 8.49951 193.408 9.08991 194.01 9.43245C194.241 9.56334 194.322 9.94766 194.495 10.2011C194.656 10.4406 194.884 10.4545 195.294 10.2206C195.837 9.90869 195.912 9.92262 196.101 10.5353C196.255 11.0282 196.458 11.3903 196.92 11.5713C197.352 11.7412 197.814 11.8358 198.243 12.0085C199.468 12.4958 200.685 13.0027 201.902 13.5096C201.955 13.5318 202.014 13.6572 201.997 13.7129C201.955 13.8493 201.9 13.9997 201.802 14.0916C201.693 14.1947 201.538 14.2838 201.396 14.3005C199.931 14.4564 198.469 14.6235 196.998 14.7238C196.55 14.7544 196.079 14.6235 195.631 14.5149C194.041 14.1334 192.442 13.8103 190.816 13.6349C190.607 13.6126 190.378 13.7268 190.167 13.7992C190.133 13.8103 190.106 13.9663 190.136 14.0025C190.228 14.1111 190.34 14.2253 190.468 14.2754C191.559 14.7071 192.715 14.8881 193.851 15.1471C195.06 15.4256 196.294 15.6428 197.374 16.3084C197.421 16.3362 197.444 16.4448 197.438 16.5117C197.433 16.5702 197.385 16.6398 197.338 16.6816C197.282 16.7289 197.204 16.7735 197.132 16.7818C195.65 16.9211 194.185 16.896 192.796 16.2582C192.584 16.1608 192.392 16.0048 192.172 15.9491C190.443 15.5035 188.707 15.0691 186.972 14.6541C186.864 14.6291 186.691 14.76 186.588 14.8575C186.452 14.9884 186.494 15.4172 186.622 15.498C186.75 15.5787 186.867 15.6957 187.006 15.7375C188.12 16.0717 189.214 16.4588 190.381 16.6119C193.108 16.9712 195.614 18.0545 198.143 19.0599C198.424 19.1713 198.666 19.3857 198.917 19.5667C198.964 19.6029 198.984 19.7115 198.975 19.7812C198.967 19.8424 198.917 19.9343 198.864 19.951C198.647 20.0206 198.424 20.1126 198.201 20.1126C197.564 20.1126 196.968 20.2351 196.422 20.5804C195.937 20.8868 195.394 20.9647 194.848 20.8394C193.94 20.6306 193.044 20.3855 192.144 20.1432C191.771 20.0429 191.414 19.8536 191.038 19.8035C188.103 19.4108 185.24 18.6505 182.341 18.074C177.913 17.1912 173.455 16.5117 168.988 15.8628C165.599 15.3727 162.192 15.0468 158.798 14.6207C158.335 14.5622 157.868 14.5372 157.403 14.501C153.445 14.1974 149.491 13.8883 145.533 13.5959C142.818 13.3926 140.103 13.2116 137.387 13.0194C137.309 13.0138 137.232 13.0166 137.154 13.0055C133.756 12.5349 130.328 12.5209 126.913 12.2814C125.362 12.1728 123.806 12.0976 122.249 12.0754C118.436 12.0169 114.624 12.0057 110.811 11.9584C109.488 11.9417 108.168 11.8832 106.845 11.8386C106.534 11.8275 106.216 11.7495 105.915 11.7913C103.815 12.0809 101.718 11.7356 99.6242 11.7885C97.5243 11.8442 95.4274 11.9751 93.3275 12.0224C90.8378 12.0781 88.3481 12.0698 85.8612 12.1032C84.8503 12.1171 83.8366 12.1283 82.8313 12.1979C79.8793 12.404 76.9273 12.4736 73.9669 12.4986C70.5443 12.5265 67.1217 12.5655 63.7074 12.8885C60.9197 13.1531 58.1181 13.2645 55.3304 13.5235C52.8546 13.7546 50.3761 13.9524 47.9087 14.2977C45.522 14.6291 43.1186 14.838 40.7208 15.1137C38.7909 15.3364 36.8637 15.5815 34.9366 15.8127C31.9233 16.1747 28.91 16.5312 25.8995 16.8988C23.1202 17.2385 20.3409 17.5894 17.5615 17.9292C13.7685 18.3915 10.0869 19.3885 6.3802 20.2713C6.07665 20.3437 5.77867 20.4328 5.48069 20.5192C4.33888 20.8478 3.19697 20.9759 2.03845 20.5748C1.74882 20.4746 1.42304 20.4885 1.11949 20.4189C0.359212 20.2462 -0.211644 19.3523 0.125329 18.6087C0.448378 17.8986 0.375997 17.2998 0.153205 16.6119C0.0139605 16.1803 -0.0474161 15.6707 0.0417007 15.2334C0.300696 13.9329 -0.24782 12.5877 0.29245 11.3123C0.381567 11.1006 0.509602 10.8723 0.498462 10.655C0.43441 9.38233 1.09998 8.92282 2.28635 8.70281C5.42214 8.12355 8.53285 7.41621 11.6575 6.77568C15.548 5.97642 19.4804 5.4807 23.4321 5.09638C24.6714 4.97663 25.9052 4.82346 27.1444 4.71485C28.768 4.57282 30.3999 4.50043 32.0151 4.24143C32.781 4.1189 33.5553 4.03533 34.3267 3.94622C35.2541 3.8376 36.1786 3.69278 37.1087 3.65657C38.749 3.59252 40.3615 3.35026 41.96 3.01607C43.3497 2.72922 44.7255 2.63176 46.1291 2.88519C47.1372 3.06899 48.1175 3.05227 49.0699 2.52871C49.6938 2.18338 50.4233 2.21401 51.1279 2.28085C51.9689 2.59276 51.9689 2.59554 52.654 2.31148C52.0107 2.31148 51.5569 2.31148 51.1001 2.31148C51.4845 2.02464 51.9161 1.84362 52.3951 1.86033C53.0133 1.88539 53.6399 1.89652 54.2414 2.02463C55.0101 2.18894 55.7703 2.21959 56.5529 2.21959C57.5499 2.21681 58.5692 2.10541 59.5272 2.5677C59.6971 2.65125 60.0619 2.60389 60.1817 2.47578C60.7776 1.82411 61.5601 1.82412 62.3315 1.7545C62.6406 1.72665 62.9554 1.73221 63.2589 1.67094C63.4789 1.62638 63.7296 1.54841 63.8855 1.40081C64.3144 0.985863 64.8353 0.888401 65.3895 0.888401C67.091 0.893971 68.8009 0.601557 70.4914 1.06385C71.0233 1.20867 71.5803 1.15297 72.0815 0.893976C72.8 0.523584 73.5715 0.479018 74.3485 0.467878C75.2786 0.456739 76.2115 0.459521 77.1417 0.465091C77.4619 0.467875 77.7404 0.551433 77.8796 0.893976C78.0272 1.26437 78.3587 1.22258 78.6678 1.19752C78.743 1.19195 78.8378 1.18082 78.8907 1.13626C79.5869 0.506874 80.3833 0.448399 81.2773 0.587644C82.032 0.70461 82.8118 0.654469 83.625 0.679533C83.6835 0.746371 83.7948 0.849394 83.8756 0.974715C84.065 1.27548 84.349 1.38132 84.6665 1.29499C84.9617 1.21422 85.2429 1.06943 85.5214 0.935756C86.5657 0.440044 87.638 0.498496 88.7074 0.799265C88.8829 0.849393 89.036 1.09725 89.1279 1.28941C89.2365 1.51499 89.3647 1.66816 89.6125 1.70714C90.1612 1.78791 90.707 1.77956 91.1915 1.47322C92.6202 0.5737 94.1657 0.771435 95.7142 0.958023C95.7893 0.966378 95.8868 0.988671 95.9286 1.04158C96.6304 1.94111 97.6274 1.60413 98.5269 1.66261C98.9447 1.69046 99.2622 1.50664 99.5351 1.19195C99.8052 0.882821 100.189 0.78258 100.582 0.754731C101.047 0.721312 101.518 0.760306 101.975 0.690684C102.348 0.632201 102.704 0.459532 103.069 0.336996L103.044 0.364838C103.732 0.289646 104.423 0.21444 105.083 0.142033C105.623 0.370394 105.592 0.905105 105.798 1.30056C105.918 1.53171 106.405 1.67094 106.609 1.50107C106.843 1.30891 107.06 1.09447 107.263 0.871675C107.703 0.387102 108.249 0.119749 108.898 0.10304C109.591 0.0863305 110.282 0.100286 110.95 0.100286C111.039 0.345357 110.605 0.543068 110.897 0.673958C111.318 0.863331 111.775 0.91067 111.933 1.47044C111.995 1.68487 112.607 1.72386 112.766 1.57348C112.875 1.47043 112.958 1.33954 113.053 1.22258C113.663 0.442803 114.468 0.0557089 115.448 0.0111505C115.526 0.00836558 115.604 0 115.679 0C117.846 0.0194943 120.01 0.0362064 122.176 0.0724101C122.332 0.075195 122.335 0.26735 122.201 0.417735C122.154 0.470648 122.129 0.543084 122.045 0.690684C122.385 0.704608 122.683 0.738026 122.978 0.724101C124.29 0.668403 125.599 0.473432 126.913 0.729642C127.203 0.78534 127.54 0.740811 127.827 0.654479C128.74 0.381558 129.671 0.459521 130.598 0.465091C130.991 0.467875 131.369 0.53471 131.678 0.810415C132.116 1.19752 132.65 1.29777 133.199 1.26436C134.291 1.19752 135.352 1.30893 136.413 1.5902C136.73 1.67375 137.206 1.76563 137.335 1.18916C137.354 1.09726 137.568 0.99422 137.699 0.985865C138.162 0.952447 138.627 0.944093 139.092 0.952448C139.649 0.960803 140.192 1.09727 140.576 1.515C141.167 2.15553 141.893 2.28086 142.698 2.18339C143.069 2.13883 143.431 2.16668 143.807 1.98009C145.06 1.36185 145.071 1.39247 145.828 1.93274C146.015 2.06641 146.23 2.15831 146.43 2.27249C146.553 2.3616 146.664 2.47023 146.798 2.5315C146.995 2.62062 147.107 2.54819 147.059 2.37832C147.048 2.33376 146.928 2.30311 146.859 2.29754C146.708 2.28919 146.555 2.30033 146.405 2.30312C146.798 2.04691 147.21 1.83247 147.689 1.81855C148.076 1.80741 148.466 1.7935 148.847 1.83249C149.376 1.8854 149.931 1.70158 150.435 1.99121C150.284 2.39224 150.312 2.6206 150.51 2.6206C150.819 2.61782 151.139 2.66796 151.434 2.6067C152.456 2.39504 153.426 2.50643 154.384 2.91303C154.804 3.09126 155.267 3.1748 155.662 3.2862C155.807 3.47557 155.757 3.58695 155.542 3.62037C154.874 3.72341 154.205 3.81534 153.551 4.06598C153.933 4.06598 154.317 4.07434 154.698 4.06598C156.18 4.02978 157.622 4.19684 159.04 4.66471C159.616 4.85408 160.251 4.907 160.864 4.95156C161.418 4.99333 161.964 4.86522 162.315 4.38622C163.039 3.40036 164.025 3.16089 165.181 3.26393C165.626 3.30292 165.916 3.38366 165.827 3.90722C166.217 4.14394 166.607 4.38346 166.996 4.62017C166.849 4.62017 166.693 4.58394 166.559 4.6285C166.437 4.66749 166.259 4.78168 166.25 4.87636C166.239 4.98497 166.367 5.13257 166.47 5.22169C166.579 5.31359 166.724 5.3888 166.863 5.41108C166.991 5.43335 167.183 5.41664 167.25 5.33588C167.306 5.26904 167.247 5.0741 167.197 4.95435C167.141 4.82067 167.038 4.7065 166.955 4.58397C167.099 4.53106 167.269 4.50875 167.386 4.41963C168.798 3.33631 170.283 3.59812 171.781 4.1746C171.876 4.2108 171.981 4.41967 171.959 4.52271C171.92 4.70373 171.901 4.88194 172.071 4.91535C172.447 4.99333 172.834 5.02118 173.218 5.05739C173.995 5.13258 174.496 5.48625 174.669 6.30223C174.758 6.72553 175.181 6.87037 175.574 6.91214C176.649 7.02911 177.727 7.12934 178.805 7.20453C179.016 7.21846 179.35 7.15721 179.437 7.01239C179.941 6.17414 180.69 6.22706 181.481 6.35795C181.634 6.38301 181.781 6.42478 181.935 6.46099L181.921 6.42757ZM122.196 8.33522L122.168 8.30738C122.313 8.30459 122.455 8.31016 122.6 8.3018C122.814 8.29066 122.875 8.20153 122.753 8.079C122.722 8.04836 122.608 8.06788 122.55 8.09851C122.427 8.16535 122.313 8.25446 122.196 8.33522ZM71.7919 6.84531C72.1567 7.15164 72.5578 7.32707 73.048 7.20453C73.488 7.09314 73.9307 6.9929 74.3679 6.87594C74.4264 6.85923 74.4681 6.77288 74.5155 6.71996C74.418 6.63363 74.3262 6.48606 74.2204 6.47214C73.3654 6.36074 72.5884 6.7534 71.7669 6.87872C71.5552 6.83416 71.3408 6.76174 71.1291 6.75896C70.9314 6.75617 70.87 6.89542 70.9759 7.03745C71.0065 7.07922 71.1152 7.09315 71.1764 7.07365C71.3853 7.0096 71.5886 6.92328 71.7919 6.84531ZM26.9271 11.1647C26.8575 11.1675 26.7851 11.1591 26.7238 11.1814C26.6765 11.1981 26.6403 11.251 26.6013 11.29C26.7016 11.2371 26.8018 11.187 26.9048 11.1341C27.2947 11.1536 27.6847 11.1424 28.069 11.1953C28.9267 11.3095 29.7455 11.3234 30.581 10.9781C31.383 10.6467 32.2631 10.6551 33.1152 10.8166C34.1122 11.0087 35.1119 10.5687 36.1006 10.8556C37.248 10.6968 38.3341 10.2123 39.5065 10.1928C40.782 9.52438 42.1828 9.44917 43.5725 9.29878C44.032 9.24866 44.486 9.15119 44.9399 9.05929C44.9789 9.05093 45.0317 8.86992 45.0123 8.85599C44.9009 8.77245 44.7589 8.64157 44.6447 8.65549C42.9459 8.84765 41.2527 9.09549 39.554 9.26258C36.382 9.57727 33.2406 10.1092 30.0686 10.4211C29.2972 10.4963 28.5285 10.6411 27.7682 10.7971C27.4758 10.8583 27.2084 11.0394 26.9271 11.1647ZM163.226 12.106C163.557 11.8888 163.919 11.7718 164.315 11.8163C164.849 11.8748 165.378 11.989 165.913 12.0085C166.286 12.0224 166.665 11.9194 167.038 11.8553C167.094 11.847 167.155 11.7606 167.178 11.6994C167.2 11.6353 167.208 11.5295 167.172 11.4877C166.738 11.0031 166.178 10.7692 165.537 10.811C164.927 10.85 164.32 10.9809 163.71 11.0143C163.215 11.0421 162.822 10.7832 162.568 10.3626C162.451 10.1705 162.407 9.93374 162.329 9.71931C162.872 9.69981 163.421 9.62743 163.958 9.67199C165.507 9.80288 167.072 9.88082 168.595 10.1649C171.271 10.6606 173.998 10.8277 176.652 11.4488C176.799 11.4822 176.961 11.471 177.117 11.471C177.195 11.471 177.292 11.471 177.342 11.4265C177.445 11.3401 177.596 11.2176 177.587 11.1173C177.579 11.0032 177.44 10.8166 177.334 10.7998C176.031 10.5826 174.727 10.3877 173.452 10.0229C173.095 9.91984 172.68 9.97274 172.299 10.0034C171.667 10.0563 171.074 9.96159 170.464 9.78335C168.904 9.32663 167.23 9.42968 165.69 8.84763C165.621 8.82257 165.537 8.83927 165.459 8.84206C163.972 8.89775 162.521 8.58307 161.067 8.36585C159.903 8.19319 158.759 8.0985 157.586 8.25723C157.132 8.3185 156.637 8.34636 156.205 8.22939C155.138 7.93698 154.069 7.86736 152.975 7.88407C152.281 7.89521 151.585 7.7643 150.889 7.69189C150.27 7.62784 149.652 7.49419 149.037 7.50811C147.555 7.54153 146.088 7.43848 144.62 7.28531C143.692 7.18784 142.762 7.12377 141.829 7.06808C141.609 7.05415 141.381 7.13214 141.161 7.18784C141.114 7.19898 141.061 7.29645 141.055 7.35493C141.05 7.42455 141.08 7.55544 141.116 7.5638C141.568 7.65848 142.019 7.78103 142.475 7.81445C147.201 8.14585 151.922 8.5803 156.659 8.76411C157.046 8.77803 157.43 8.85601 157.815 8.90614C158.739 9.02589 159.661 9.15957 160.588 9.25704C161.212 9.32388 161.822 9.41018 162.365 9.75551C161.287 9.81678 160.185 9.76109 159.138 9.97553C158.046 10.2011 157.021 10.3097 155.96 9.89476C155.45 9.69703 154.896 9.67756 154.367 9.84744C154.258 9.88085 154.183 10.0591 154.119 10.1844C154.094 10.2317 154.133 10.3376 154.178 10.3877C154.275 10.5019 154.384 10.6216 154.509 10.6968C155.13 11.0756 155.796 11.1786 156.514 11.0449C157.45 10.8723 158.411 10.8834 159.21 11.4098C159.976 11.9138 160.772 12.0252 161.63 12.0364C162.17 12.0419 162.71 12.0642 163.254 12.0781C163.318 12.0948 163.382 12.1088 163.446 12.1255C163.373 12.1199 163.298 12.1143 163.226 12.106ZM89.9662 6.93441L89.9383 6.90378C90.3895 6.80631 90.8405 6.62808 91.2945 6.62808C92.1439 6.62808 92.9989 6.70606 93.8455 6.80631C94.3217 6.86201 94.7646 6.83974 95.2241 6.71442C95.5165 6.63366 95.8423 6.5668 96.1347 6.61692C96.7641 6.71997 97.3684 6.61695 97.9867 6.53897C98.4406 6.48049 98.9112 6.54174 99.3763 6.55288C99.8386 6.56402 100.304 6.62528 100.76 6.58072C101.251 6.53338 101.674 6.65869 102.106 6.85642C102.401 6.99288 102.704 6.9734 102.98 6.76732C103.376 6.47769 103.824 6.3858 104.303 6.43036C105.23 6.51669 106.158 6.60857 107.085 6.68933C107.469 6.72275 107.884 6.84253 108.235 6.74784C109.168 6.49441 110.07 6.53896 110.998 6.73669C111.293 6.80074 111.624 6.77012 111.925 6.71442C113.771 6.37467 115.637 6.41921 117.5 6.42478C120.296 6.43314 123.093 6.46376 125.889 6.48604C126.089 6.55566 126.287 6.63085 126.487 6.68933C126.551 6.70883 126.632 6.69771 126.693 6.67264C126.746 6.65036 126.78 6.58907 126.822 6.54451C126.71 6.49996 126.599 6.41642 126.49 6.41921C126.278 6.42478 126.07 6.48047 125.861 6.51667C125.73 6.43313 125.61 6.31616 125.468 6.26881C124.12 5.81487 122.742 5.64221 121.333 5.88449C120.711 5.99032 120.113 6.00703 119.483 5.88728C118.957 5.78703 118.397 5.80654 117.857 5.84275C116.531 5.93187 115.222 5.87616 113.905 5.65894C112.83 5.48349 111.736 5.4278 110.669 5.77313C109.984 5.99592 109.305 5.9597 108.603 5.79261C107.377 5.50298 106.138 5.49184 104.899 5.75919C104.523 5.83995 104.113 5.93464 103.749 5.87059C102.974 5.73413 102.195 5.82882 101.432 5.73692C98.9447 5.44172 96.4661 5.73692 93.9903 5.84275C92.4391 5.90959 90.8879 6.04603 89.3312 6.06552C89.0276 6.0683 88.7241 6.14349 88.4234 6.20198C88.3788 6.21033 88.3231 6.31337 88.3259 6.36906C88.3314 6.42755 88.3927 6.52226 88.4428 6.53061C88.9608 6.62251 89.5457 6.45819 89.9662 6.93441ZM57.6418 7.66405C59.8697 8.10685 61.8163 8.29065 63.3926 8.18761C63.7797 8.16255 64.1864 8.15978 64.5429 8.03168C65.7988 7.57495 67.0993 7.39116 68.4221 7.30761C68.4918 7.30204 68.5642 7.25188 68.6227 7.20732C68.684 7.15998 68.7786 7.08201 68.7702 7.03745C68.7396 6.90377 68.6922 6.69213 68.6031 6.66428C68.3135 6.57238 67.9989 6.4916 67.7009 6.5111C66.1581 6.61135 64.6208 6.88428 63.0641 6.68933C62.9137 6.66984 62.7549 6.70884 62.6017 6.73111C60.992 6.98176 59.3852 7.23239 57.7783 7.49139C57.7254 7.50253 57.6864 7.60557 57.6418 7.66405ZM175.772 12.571C175.424 12.61 175.27 12.6156 175.12 12.649C174.933 12.688 174.853 12.8078 174.906 12.9665C174.928 13.0333 174.978 13.1169 175.034 13.1392C175.315 13.2534 175.596 13.3842 175.891 13.4455C178.757 14.0275 181.648 14.4843 184.472 15.2696C184.541 15.2891 184.63 15.2752 184.7 15.2529C184.77 15.2306 184.85 15.1889 184.884 15.1304C184.912 15.083 184.909 14.9772 184.873 14.9326C184.455 14.4397 183.876 14.1751 183.274 14.1027C181.506 13.8883 179.815 13.3508 178.086 12.9804C177.259 12.8022 176.421 12.6824 175.772 12.571ZM82.2659 6.86478C83.2879 7.10707 84.5913 6.82579 85.8974 6.75896C86.0478 6.7506 86.2177 6.72832 86.3374 6.65034C86.4405 6.58072 86.5546 6.41085 86.5351 6.3078C86.5156 6.19919 86.3347 6.02654 86.2428 6.03768C84.4883 6.23819 82.7003 5.92908 80.9598 6.39694C80.5309 6.51112 80.0436 6.43591 79.5869 6.41084C78.7403 6.3635 77.8936 6.24656 77.0609 6.50277C76.9996 6.52226 76.9133 6.58352 76.9049 6.63644C76.8743 6.80632 76.9829 6.88707 77.1667 6.93719C77.6903 7.07922 78.2084 7.2157 78.757 7.05975C79.8125 6.75341 80.8957 6.80909 82.2659 6.86478ZM151.292 10.591C151.457 10.591 151.766 10.6161 152.069 10.5799C152.195 10.5659 152.37 10.4378 152.401 10.3292C152.431 10.2178 152.345 9.99224 152.245 9.94211C151.546 9.58286 150.808 9.37122 150.017 9.56895C149.399 9.7249 148.794 9.69703 148.19 9.51044C148.045 9.46588 147.884 9.45755 147.731 9.46312C147.58 9.46869 147.43 9.50209 147.285 9.54664C147.224 9.56614 147.162 9.63577 147.135 9.69704C147.107 9.75831 147.093 9.86692 147.129 9.9087C147.708 10.5799 148.335 11.0784 149.323 10.7414C149.903 10.5436 150.521 10.4434 151.292 10.591ZM47.424 8.57472C47.5577 8.62206 47.6914 8.71396 47.825 8.71396C48.3653 8.70839 48.9196 8.7474 49.4403 8.63044C50.6601 8.35752 51.8854 8.32685 53.1219 8.3547C53.1999 8.35748 53.2779 8.35472 53.3531 8.34358C53.4283 8.33244 53.5202 8.32409 53.5731 8.27954C53.6817 8.17928 53.7903 8.06785 53.8627 7.93696C53.963 7.75038 53.7346 7.48305 53.4923 7.51369C51.7351 7.72534 49.9778 7.9342 48.2233 8.17092C47.9253 8.20991 47.5967 8.26559 47.424 8.57472ZM171.455 11.4654C171.21 11.5601 170.854 11.6882 170.505 11.8386C170.308 11.9222 170.297 12.3009 170.469 12.4374C171.04 12.8941 171.656 13.142 172.394 12.9025C172.566 12.8468 172.719 12.4847 172.633 12.3204C172.41 11.886 172.076 11.5935 171.455 11.4654ZM142.303 9.04538C142.088 9.05931 141.924 9.037 141.782 9.08713C141.657 9.13169 141.556 9.25145 141.448 9.33778C141.548 9.43246 141.64 9.59955 141.751 9.61348C142.907 9.75551 144.066 9.87247 145.221 9.98943C145.288 9.995 145.391 9.94488 145.425 9.88918C145.494 9.76665 145.544 9.62742 145.569 9.48817C145.578 9.43526 145.503 9.31551 145.455 9.31272C144.386 9.21525 143.314 9.12893 142.303 9.04538ZM98.4685 8.97576C99.8525 8.36587 99.8525 8.36585 100.139 7.9509C99.2092 7.77824 98.3014 7.7476 97.2599 8.01774C97.7277 8.38534 98.1092 8.68892 98.4685 8.97576ZM131.943 6.5111C131.258 6.3997 130.576 6.27441 129.885 6.18807C129.662 6.16022 129.425 6.22149 129.197 6.26048C129.13 6.27162 129.052 6.344 129.024 6.40806C128.949 6.58908 129.019 6.71439 129.205 6.75338C130.127 6.94832 131.052 6.83415 131.943 6.5111ZM179.501 11.8609C180.239 12.1533 180.974 12.2647 181.729 12.2759C181.826 12.2786 181.996 12.1088 182.004 12.0057C182.015 11.8888 181.915 11.7105 181.809 11.6437C181.191 11.2538 180.534 11.1257 179.852 11.471C179.729 11.5323 179.654 11.6855 179.501 11.8609ZM119.269 0.565343C119.138 0.504075 119.007 0.387108 118.879 0.389893C117.89 0.401032 116.899 0.431672 115.91 0.465091C115.843 0.467875 115.782 0.534714 115.718 0.570918C115.846 0.634971 115.977 0.754731 116.105 0.754731C117.094 0.743591 118.085 0.710164 119.074 0.676746C119.141 0.673961 119.205 0.604331 119.269 0.565343ZM187.694 12.8829C187.477 12.9108 187.329 12.9164 187.193 12.9581C187.142 12.9721 187.095 13.064 187.084 13.128C187.073 13.1921 187.089 13.2868 187.134 13.3286C187.532 13.7435 188.02 13.9022 188.577 13.7407C188.677 13.7129 188.744 13.529 188.794 13.4065C188.811 13.3675 188.744 13.2506 188.694 13.2311C188.34 13.0974 187.986 12.9832 187.694 12.8829ZM109.271 7.9899C108.589 7.87571 108.048 7.65572 107.447 7.68914C107.386 7.69192 107.272 7.78939 107.28 7.82281C107.308 7.95648 107.336 8.14585 107.43 8.20155C108.004 8.54409 108.583 8.55801 109.271 7.9899ZM137.577 7.14885C138.073 7.49139 138.565 7.51366 139.078 7.31315C139.122 7.29644 139.17 7.1934 139.159 7.14327C139.145 7.08201 139.078 7.00126 139.019 6.98734C138.524 6.85088 138.034 6.77567 137.577 7.14885ZM184.686 12.4151C184.644 12.248 184.525 12.1561 184.369 12.2313C184.266 12.2814 184.149 12.4179 184.143 12.5209C184.132 12.6825 184.291 12.7827 184.444 12.7103C184.55 12.6629 184.608 12.5154 184.686 12.4151ZM135.221 7.11822C135.341 7.14885 135.477 7.22962 135.577 7.19621C135.725 7.14886 135.728 7.00127 135.605 6.88709C135.563 6.8481 135.455 6.82024 135.43 6.84252C135.346 6.92049 135.288 7.02353 135.221 7.11822ZM92.325 7.99547C92.1328 7.97041 92.0354 8.03447 92.0799 8.1765C92.0938 8.21827 92.1941 8.24331 92.2582 8.25445C92.4476 8.29065 92.5449 8.21827 92.5004 8.06788C92.492 8.03168 92.389 8.01775 92.325 7.99547ZM117.89 7.98432C117.829 8.02331 117.768 8.06231 117.707 8.1013C117.757 8.15143 117.798 8.22105 117.86 8.24612C117.924 8.27397 118.01 8.27673 118.077 8.25723C118.144 8.24053 118.197 8.18206 118.258 8.14029C118.135 8.09016 118.013 8.03723 117.89 7.98432ZM55.4445 7.75319C55.4528 7.82002 55.4334 7.91469 55.4696 7.94533C55.5922 8.04837 55.7258 8.01497 55.8149 7.8618C55.84 7.81724 55.8289 7.70305 55.7899 7.67241C55.6645 7.56659 55.5419 7.60559 55.4445 7.75319ZM94.3857 8.03168L94.3078 8.13472L94.4609 8.14029L94.3857 8.03168ZM182.681 7.55543C182.631 7.58607 182.581 7.61672 182.531 7.64457C182.628 7.76989 182.728 7.76989 182.829 7.64736C182.778 7.61672 182.731 7.58607 182.681 7.55543ZM53.1665 3.38366L53.3392 3.47837L53.3669 3.33913L53.1665 3.38366ZM112.546 7.97596C112.496 8.01773 112.446 8.05674 112.396 8.09851C112.437 8.14585 112.471 8.22662 112.521 8.23776C112.699 8.27953 112.777 8.19877 112.719 8.03725C112.705 8.00105 112.605 7.99545 112.546 7.97596ZM13.529 12.7298L13.6515 12.7994L13.6794 12.702L13.529 12.7298Z" fill="#009FBD"/>
<path d="M103.083 0.339795C102.637 0.339795 102.192 0.339795 101.618 0.339795C102.203 0.0752296 102.203 0.0752228 103.055 0.367637C103.058 0.367637 103.083 0.339795 103.083 0.339795Z" fill="#009FBD"/>
<path d="M181.946 6.45818C182.222 6.21311 182.522 6.02931 182.912 6.11286C182.965 6.124 183.026 6.18804 183.046 6.24374C183.06 6.28273 183.007 6.38577 182.979 6.38577C182.625 6.40805 182.272 6.41641 181.918 6.42755C181.921 6.42755 181.946 6.45818 181.946 6.45818Z" fill="#009FBD"/>
<path d="M161.056 4.17735L160.914 4.04368L161.087 3.99357L161.056 4.17735Z" fill="#009FBD"/>
<path d="M192.267 8.31849L192.18 8.27954L192.233 8.35195L192.267 8.31849Z" fill="#009FBD"/>
</g>
</svg>
