<svg width="20" height="20" viewBox="0 0 20 20" fill="none" xmlns="http://www.w3.org/2000/svg">
<g id="Iconsax/Linear/people">
<path id="Vector" d="M14.142 12.0333C15.2837 12.225 16.542 12.025 17.4254 11.4333C18.6004 10.65 18.6004 9.36663 17.4254 8.58329C16.5337 7.99163 15.2587 7.79163 14.117 7.99163M5.83371 12.0333C4.69205 12.225 3.43371 12.025 2.55038 11.4333C1.37538 10.65 1.37538 9.36663 2.55038 8.58329C3.44205 7.99163 4.71705 7.79163 5.85871 7.99163M15.0004 5.96663C14.9479 5.95829 14.8945 5.95829 14.842 5.96663C14.2859 5.94651 13.7594 5.71097 13.3737 5.30976C12.9881 4.90856 12.7735 4.37313 12.7754 3.81663C12.7754 2.62496 13.7337 1.66663 14.9254 1.66663C15.4956 1.66663 16.0425 1.89314 16.4457 2.29635C16.8489 2.69955 17.0754 3.24641 17.0754 3.81663C17.0738 4.37352 16.857 4.90826 16.4703 5.30897C16.0836 5.70968 15.5569 5.94533 15.0004 5.96663ZM4.97538 5.96663C5.02538 5.95829 5.08371 5.95829 5.13371 5.96663C5.68985 5.94651 6.21639 5.71097 6.60204 5.30976C6.9877 4.90856 7.20226 4.37313 7.20038 3.81663C7.20038 2.62496 6.24205 1.66663 5.05038 1.66663C4.48016 1.66663 3.9333 1.89314 3.5301 2.29635C3.1269 2.69955 2.90038 3.24641 2.90038 3.81663C2.90871 4.98329 3.82538 5.92496 4.97538 5.96663ZM10.0004 12.1916C9.94793 12.1833 9.89449 12.1833 9.84205 12.1916C9.28591 12.1715 8.75937 11.936 8.37372 11.5348C7.98806 11.1336 7.7735 10.5981 7.77538 10.0416C7.77538 8.84996 8.73371 7.89163 9.92538 7.89163C10.4956 7.89163 11.0425 8.11814 11.4457 8.52135C11.8489 8.92455 12.0754 9.47141 12.0754 10.0416C12.067 11.2083 11.1504 12.1583 10.0004 12.1916ZM7.57538 14.8166C6.40038 15.6 6.40038 16.8833 7.57538 17.6666C8.90871 18.5583 11.092 18.5583 12.4254 17.6666C13.6004 16.8833 13.6004 15.6 12.4254 14.8166C11.1004 13.9333 8.90871 13.9333 7.57538 14.8166Z" stroke="#009FBD" stroke-width="1.25" stroke-linecap="round" stroke-linejoin="round"/>
</g>
</svg>
