<svg width="20" height="20" viewBox="0 0 20 20" fill="none" xmlns="http://www.w3.org/2000/svg">
<g id="Iconsax/Linear/usersquare">
<path id="Vector" d="M15.1167 18.0167C14.3833 18.2334 13.5167 18.3334 12.5 18.3334H7.5C6.48333 18.3334 5.61666 18.2334 4.88333 18.0167C5.06666 15.8501 7.29166 14.1417 10 14.1417C12.7083 14.1417 14.9333 15.8501 15.1167 18.0167Z" stroke="#009FBD" stroke-width="1.25" stroke-linecap="round" stroke-linejoin="round"/>
<path id="Vector_2" d="M12.5 1.66663H7.5C3.33333 1.66663 1.66666 3.33329 1.66666 7.49996V12.5C1.66666 15.65 2.61666 17.375 4.88333 18.0166C5.06666 15.85 7.29166 14.1416 10 14.1416C12.7083 14.1416 14.9333 15.85 15.1167 18.0166C17.3833 17.375 18.3333 15.65 18.3333 12.5V7.49996C18.3333 3.33329 16.6667 1.66663 12.5 1.66663ZM10 11.8083C8.35 11.8083 7.01666 10.4666 7.01666 8.81663C7.01666 7.16663 8.35 5.83329 10 5.83329C11.65 5.83329 12.9833 7.16663 12.9833 8.81663C12.9833 10.4666 11.65 11.8083 10 11.8083Z" stroke="#009FBD" stroke-width="1.25" stroke-linecap="round" stroke-linejoin="round"/>
<path id="Vector_3" d="M12.9833 8.81671C12.9833 10.4667 11.65 11.8084 10 11.8084C8.35 11.8084 7.01667 10.4667 7.01667 8.81671C7.01667 7.16671 8.35 5.83337 10 5.83337C11.65 5.83337 12.9833 7.16671 12.9833 8.81671Z" stroke="#009FBD" stroke-width="1.25" stroke-linecap="round" stroke-linejoin="round"/>
</g>
</svg>
